<?xml version="1.0" encoding="UTF-8"?>
<svg id="Calque_2" data-name="Calque 2" xmlns="http://www.w3.org/2000/svg" viewBox="0 0 35.01 77.27">
  <defs>
    <style>
      .cls-1 {
        fill: #38318d;
        stroke: #38318d;
        stroke-miterlimit: 10;
      }
    </style>
  </defs>
  <g id="Calque_1-2" data-name="Calque 1">
    <path class="cls-1" d="M34.5,76.77l-.43-38.01c0-5.11-2.36-9.83-6.48-12.96l-.3-.17.49,15.38c0,.15,0,.3,0,.44-.09,3.24-1.21,6.27-3.14,8.53-1.93,2.25-4.46,3.5-7.14,3.5s-5.22-1.24-7.14-3.5c-1.93-2.26-3.04-5.29-3.14-8.53,0-.15,0-.3,0-.44l.48-15.09c-.15.03-.1-.16-.25-.19-4.02,3.13-6.53,7.97-6.53,13.02l-.42,37.94v.07h.29l.42-38.01c0-4.94,2.25-9.52,6.19-12.6l-.48,14.85c0,.15,0,.3,0,.45.1,3.31,1.23,6.4,3.21,8.71,1.98,2.32,4.6,3.6,7.36,3.6s5.38-1.28,7.36-3.6c1.97-2.31,3.11-5.4,3.21-8.71,0-.15,0-.3,0-.46l-.48-14.84c3.93,3.07,6.18,7.64,6.18,12.59l.43,37.94v.07h.29Z"/>
    <path class="cls-1" d="M27.54,32.76c-.18-9.36-4.27-31.53-10.04-31.53S7.65,23.13,7.46,32.76h-.27C7.37,23.39,11.06.5,17.5.5s10.12,22.4,10.31,32.25h-.27Z"/>
  </g>
</svg>