<?xml version="1.0" encoding="UTF-8"?>
<svg id="Calque_1" xmlns="http://www.w3.org/2000/svg" version="1.1" viewBox="0 0 35 78">
  <!-- Generator: Adobe Illustrator 29.6.1, SVG Export Plug-In . SVG Version: 2.1.1 Build 9)  -->
  <defs>
    <style>
      .st0 {
        stroke-width: .2px;
      }

      .st0, .st1 {
        fill: #38318d;
        stroke: #38318d;
        stroke-miterlimit: 10;
      }
    </style>
  </defs>
  <path class="st1" d="M34.1,38.8c0-5.1-2.4-9.8-6.5-13l-.8-25.1h0c0-.1-18.6-.2-18.6-.2l-.8,25.3c-4.1,3.1-6.5,7.9-6.5,13l-.4,37.9h0c0,0,.3,0,.3,0l.4-38c0-4.9,2.3-9.5,6.2-12.6l-.5,14.8c0,.2,0,.3,0,.5,0,3.3,1.2,6.4,3.2,8.7,2,2.3,4.6,3.6,7.4,3.6s5.4-1.3,7.4-3.6c2-2.3,3.1-5.4,3.2-8.7,0-.2,0-.3,0-.5l-.5-14.8c3.9,3.1,6.2,7.6,6.2,12.6l.4,37.9h0c0,0,.3,0,.3,0l-.4-38ZM27.8,41c0,.1,0,.3,0,.4,0,3.2-1.2,6.3-3.1,8.5-1.9,2.3-4.5,3.5-7.1,3.5s-5.2-1.2-7.1-3.5c-1.9-2.3-3-5.3-3.1-8.5,0-.1,0-.3,0-.4L8.5.8h18s1.3,40.2,1.3,40.2Z"/>
  <g id="Calque_1-2">
    <path class="st0" d="M16.5,39.4l.2-.9c.2-.7-.2-1.2-.7-1.6-.1,0-.2-.2-.3-.3-.2-.3-.5-.5-.7-.7-.5-.5-.9-.9-.9-2.2,0-.7.1-1.4.4-2.1-.8.5-1.5.6-2.2.4-.7-.2-1-.7-1.5-1.4-.3-.3-.5-.7-.9-1.1-.8-.9-1.8-1.6-2.8-2.1l-.4-.2.3-.3c.5-.5,1-1,1.6-1.4.6-.4,1-.9,1.5-1.3,1.3-1.2,2.3-2.1,3.6-1.9.2,0,.3,0,.6.2-.2-.6-.3-1.4-.1-2.5,0,0,0-.1,0-.2,0-.5,0-1.1,1-2.1,1.1-1.1,1.4-1.6,1.7-2.7l.4-1.2.3,1.2c0,.2.9.5,1.5.8,1.6.6,3.8,1.4,3.3,3.6-.2.7-.4,1.3-.6,1.9.2,0,.4-.2.6-.2.5-.2,1-.3,1.5-.3,1-.2,1.8-.3,2.2-.9l.4-.8.2.9c0,.4.2.8.3,1.1.4,1.5.8,2.9-.2,4.2-.5.7-1.1,1.1-1.7,1.3.8.4,1.3.9,1.4,1.2.4.5.4.9.4,1.3,0,.4,0,.8.3,1.6.3.9.9,1.7,1.7,2.4l.3.2-.3.3c-.4.4-1.3.5-2.2.6-.4,0-.9,0-1.3.2,0,0-.2,0-.3.1-.7.3-1.9.9-3.3-.5-.3-.3-.5-.6-.7-.9,0,.6-.1,1.2-.3,1.7-.1.2-.1.4-.2.6,0,.2,0,.5-.3,1-.2.6-2.2,2.1-2.8,2.5l-.8.6ZM16.7,28.8l-1,1.9c-.5,1-.8,2-.8,3.1,0,.9.2,1.1.7,1.7.2.2.4.5.7.8,0,0,0,0,.2.1.3.3.9.7,1,1.5,1-.7,1.9-1.5,2-1.8.2-.4.2-.6.2-.9,0-.2,0-.4.2-.8.4-.8.4-2,0-3.4l.7-.2c.2.7.7,1.8,1.5,2.6,1.1,1,1.9.6,2.5.3.2,0,.4-.2.5-.2.5,0,.9-.1,1.4-.2.5,0,1.1-.1,1.5-.2-.7-.7-1.2-1.5-1.5-2.4-.3-.9-.4-1.4-.4-1.8,0-.4,0-.6-.3-.9-.2-.3-.8-1-2.1-1.2-.6,0-1.1,0-1.3,0l-2.3-.5,2.4-.2c.5,0,.9,0,1.3,0,.7,0,1.6-.4,2.4-1.4.9-1.1.6-2.1.1-3.6,0-.2,0-.3-.1-.5-.6.5-1.4.6-2.2.7-.5,0-1,.2-1.4.3-.5.2-1,.5-1.5.9l-1.5,1.2.9-1.7c.5-.9.9-1.9,1.1-2.9.4-1.5-1-2.2-2.8-2.8-.6-.2-1.1-.4-1.5-.6-.3.8-.7,1.4-1.7,2.4-.9.9-.8,1.2-.8,1.6,0,.1,0,.2,0,.4-.2,2,.3,2.9.7,3.4,0,0,.1.2.2.2h0c.5.7.5.7.7,1.2h0c0,0-.6.4-.6.4-.2-.4-.5-.8-.7-1.1h0c0-.2,0-.2-.1-.3-.6-.7-1.1-.8-1.4-.9-.9-.2-1.8.6-3,1.7-.5.4-1,.9-1.6,1.4-.4.3-.8.7-1.2,1,1,.5,1.8,1.2,2.6,2.1.4.4.7.8,1,1.2.4.6.7,1,1.2,1.1.7.2,1.6-.1,2.6-1.1l1.6-1.5Z"/>
    <path class="st0" d="M18.7,27c0-.6,0-1.2.3-1.8.2-.7.6-1.3,1-1.8l.4.3c-.4.5-.7,1.1-.9,1.7-.2.5-.3,1.1-.2,1.6h-.5Z"/>
    <path class="st0" d="M19.2,27.1l-.5-.2c.2-.6.5-1.2.9-1.8,1.4-1.8,3.4-2.2,4.2-2.3v.5c-.7,0-2.6.5-3.8,2.1-.4.5-.6,1-.8,1.6Z"/>
    <path class="st0" d="M19.2,27.1l-.5-.2c.2-.5.5-.9.9-1.2,1.1-1,2.4-1.2,3.1-1.2v.5c-.6,0-1.8.2-2.8,1.1-.3.3-.6.7-.8,1.1Z"/>
    <path class="st0" d="M20.2,23.8c-.1,0-.2,0-.2,0-.3-.2-.1-.7.2-1.1.2-.3.5-.5.7-.5.1,0,.2,0,.3,0,.3.2.1.7-.2,1.1-.2.3-.5.5-.7.5,0,0,0,0,0,0ZM20.6,22.8s0,0-.1.1c0,0,0,.1-.1.2,0,0,0,0,.1-.1,0,0,0-.1.1-.2Z"/>
    <path class="st0" d="M24.1,23.4c-.1,0-.3,0-.4,0,0,0-.1-.1-.1-.2,0-.4.7-.6.8-.6h0c.2,0,.7-.1.9,0,0,0,.1.1.1.2,0,.4-.7.6-.8.6,0,0-.3,0-.5,0ZM24.1,23.1c.1,0,.3,0,.5,0,.2,0,.4-.1.5-.2-.1,0-.3,0-.5,0h0c-.2,0-.4.1-.5.2Z"/>
    <path class="st0" d="M23.3,25.1c-.4,0-.8-.1-.8-.4,0-.6,1.6-.6,1.6,0s-.4.4-.8.4ZM23,24.7c0,0,.2,0,.4,0s.3,0,.4,0c0,0-.2,0-.4,0s-.3,0-.4,0Z"/>
    <path class="st0" d="M17.8,26.9h0c-.5-.4-1-.8-1.4-1.2h0c0-.2,0-.3,0-.4.1,0,.3-.1.5,0,.2.2.4.4.7.6,0-.3-.1-.5-.1-.8,0,0,0-.2.1-.2,0,0,.2,0,.3,0,0,0,.1.1.1.2,0,.5.1,1,.4,1.4h.2c0,.1-.2.2-.2.2,0,0,0,0,0,.1,0,0-.2.1-.3,0h0ZM17.6,25.1h0s0,0,0,0Z"/>
    <path class="st0" d="M17.3,28.4s0,0,0,0c0,0-.2,0-.2-.2,0,0,0-.2,0-.2.2-.2.4-.4.7-.5h0c.2,0,.3,0,.3,0,0,0,.1.1.1.2,0,0,0,.2-.1.2-.2.1-.4.2-.6.4,0,0-.2,0-.3,0ZM17.4,28.2h0s0,0,0,0ZM18,27.8s0,0,0,0h0c0-.1,0-.1,0-.1h0Z"/>
    <path class="st0" d="M20.2,30c-.1,0-.2,0-.2-.2-.2-.7-.4-1.5-.7-2.1h0c0,0,0-.2.1-.3.1,0,.3,0,.4,0,.3.7.6,1.5.7,2.2,0,.1,0,.3-.3.3,0,0,0,0,0,0Z"/>
    <path class="st0" d="M19.7,27c0,0-.2,0-.2-.1,0,0,0-.1,0-.2,0,0,.1-.1.2-.2.3-.1.7-.3,1.1-.3h0s.4,0,.4,0c0,0,.2,0,.2,0,0,0,0,0,0,.1h0c0,0-.1.1-.1.1,0,0-.1.2-.3.2-.4,0-.8.2-1.2.3,0,0-.1,0-.2,0Z"/>
  </g>
</svg>