<?xml version="1.0" encoding="UTF-8"?>
<svg id="Calque_2" xmlns="http://www.w3.org/2000/svg" version="1.1" viewBox="0 0 35 77.8">
  <!-- Generator: Adobe Illustrator 29.6.1, SVG Export Plug-In . SVG Version: 2.1.1 Build 9)  -->
  <defs>
    <style>
      .st0, .st1 {
        fill: #38318d;
      }

      .st1 {
        stroke: #38318d;
        stroke-miterlimit: 10;
      }
    </style>
  </defs>
  <g id="Calque_1-2">
    <g>
      <path class="st1" d="M34.5,77.3l-.4-38c0-5.1-2.4-9.8-6.5-13l.2,15.2v.4c0,3.2-1.2,6.3-3.1,8.5-1.9,2.2-4.5,3.5-7.1,3.5s-5.2-1.2-7.1-3.5c-1.9-2.3-3-5.3-3.1-8.5v-.4l.2-15.2c-4.1,3.1-6.5,7.8-6.5,13l-.4,37.9h0c0,0,.3,0,.3,0l.4-38c0-4.9,2.2-9.5,6.2-12.6l-.5,14.9v.5c0,3.3,1.2,6.4,3.2,8.7,2,2.3,4.6,3.6,7.4,3.6s5.4-1.3,7.4-3.6c2-2.3,3.1-5.4,3.2-8.7v-.5l-.5-14.8c3.9,3.1,6.2,7.6,6.2,12.6l.4,37.9h0c0,0,.3,0,.3,0h0Z"/>
      <path class="st1" d="M27.7,33.3C27.1,13.3,18.8,3,17.5,1.5c-1.3,1.6-9.6,12-10.2,31.9h0C8,11.6,17.2,1,17.3.9l.2-.2.2.2c.1,0,9.3,10.5,10,32.4h0Z"/>
    </g>
  </g>
  <path class="st0" d="M6.8,3.4h0c0-.1,0,0,0,0,.7,1.8,2.1,3.3,4,4h0s-.1,0-.1,0c-1.8.6-3.2,2-3.8,3.8h0c0,.1,0,0,0,0-.7-1.8-2.1-3.3-4-4h0s.1,0,.1,0c1.8-.6,3.2-2,3.8-3.8Z"/>
  <path class="st0" d="M31.4,16v-.3c.1,0,.3.5.3.5.4,1,1.2,1.8,2.2,2h.1s-.3.2-.3.2c-1,.4-1.8,1.2-2.2,2.2v.3c-.1,0-.2-.4-.2-.4-.4-1-1.2-1.8-2.2-2.1h-.2s.4-.2.4-.2c1-.4,1.8-1.2,2.1-2.2Z"/>
</svg>