<?xml version="1.0" encoding="UTF-8"?>
<svg id="Calque_2" data-name="Calque 2" xmlns="http://www.w3.org/2000/svg" viewBox="0 0 35.01 77.84">
  <defs>
    <style>
      .cls-1 {
        fill: #38318d;
        stroke: #38318d;
        stroke-miterlimit: 10;
      }
    </style>
  </defs>
  <g id="Calque_1-2" data-name="Calque 1">
    <g>
      <path class="cls-1" d="M34.5,77.34l-.43-38.01c0-5.11-2.36-9.83-6.48-12.96l.2,15.22c0,.15,0,.3,0,.44-.09,3.24-1.21,6.27-3.14,8.53-1.93,2.25-4.46,3.5-7.14,3.5s-5.22-1.24-7.14-3.5c-1.93-2.26-3.04-5.29-3.14-8.53,0-.15,0-.3,0-.44l.2-15.23c-4.13,3.13-6.49,7.85-6.49,12.97l-.42,37.94v.07h.29l.42-38.01c0-4.94,2.25-9.52,6.19-12.6l-.48,14.85c0,.15,0,.3,0,.45.1,3.31,1.23,6.4,3.21,8.71,1.98,2.32,4.6,3.6,7.36,3.6s5.38-1.28,7.36-3.6c1.97-2.31,3.11-5.4,3.21-8.71,0-.15,0-.3,0-.46l-.48-14.84c3.93,3.07,6.18,7.64,6.18,12.59l.43,37.94v.07h.29Z"/>
      <path class="cls-1" d="M27.68,33.33C27.06,13.28,18.83,3.03,17.5,1.48c-1.32,1.58-9.57,12.01-10.18,31.85h0C7.99,11.62,17.22,1.03,17.32.93l.18-.2.18.19c.1.1,9.32,10.46,10,32.41h0Z"/>
    </g>
  </g>
</svg>