<?xml version="1.0" encoding="UTF-8"?>
<svg id="Calque_2" data-name="Calque 2" xmlns="http://www.w3.org/2000/svg" viewBox="0 0 247.2 191.24">
  <defs>
    <style>
      .cls-1 {
        fill: #fff;
      }
    </style>
  </defs>
  <g id="Calque_1-2" data-name="Calque 1">
    <g>
      <path class="cls-1" d="M.02,7.29c4.33,25.6,8.21,47.05,21.06,46.87S41.42,26.79,42.13,7.29v67.39c-14.04,1.08-28.08-1.08-42.12,0"/>
      <path class="cls-1" d="M107.9,7.29c4.33,25.6,8.21,47.05,21.06,46.87,12.85-.17,20.34-27.37,21.06-46.87v67.39c-14.04,1.08-28.08-1.08-42.12,0"/>
      <path class="cls-1" d="M55.73,7.29c3.97,23.45,7.52,43.09,19.29,42.93,11.76-.16,18.63-25.07,19.29-42.93v61.72c-12.86.99-25.71-.99-38.57,0"/>
      <path class="cls-1" d="M161.74,5.87c4.15,24.53,7.87,45.07,20.17,44.9,12.3-.17,19.49-26.22,20.17-44.9v64.56c-13.45,1.04-26.9-1.04-40.34,0"/>
      <path class="cls-1" d="M213.27,0c3.49,20.63,6.62,37.91,16.97,37.77,10.35-.14,16.39-22.05,16.97-37.77v54.3c-11.31.87-22.62-.87-33.93,0"/>
    </g>
    <g>
      <path class="cls-1" d="M247.18,123.54c-4.33,25.6-8.21,47.05-21.06,46.87-12.85-.17-20.34-27.37-21.06-46.87v67.39c14.04,1.08,28.08-1.08,42.12,0"/>
      <path class="cls-1" d="M139.3,123.54c-4.33,25.6-8.21,47.05-21.06,46.87-12.85-.17-20.34-27.37-21.06-46.87v67.39c14.04,1.08,28.08-1.08,42.12,0"/>
      <path class="cls-1" d="M191.47,123.54c-3.97,23.45-7.52,43.09-19.29,42.93-11.76-.16-18.63-25.07-19.29-42.93v61.72c12.86.99,25.71-.99,38.57,0"/>
      <path class="cls-1" d="M85.46,122.11c-4.15,24.53-7.87,45.07-20.17,44.9-12.3-.17-19.49-26.22-20.17-44.9v64.56c13.45,1.04,26.9-1.04,40.34,0"/>
      <path class="cls-1" d="M33.93,116.25c-3.49,20.63-6.62,37.91-16.97,37.77-10.35-.14-16.39-22.05-16.97-37.77v54.3c11.31.87,22.62-.87,33.93,0"/>
    </g>
  </g>
</svg>