<?xml version="1.0" encoding="UTF-8"?>
<svg id="Calque_2" data-name="Calque 2" xmlns="http://www.w3.org/2000/svg" viewBox="0 0 31.19 26.76">
  <defs>
    <style>
      .cls-1 {
        fill: #37348a;
      }
    </style>
  </defs>
  <g id="Calque_2-2" data-name="Calque 2">
    <path class="cls-1" d="M30.84,5.01c-2.18-7.74-11.8-5.5-15.33-.03C12.03-.49,2.54-2.74.35,5.01c-1.27,4.49,1.06,7.99,4.09,11.05,1.8,1.82,3.61,3.62,5.42,5.43,1.69,1.7,3.82,3.84,5.73,5.27h0c1.92-1.43,4.04-3.57,5.73-5.27,1.81-1.81,3.62-3.61,5.42-5.43,3.03-3.06,5.35-6.56,4.09-11.05ZM15.6,8.33c.96-2.84,4.69-5.7,7.54-6.27,1.69-.33,3.44-.12,4.62,1.24,1.04,1.2,1.46,2.91,1.44,4.46-.05,3.81-3.41,6.43-5.87,8.9l-3.93,3.93c-1.24,1.24-2.44,2.63-3.81,3.75.17.14.34.27.51.4h-1.01c.17-.13.34-.26.5-.4-1.3-1.07-2.44-2.39-3.63-3.58-1.37-1.36-2.73-2.73-4.1-4.1-2.48-2.48-5.8-5.08-5.87-8.9-.03-1.55.4-3.26,1.44-4.46,1.17-1.36,2.93-1.57,4.62-1.24,2.86.56,6.6,3.46,7.54,6.27h0ZM15.49,8.2h.03"/>
    <path class="cls-1" d="M15.59,24.34c.17.14.34.27.51.4h-1.01c.17-.13.34-.26.5-.4Z"/>
  </g>
</svg>