<?xml version="1.0" encoding="UTF-8"?>
<svg id="Calque_2" data-name="Calque 2" xmlns="http://www.w3.org/2000/svg" viewBox="0 0 34.7 39.8">
  <defs>
    <style>
      .cls-1 {
        fill: #37348a;
      }
    </style>
  </defs>
  <g id="Calque_2-2" data-name="Calque 2">
    <path class="cls-1" d="M13.93,39.8l.53-1.55c.37-1.08-.23-1.76-.94-2.42-.18-.17-.32-.3-.42-.44-.35-.52-.67-.9-.95-1.24-.78-.93-1.34-1.59-1.11-3.49.13-1.04.39-2.06.79-3.04-1.27.61-2.42.69-3.42.25-1.02-.45-1.54-1.28-2.21-2.33-.35-.55-.75-1.17-1.29-1.86-1.17-1.49-2.57-2.71-4.17-3.63l-.75-.44.68-.55c.86-.7,1.76-1.36,2.67-1.96.93-.62,1.76-1.24,2.56-1.85,2.22-1.68,3.98-3.01,5.9-2.44.22.06.49.15.81.3-.16-.95-.18-2.18.12-3.78.01-.07,0-.18,0-.31-.03-.85.08-1.8,1.87-3.24,1.86-1.5,2.39-2.28,3.04-3.87l.79-1.93.36,2.05c.06.35,1.39.95,2.27,1.35,2.35,1.06,5.9,2.65,4.71,6.13-.33.96-.72,1.88-1.19,2.76.28-.1.56-.19.85-.26.81-.19,1.65-.26,2.47-.33,1.56-.12,2.91-.23,3.51-1.15l.85-1.29.25,1.52c.1.64.22,1.23.34,1.8.5,2.46.92,4.58-.96,6.53-.89.92-1.83,1.47-2.73,1.79,1.14.68,1.73,1.53,1.96,1.9.53.88.5,1.44.48,2.08-.02.55-.05,1.23.3,2.5.41,1.46,1.19,2.76,2.33,3.86l.47.46-.5.43c-.71.61-2.05.63-3.6.65-.69,0-1.41.02-2.1.08-.1,0-.34.1-.54.18-1.08.41-3.08,1.18-5.15-1.14-.39-.43-.71-.89-.99-1.36-.12.93-.37,1.75-.75,2.45-.2.36-.25.57-.32.87-.09.36-.19.81-.59,1.56-.48.91-3.81,2.93-4.83,3.53l-1.41.83ZM15.97,23.07l-2.06,3.15c-.62.96-1.42,2.53-1.67,4.58-.17,1.38.13,1.73.83,2.57.29.34.65.77,1.03,1.34.05.06.13.14.24.24.46.43,1.29,1.2,1.42,2.35,1.6-1,3.13-2.07,3.34-2.43.33-.62.41-.96.48-1.28.08-.33.16-.66.43-1.16.68-1.24.86-2.99.54-5.2l1.18-.21c.25,1.14.79,2.77,1.97,4.1,1.51,1.7,2.79,1.21,3.82.82.32-.12.59-.23.86-.25.74-.07,1.48-.08,2.2-.09.77-.01,1.61-.02,2.19-.13-.97-1.11-1.65-2.37-2.04-3.75-.41-1.45-.37-2.27-.34-2.88.02-.56.04-.84-.31-1.41-.26-.43-1.13-1.63-3.09-2.12-.99.02-1.74-.16-2.01-.24l-4.06-1.18h4.23c.74,0,1.39.09,1.97.22,1.12-.06,2.58-.46,3.9-1.82,1.45-1.49,1.13-3.07.65-5.46-.05-.24-.1-.49-.15-.74-.97.61-2.26.71-3.53.81-.77.06-1.56.12-2.28.3-.83.2-1.65.57-2.42,1.11l-2.73,1.89,1.9-2.73c.91-1.31,1.64-2.76,2.17-4.33.77-2.27-1.29-3.4-4.07-4.65-.9-.4-1.69-.76-2.23-1.18-.58,1.18-1.31,2.07-2.98,3.41-1.46,1.18-1.44,1.75-1.42,2.26,0,.18.01.37-.02.58-.58,3.09.13,4.51.63,5.26.1.13.19.26.29.41l.13.19c.66.93.7.99.94,1.7l.04.11-1.11.44c-.33-.71-.65-1.27-.96-1.73l-.11-.16c-.06-.08-.13-.18-.2-.29-.91-1.18-1.64-1.4-2.06-1.52-1.38-.41-2.85.7-4.88,2.23-.78.59-1.65,1.25-2.62,1.89-.65.43-1.29.88-1.91,1.37,1.42.93,2.69,2.1,3.77,3.47.58.74.99,1.39,1.36,1.96.6.95,1,1.57,1.69,1.88,1.05.46,2.43,0,4.13-1.35l2.93-2.35Z"/>
    <path class="cls-1" d="M20.06,20.08l-.69.29c-.36-.87-.58-1.79-.64-2.73-.07-1.09.06-2.18.39-3.22l.72.23c-.31.96-.43,1.95-.36,2.95.06.86.25,1.7.58,2.49Z"/>
    <path class="cls-1" d="M19.76,21.04l-.69-.29c.4-.96.96-1.83,1.65-2.57,2.35-2.52,5.59-2.87,6.88-2.9l.02.75c-1.19.03-4.19.35-6.35,2.66-.63.68-1.14,1.47-1.51,2.35Z"/>
    <path class="cls-1" d="M19.73,21.09l-.63-.4c.43-.68.96-1.26,1.57-1.74,1.85-1.45,3.96-1.54,5.06-1.48l-.05.75c-.99-.06-2.9.03-4.55,1.32-.55.43-1.02.95-1.4,1.55Z"/>
    <path class="cls-1" d="M19.77,14.87c-.14.07-.28.09-.43.04-.1-.03-.25-.11-.35-.3-.16-.3-.16-.8,0-1.34.21-.7.66-1.33,1.19-1.18.1.03.25.11.35.29.16.3.16.8,0,1.34-.15.5-.42.96-.75,1.13ZM19.89,13.06c-.06.11-.13.25-.19.44-.06.19-.08.34-.09.47.06-.11.13-.25.19-.44h0c.06-.19.08-.34.09-.47Z"/>
    <path class="cls-1" d="M28.33,16.22c-.49,0-1.03-.1-1.09-.54-.09-.65,1.01-.87,1.49-.94.48-.07,1.6-.15,1.69.5.03.2-.05.47-.54.69-.25.11-.59.2-.95.25-.15.02-.37.04-.6.04Z"/>
    <path class="cls-1" d="M26.84,18.66c-.08,0-.17,0-.26-.01-.19-.02-.84-.1-1.13-.44-.13-.15-.14-.3-.13-.4.04-.44.59-.68,1.39-.61.19.02.84.1,1.13.44.13.15.14.3.13.4-.03.39-.47.62-1.13.62Z"/>
    <path class="cls-1" d="M15.49,18.31c.48.6,1.04,1.14,1.65,1.61.17.13.35.26.54.38.13.08.29.06.43.01.07-.02.14-.05.2-.1.04-.03.1-.09.07-.15-.3-.72-.45-1.5-.44-2.28v.05c0-.05,0-.1,0-.16,0-.06-.01-.09-.07-.12-.07-.03-.17-.03-.24-.02-.09.01-.19.04-.27.09-.05.03-.14.08-.14.15-.04.85.1,1.7.43,2.48l.7-.24c-.64-.42-1.23-.92-1.76-1.49-.15-.16-.29-.33-.43-.5-.04-.05-.14-.06-.19-.06-.09,0-.2.02-.28.06-.09.04-.3.15-.2.28h0Z"/>
    <path class="cls-1" d="M17.57,21.51c-.47.2-.92.46-1.32.79-.08.06-.18.18-.15.3s.18.17.28.18c.18.03.37.01.54-.04s.34-.12.49-.24c.08-.06.16-.13.25-.18l-.13.09c.18-.12.37-.23.56-.33l-.16.08c.07-.03.14-.07.21-.1.13-.06.3-.15.39-.27.06-.08.09-.2,0-.28-.1-.09-.26-.11-.39-.11-.19,0-.39.04-.57.12h0Z"/>
    <path class="cls-1" d="M19.96,21.98c.43,1.11.72,2.27.87,3.45,0,.07.1.13.15.15.08.03.19.03.28,0,.16-.05.32-.16.29-.35-.14-1.18-.43-2.34-.87-3.45-.07-.17-.27-.2-.43-.16-.13.04-.36.18-.29.35h0Z"/>
    <path class="cls-1" d="M23.31,19.65c-.9.04-1.8.18-2.67.44-.25.08-.52.18-.73.35-.1.09-.28.28-.22.44.06.17.25.25.41.27.26.04.55.02.81-.06.16-.05.33-.1.5-.14.08-.02.17-.04.25-.06.09-.02.03,0-.2.04.03,0,.05-.01.08-.02.04,0,.08-.01.12-.02.17-.03.34-.05.51-.07.08,0,.16-.02.24-.02.03,0,.05,0,.08,0h-.19c.05.01.11,0,.16,0,.29-.01.58-.06.85-.17.19-.08.47-.22.59-.41.08-.13.14-.3,0-.42-.15-.14-.39-.18-.58-.17h0Z"/>
  </g>
</svg>