<svg width="21" height="20" viewBox="0 0 21 20" fill="none" xmlns="http://www.w3.org/2000/svg">
<path fill-rule="evenodd" clip-rule="evenodd" d="M0 0.714286C0 0.524845 0.0731646 0.343164 0.203398 0.20921C0.333632 0.075255 0.510266 0 0.694444 0H24.3056C24.4897 0 24.6664 0.075255 24.7966 0.20921C24.9268 0.343164 25 0.524845 25 0.714286C25 0.903726 24.9268 1.08541 24.7966 1.21936C24.6664 1.35332 24.4897 1.42857 24.3056 1.42857H0.694444C0.510266 1.42857 0.333632 1.35332 0.203398 1.21936C0.0731646 1.08541 0 0.903726 0 0.714286ZM0 10C0 9.81056 0.0731646 9.62888 0.203398 9.49492C0.333632 9.36097 0.510266 9.28571 0.694444 9.28571H24.3056C24.4897 9.28571 24.6664 9.36097 24.7966 9.49492C24.9268 9.62888 25 9.81056 25 10C25 10.1894 24.9268 10.3711 24.7966 10.5051C24.6664 10.639 24.4897 10.7143 24.3056 10.7143H0.694444C0.510266 10.7143 0.333632 10.639 0.203398 10.5051C0.0731646 10.3711 0 10.1894 0 10ZM0 19.2857C0 19.0963 0.0731646 18.9146 0.203398 18.7806C0.333632 18.6467 0.510266 18.5714 0.694444 18.5714H24.3056C24.4897 18.5714 24.6664 18.6467 24.7966 18.7806C24.9268 18.9146 25 19.0963 25 19.2857C25 19.4752 24.9268 19.6568 24.7966 19.7908C24.6664 19.9247 24.4897 20 24.3056 20H0.694444C0.510266 20 0.333632 19.9247 0.203398 19.7908C0.0731646 19.6568 0 19.4752 0 19.2857Z" fill="#38318D"/>
</svg>
