<svg width="25" height="25" viewBox="0 0 25 25" fill="none" xmlns="http://www.w3.org/2000/svg">
<path d="M19.7368 19.7368C20.4348 19.7368 21.1041 20.0141 21.5976 20.5076C22.0912 21.0011 22.3684 21.6705 22.3684 22.3684C22.3684 23.0664 22.0912 23.7357 21.5976 24.2292C21.1041 24.7227 20.4348 25 19.7368 25C19.0389 25 18.3696 24.7227 17.876 24.2292C17.3825 23.7357 17.1053 23.0664 17.1053 22.3684C17.1053 21.6705 17.3825 21.0011 17.876 20.5076C18.3696 20.0141 19.0389 19.7368 19.7368 19.7368ZM19.7368 21.0526C19.3879 21.0526 19.0532 21.1913 18.8064 21.438C18.5597 21.6848 18.4211 22.0195 18.4211 22.3684C18.4211 22.7174 18.5597 23.0521 18.8064 23.2988C19.0532 23.5456 19.3879 23.6842 19.7368 23.6842C20.0858 23.6842 20.4205 23.5456 20.6672 23.2988C20.914 23.0521 21.0526 22.7174 21.0526 22.3684C21.0526 22.0195 20.914 21.6848 20.6672 21.438C20.4205 21.1913 20.0858 21.0526 19.7368 21.0526ZM7.89474 19.7368C8.59268 19.7368 9.26203 20.0141 9.75554 20.5076C10.2491 21.0011 10.5263 21.6705 10.5263 22.3684C10.5263 23.0664 10.2491 23.7357 9.75554 24.2292C9.26203 24.7227 8.59268 25 7.89474 25C7.1968 25 6.52745 24.7227 6.03393 24.2292C5.54041 23.7357 5.26316 23.0664 5.26316 22.3684C5.26316 21.6705 5.54041 21.0011 6.03393 20.5076C6.52745 20.0141 7.1968 19.7368 7.89474 19.7368ZM7.89474 21.0526C7.54577 21.0526 7.21109 21.1913 6.96433 21.438C6.71758 21.6848 6.57895 22.0195 6.57895 22.3684C6.57895 22.7174 6.71758 23.0521 6.96433 23.2988C7.21109 23.5456 7.54577 23.6842 7.89474 23.6842C8.24371 23.6842 8.57838 23.5456 8.82514 23.2988C9.0719 23.0521 9.21053 22.7174 9.21053 22.3684C9.21053 22.0195 9.0719 21.6848 8.82514 21.438C8.57838 21.1913 8.24371 21.0526 7.89474 21.0526ZM22.3684 3.94737H4.30263L7.6579 11.8421H18.4211C18.8553 11.8421 19.2368 11.6316 19.4737 11.3158L23.4211 6.05263C23.5921 5.82895 23.6842 5.55263 23.6842 5.26316C23.6842 4.91419 23.5456 4.57951 23.2988 4.33275C23.0521 4.086 22.7174 3.94737 22.3684 3.94737ZM18.4211 13.1579H7.72368L6.71053 15.2105L6.57895 15.7895C6.57895 16.1384 6.71758 16.4731 6.96433 16.7199C7.21109 16.9666 7.54577 17.1053 7.89474 17.1053H22.3684V18.4211H7.89474C7.1968 18.4211 6.52745 18.1438 6.03393 17.6503C5.54041 17.1568 5.26316 16.4874 5.26316 15.7895C5.26277 15.343 5.37597 14.9038 5.59211 14.5132L6.53947 12.5789L1.76316 1.31579H0V0H2.63158L3.75 2.63158H22.3684C23.0664 2.63158 23.7357 2.90883 24.2292 3.40235C24.7227 3.89587 25 4.56522 25 5.26316C25 5.92105 24.7763 6.47368 24.4079 6.92105L20.5789 12.0395C20.1053 12.7105 19.3158 13.1579 18.4211 13.1579Z" fill="#38318D"/>
</svg>
