<?xml version="1.0" encoding="UTF-8"?>
<svg id="Calque_2" data-name="Calque 2" xmlns="http://www.w3.org/2000/svg" viewBox="0 0 35.01 77.27">
  <defs>
    <style>
      .cls-1 {
        stroke-width: .25px;
      }

      .cls-1, .cls-2 {
        fill: #38318d;
        stroke: #38318d;
        stroke-miterlimit: 10;
      }
    </style>
  </defs>
  <g id="Calque_1-2" data-name="Calque 1">
    <path class="cls-2" d="M34.07,38.77c0-5.12-2.36-9.83-6.48-12.96l-.81-25.11v-.14s-18.56-.05-18.56-.05l-.81,25.3c-4.13,3.13-6.49,7.85-6.49,12.97l-.42,37.94v.07h.29l.42-38.01c0-4.94,2.25-9.52,6.19-12.6l-.48,14.85c0,.15,0,.3,0,.45.1,3.31,1.23,6.4,3.21,8.71,1.98,2.32,4.6,3.6,7.36,3.6s5.38-1.28,7.36-3.6c1.97-2.31,3.11-5.4,3.21-8.71,0-.15,0-.3,0-.46l-.48-14.84c3.93,3.07,6.18,7.64,6.18,12.59l.43,37.94v.07h.29l-.43-38.01ZM27.79,41.02c0,.15,0,.3,0,.44-.09,3.24-1.21,6.27-3.14,8.53-1.93,2.25-4.46,3.5-7.14,3.5s-5.22-1.24-7.14-3.5c-1.93-2.26-3.04-5.29-3.14-8.53,0-.15,0-.3,0-.44L8.5.79l17.99.05,1.29,40.18Z"/>
    <g id="uuid-930b1444-ab3e-4f93-8fed-eb4fab8fec60" data-name="Calque 1-2">
      <path class="cls-1" d="M16.53,39.4l.23-.92c.18-.75-.24-1.16-.74-1.56-.12-.1-.21-.17-.28-.26-.25-.32-.47-.55-.67-.75-.53-.55-.92-.94-.88-2.15.03-.72.14-1.41.36-2.08-.79.49-1.53.62-2.2.38-.66-.23-1.04-.74-1.51-1.37-.25-.34-.54-.72-.92-1.13-.82-.9-1.78-1.61-2.84-2.12l-.44-.21.35-.34c.51-.5,1.04-.97,1.58-1.41.56-.45,1.05-.9,1.52-1.33,1.31-1.2,2.34-2.15,3.59-1.89.15.03.35.07.58.17-.17-.6-.25-1.41-.14-2.5,0-.05,0-.13-.01-.21-.07-.53-.04-1.14.99-2.15,1.1-1.07,1.4-1.61,1.72-2.68l.36-1.19.31,1.2c.06.25.88.54,1.53.77,1.62.58,3.84,1.37,3.29,3.64-.16.67-.38,1.32-.64,1.93.2-.1.39-.18.6-.25.5-.17,1.03-.26,1.54-.34.99-.17,1.84-.31,2.18-.95l.43-.82.22.89c.1.4.21.78.31,1.14.44,1.54.83,2.88-.25,4.22-.54.67-1.13,1.08-1.71,1.33.81.38,1.25.92,1.42,1.15.37.53.39.88.4,1.29.01.36.03.81.33,1.61.34.93.91,1.73,1.7,2.38l.28.24-.26.26c-.41.43-1.25.51-2.22.61-.44.04-.9.09-1.33.17-.07.01-.2.08-.34.15-.66.32-1.88.92-3.3-.45-.29-.28-.53-.58-.74-.88-.02.64-.13,1.2-.34,1.69-.11.25-.13.4-.16.59-.04.25-.08.52-.28,1.03-.25.6-2.24,2.08-2.85,2.52l-.78.57ZM16.73,28.77l-1.02,1.94c-.5.95-.78,1.99-.82,3.07-.03.92.18,1.13.68,1.65.2.2.45.46.72.81.03.04.1.08.17.14.32.25.89.72,1.02,1.46.98-.75,1.93-1.55,2.03-1.79.17-.42.21-.65.24-.87.03-.21.06-.43.21-.76.37-.85.39-2,.06-3.42l.68-.17c.22.73.65,1.76,1.48,2.56,1.06,1.03,1.85.64,2.49.33.19-.1.36-.18.52-.21.46-.08.93-.13,1.39-.18.54-.05,1.09-.11,1.45-.22-.7-.67-1.22-1.46-1.54-2.35-.33-.91-.35-1.43-.37-1.82-.02-.36-.02-.56-.28-.92-.19-.27-.81-1-2.09-1.21-.62.07-1.1,0-1.28-.04l-2.35-.48,2.39-.2c.46-.04.88-.02,1.25.03.71-.1,1.62-.44,2.39-1.4.85-1.06.56-2.07.12-3.6-.05-.17-.1-.34-.14-.51-.57.46-1.4.6-2.21.73-.48.08-.98.17-1.43.32-.52.18-1.01.46-1.48.85l-1.49,1.25.95-1.68c.51-.9.89-1.88,1.15-2.92.38-1.55-1-2.17-2.85-2.83-.6-.22-1.13-.4-1.49-.65-.3.8-.71,1.42-1.7,2.38-.88.86-.83,1.24-.79,1.57.01.11.03.23.02.36-.2,2.05.33,2.94.7,3.4.07.08.13.16.2.24l.1.12c.46.56.49.59.68,1.03l.03.07-.63.3c-.25-.44-.48-.78-.7-1.06l-.08-.1c-.05-.05-.1-.11-.15-.18-.64-.71-1.12-.81-1.39-.87-.9-.19-1.78.61-2.98,1.71-.46.42-.98.9-1.55,1.36-.4.32-.8.67-1.19,1.03.97.53,1.85,1.22,2.62,2.06.4.44.7.84.96,1.19.44.58.72.97,1.18,1.13.69.25,1.56-.13,2.56-1.1l1.58-1.54Z"/>
      <path class="cls-1" d="M18.66,27c0-.61.09-1.22.27-1.79.22-.67.55-1.29,1-1.84l.41.32c-.41.5-.71,1.06-.91,1.68-.17.53-.25,1.08-.25,1.64h-.53Z"/>
      <path class="cls-1" d="M19.17,27.08l-.5-.15c.2-.65.51-1.23.91-1.75,1.36-1.76,3.4-2.16,4.21-2.26l.06.51c-.75.08-2.62.45-3.85,2.05-.36.47-.64,1-.83,1.59Z"/>
      <path class="cls-1" d="M19.16,27.12l-.47-.23c.23-.46.54-.87.9-1.21,1.1-1.04,2.44-1.22,3.14-1.24v.52c-.61.01-1.81.18-2.78,1.09-.32.3-.59.67-.8,1.07Z"/>
      <path class="cls-1" d="M20.19,23.82c-.12,0-.2-.04-.25-.08-.28-.23-.11-.71.18-1.08.23-.29.5-.48.72-.5.15-.02.25.04.3.08.28.23.11.71-.18,1.08-.23.29-.5.48-.72.5-.02,0-.04,0-.05,0ZM20.65,22.84s-.07.08-.11.13c-.04.06-.08.11-.11.16.04-.04.07-.08.11-.13.04-.06.08-.11.11-.16Z"/>
      <path class="cls-1" d="M24.15,23.44c-.14,0-.28-.02-.38-.08-.08-.05-.11-.12-.12-.16-.08-.37.69-.56.84-.6h0c.15-.03.66-.14.9.01.08.05.11.12.12.16.08.37-.69.56-.84.6-.09.02-.31.07-.52.07ZM24.11,23.1c.11,0,.28,0,.48-.06.21-.05.36-.11.46-.16-.11,0-.28,0-.48.06h0c-.21.05-.36.11-.46.16Z"/>
      <path class="cls-1" d="M23.33,25.09c-.39,0-.78-.12-.78-.4,0-.55,1.57-.55,1.57,0,0,.28-.39.4-.78.4ZM22.97,24.69c.07.03.19.05.36.05s.29-.03.36-.05c-.07-.03-.19-.05-.36-.05s-.29.03-.36.05Z"/>
      <path class="cls-1" d="M17.81,26.89l-.06-.11c-.53-.3-1.01-.68-1.44-1.12h0l-.05-.06c-.09-.1-.08-.23.02-.32.1-.09.33-.14.45-.01.21.22.44.43.68.61-.07-.27-.11-.54-.12-.81,0-.08.04-.17.12-.22.1-.06.23-.07.33-.02.08.04.13.12.13.2.02.48.14.96.35,1.38l.21.11-.15.09c0,.05-.03.1-.07.14-.08.07-.2.1-.31.08l-.08.05Z"/>
      <path class="cls-1" d="M17.33,28.36s-.05,0-.07,0c-.09-.02-.15-.08-.17-.16-.02-.08,0-.16.07-.22.2-.2.43-.36.67-.5h0c.17-.09.28-.05.34-.02.07.04.11.11.11.19,0,.08-.05.17-.13.21-.21.11-.39.24-.56.41-.06.06-.16.1-.25.1ZM17.98,27.75s0,0,0,0l-.06-.11h0s.06.11.06.11Z"/>
      <path class="cls-1" d="M20.24,30.01c-.14,0-.22-.08-.24-.17-.15-.74-.39-1.46-.72-2.14h0c-.04-.09-.02-.23.14-.3.14-.07.34-.06.41.09.34.71.59,1.45.75,2.22.03.14-.08.26-.25.3-.03,0-.05,0-.08,0Z"/>
      <path class="cls-1" d="M19.73,26.99c-.08,0-.16-.03-.21-.1-.04-.05-.05-.12-.03-.19.03-.09.1-.15.17-.17.35-.14.71-.25,1.08-.32h-.01s.35-.06.35-.06c.07,0,.17,0,.24.07.04.04.06.08.06.13l.1.1h-.11c-.04.11-.14.18-.27.2-.41.06-.82.16-1.2.32-.05.02-.1.03-.15.03Z"/>
    </g>
  </g>
</svg>