<?xml version="1.0" encoding="UTF-8"?>
<svg id="Calque_2" xmlns="http://www.w3.org/2000/svg" version="1.1" viewBox="0 0 272.2 298.4">
  <!-- Generator: Adobe Illustrator 29.6.1, SVG Export Plug-In . SVG Version: 2.1.1 Build 9)  -->
  <defs>
    <style>
      .st0, .st1 {
        stroke-miterlimit: 10;
        stroke-width: 2px;
      }

      .st0, .st1, .st2, .st3 {
        stroke: #000;
      }

      .st0, .st2, .st3 {
        fill: none;
      }

      .st1 {
        fill: #ffa1c7;
      }

      .st2 {
        stroke-miterlimit: 10;
        stroke-width: 2px;
      }

      .st3 {
        stroke-miterlimit: 10;
        stroke-width: 2px;
      }
    </style>
  </defs>
  <path class="st1" d="M126.4,3.6c-4.2,13.6-8.1,20.9-22.8,35-15.9,15.3-10.5,21.2-11,26.6-3.2,32.4,8.1,43.2,12.2,48.2,7.5,8.9,6.9,8,9.5,14.2-15.3-26.5-27.1-28.5-32.5-29.6-18.3-3.8-34.3,18.2-60.5,39-8.4,6.7-15.1,12.8-19.6,17.2,10.8,5.1,24.1,13.3,37.1,27.3,13.8,14.8,17.8,26.1,28.8,29.9,7.6,2.6,19.4,2,36.8-14.7-4.7,8.8-10.1,22.5-10.8,39.9-.7,18.4,6.8,18.5,18.5,33.2,2.6,3.3,17.6,10.4,13.6,26.2,0,0,31.5-22.5,34.4-29.5,4.5-10.8,2.2-12.4,5.6-20.1,3.6-8.2,6.4-21.9,1.1-45,2.2,7.3,7.7,22.1,19.8,33.6,19.8,18.9,35,3.9,41.8,2.6,17-3.1,36.2-2.2,42.3-8.4-6.9-5.7-16.8-15.6-22.7-31.4-8-21.5-.9-24-8.7-35-4.9-6.9-18.9-19.5-45.1-17.3,3.1.6,29.5,5.4,48.9-18.6,15-18.4,5-36.2-1.6-62.8-7.9,14.6-31.1,12-49.3,18.1-9,3-15.8,7.9-20,11.4,5.1-8.9,10.9-21.4,14.9-37.3,9.4-38.2-56.8-38.1-60.7-52.7h0Z"/>
  <path class="st0" d="M148.8,152.7c0-5.2.5-12.7,3.3-21.3,3.3-10.2,8.4-17.5,12-21.8"/>
  <path class="st0" d="M148.8,152.7c1.9-6,5.2-13.4,10.9-20.7,17.3-22.2,43.7-25.9,50.7-26.7"/>
  <path class="st0" d="M148.8,152.7c2.2-4.2,5.5-9.3,10.7-14.2,14.1-13.2,31.5-14.3,37.3-14.5"/>
  <ellipse class="st2" cx="169.1" cy="102.9" rx="8.7" ry="3.4" transform="translate(-16.7 171.1) rotate(-51.5)"/>
  <ellipse class="st3" cx="220" cy="102.9" rx="9.8" ry="2.8" transform="translate(-17.2 50.9) rotate(-12.7)"/>
  <path class="st0" d="M204.2,126.9c-4.2,0-7.6-1.3-7.6-2.8s3.4-2.8,7.6-2.8,7.6,1.3,7.6,2.8-3.4,2.8-7.6,2.8Z"/>
  <path d="M117,134c5.5,5.8,11.9,10.7,19,14.6.8.5,3.1-.1,2.5-1.4-3-5.8-4.7-12.2-5-18.7,0-1.4-3-.9-2.9.3.3,6.9,2.1,13.5,5.2,19.6l2.5-1.4c-6.9-3.8-13.1-8.6-18.6-14.2-.8-.9-3.6.3-2.7,1.2h0Z"/>
  <path d="M136,160.4c-2.9,1.6-5.6,3.5-8,5.8-.4.4-.3,1,.3,1.1.7.1,1.5,0,2.1-.6,2.3-2.2,4.6-3.9,7.5-5.4.5-.2.8-.9.2-1.2-.6-.4-1.5,0-2.1.2h0Z"/>
  <path d="M155.2,160.4c4.2,8.6,7.3,17.6,9.2,27,.2,1,3.1.2,2.9-.8-1.9-9.4-5-18.4-9.2-27-.5-1-3.3,0-2.9.8h0Z"/>
  <path d="M176.1,144.1c-5.9.8-11.7,2.3-17.3,4.6-.5.2-1.1.8-.7,1.3s1.4.3,1.9.1c5-2.1,10.3-3.4,15.7-4.1.6,0,1.5-.4,1.6-1.1s-.8-.9-1.3-.8h0Z"/>
</svg>