<?xml version="1.0" encoding="UTF-8"?>
<svg id="Calque_2" data-name="Calque 2" xmlns="http://www.w3.org/2000/svg" viewBox="0 0 34.98 77.85">
  <defs>
    <style>
      .cls-1, .cls-2 {
        fill: #38318d;
      }

      .cls-2 {
        stroke: #38318d;
        stroke-miterlimit: 10;
      }
    </style>
  </defs>
  <g id="Calque_2-2" data-name="Calque 2">
    <g id="Calque_1-2" data-name="Calque 1-2">
      <g>
        <path class="cls-2" d="M34.48,77.35l-.43-38.01c0-5.11-2.36-9.83-6.48-12.96l.2,15.22v.44c-.09,3.24-1.21,6.27-3.14,8.53-1.93,2.25-4.46,3.5-7.14,3.5s-5.22-1.24-7.14-3.5c-1.93-2.26-3.04-5.29-3.14-8.53v-.44l.2-15.23c-4.13,3.13-6.49,7.85-6.49,12.97l-.42,37.94v.07h.29l.42-38.01c0-4.94,2.25-9.52,6.19-12.6l-.48,14.85v.45c.1,3.31,1.23,6.4,3.21,8.71,1.98,2.32,4.6,3.6,7.36,3.6s5.38-1.28,7.36-3.6c1.97-2.31,3.11-5.4,3.21-8.71v-.46l-.48-14.84c3.93,3.07,6.18,7.64,6.18,12.59l.43,37.94v.07h.29,0Z"/>
        <path class="cls-2" d="M27.66,33.34C27.04,13.29,18.81,3.04,17.48,1.49c-1.32,1.58-9.57,12.01-10.18,31.85h0C7.97,11.63,17.2,1.04,17.3.94l.18-.2.18.19c.1.1,9.32,10.46,10,32.41h0Z"/>
      </g>
    </g>
    <path class="cls-1" d="M6.8,3.37l.05-.13.04.09c.7,1.83,2.14,3.27,3.97,3.96l.08.03-.12.04c-1.77.64-3.17,2.05-3.79,3.82l-.05.13-.04-.09c-.7-1.83-2.14-3.27-3.97-3.96l-.08-.03.12-.04c1.77-.64,3.17-2.05,3.79-3.82Z"/>
    <path class="cls-1" d="M31.42,15.98l.11-.28.16.46c.36,1.01,1.2,1.78,2.24,2.04l.13.03-.35.14c-1,.41-1.78,1.21-2.16,2.21l-.11.28-.14-.38c-.36-1.02-1.2-1.81-2.25-2.11l-.15-.04.37-.16c.98-.41,1.76-1.21,2.14-2.2Z"/>
  </g>
</svg>