<?xml version="1.0" encoding="UTF-8"?>
<svg id="Calque_2" data-name="Calque 2" xmlns="http://www.w3.org/2000/svg" viewBox="0 0 141.27 92.69">
  <defs>
    <style>
      .cls-1 {
        fill: #1d1d1b;
      }
    </style>
  </defs>
  <g id="Calque_1-2" data-name="Calque 1">
    <path class="cls-1" d="M35.86,45.51c-.28,0-.55,0-.83.02v8.79h5.67c.76-1.6,1.14-3.03,1.14-4.28,0-3.02-2-4.53-5.98-4.53ZM42.56,34.78c-3.01-.22-5.52-.83-7.53-1.82v11.61c.56-.05,1.12-.07,1.69-.07,2.45,0,4.28.52,5.48,1.55.56.48.99,1.04,1.28,1.67v-8.1h2.55c-1.71-1.15-2.87-2.76-3.47-4.84ZM35.86,45.51c-.28,0-.55,0-.83.02v8.79h5.67c.76-1.6,1.14-3.03,1.14-4.28,0-3.02-2-4.53-5.98-4.53ZM43.11,54.32h.37v-1.01c-.1.33-.23.67-.37,1.01ZM35.86,45.51c-.28,0-.55,0-.83.02v8.79h5.67c.76-1.6,1.14-3.03,1.14-4.28,0-3.02-2-4.53-5.98-4.53ZM35.03,13.82v17.85c1.87,1.09,4.29,1.79,7.24,2.1-.1-.86-.15-1.53-.15-2.01,0-1.96.45-3.98,1.36-6.05v-4.54h2.62c1-1.4,2.18-2.73,3.51-3.99,1.32-1.25,2.82-2.37,4.51-3.36h-19.09ZM58.65,32.91c-4.25,1.29-8.75,1.94-13.5,1.94h-.43c.56,2.17,1.82,3.77,3.78,4.77h5.78c4.57,0,8.12-1.16,10.65-3.47,2.18-2,3.42-4.6,3.72-7.82-2.66,1.83-5.99,3.35-10,4.58ZM64.93,17.27c-1.89-1.72-4.35-2.79-7.37-3.22-.27.16-.55.33-.82.5-3.01,1.9-5.51,4.11-7.49,6.62h4.53c2.1,0,3.7.48,4.8,1.45,1.1.97,1.65,2.33,1.65,4.1s-.55,3.09-1.65,4.08c-1.1.98-2.7,1.47-4.8,1.47h-9.27c-.01.14-.01.28-.01.42l.07,1.23h1.01c4.32,0,8.48-.61,12.49-1.84,4.01-1.22,7.33-2.75,9.97-4.57.23-.16.46-.33.69-.49v-.3c0-4-1.27-7.15-3.8-9.45Z"/>
    <g>
      <path class="cls-1" d="M28.19,92.69l-.29-1.18c-.51-2.1-1.88-3.9-3.77-4.96h0,0c1.89-1.06,3.26-2.85,3.77-4.96l.29-1.18.29,1.18c.51,2.1,1.88,3.9,3.77,4.96h0,0c-1.89,1.06-3.26,2.85-3.77,4.96l-.29,1.18Z"/>
      <g>
        <path class="cls-1" d="M46.1,21.17c-.75,1.01-1.4,2.06-1.96,3.14-.25.47-.47.93-.66,1.4v6.56h1.03c.09-2.85,1.18-5.88,3.27-9.08.45-.7.94-1.37,1.47-2.02h-3.15ZM56.24,0c-7.92,1.35-14.44,4.42-19.55,9.22s-7.67,9.63-7.67,14.47c0,3.03,1.14,5.55,3.42,7.56.75.66,1.61,1.23,2.59,1.71v-1.29c-.68-.38-1.29-.83-1.83-1.32-2.02-1.84-3.03-4.16-3.03-6.95,0-4.7,2.51-9.37,7.53-14,5.01-4.63,11.26-7.47,18.75-8.53l-.21-.87ZM75.79,11.27c-1.47-1.08-3.89-1.62-7.28-1.62s-6.8.71-10.26,2.13c-1.48.61-2.86,1.28-4.13,2.04h.16c1.16,0,2.25.07,3.28.23,3.54-2.07,7.2-3.1,10.99-3.1,2.69,0,4.71.47,6.08,1.4,1.37.94,2.05,2.22,2.05,3.85s-.78,3.47-2.34,5.51c-1.42,1.86-3.29,3.63-5.61,5.31-.01.45-.03.89-.08,1.31.16-.1.32-.21.47-.32,2.74-1.96,4.9-4.04,6.49-6.23,1.58-2.18,2.37-4.21,2.37-6.08s-.73-3.35-2.19-4.43ZM46.1,21.17c-.75,1.01-1.4,2.06-1.96,3.14-.25.47-.47.93-.66,1.4v6.56h1.03c.09-2.85,1.18-5.88,3.27-9.08.45-.7.94-1.37,1.47-2.02h-3.15ZM79.49,29.89c-4.51,3.74-8.9,6.52-13.17,8.35-1.98.84-3.83,1.49-5.55,1.94l.19.69c1.42-.38,2.89-.9,4.42-1.55,3.84-1.64,6.87-3.21,9.07-4.72,2.21-1.51,4.04-2.89,5.47-4.14l-.43-.57ZM48.5,39.62h-2.47c2.12,1.43,5.09,2.14,8.91,2.14,1.64,0,3.39-.22,5.23-.68l.22-.8c-1.85.46-3.55.69-5.09.69-2.81,0-5.07-.45-6.8-1.35ZM49.25,21.17h-3.15c-.75,1.01-1.4,2.06-1.96,3.14-.25.47-.47.93-.66,1.4v6.56h1.03c.09-2.85,1.18-5.88,3.27-9.08.45-.7.94-1.37,1.47-2.02ZM46.1,21.17c-.75,1.01-1.4,2.06-1.96,3.14-.25.47-.47.93-.66,1.4v6.56h1.03c.09-2.85,1.18-5.88,3.27-9.08.45-.7.94-1.37,1.47-2.02h-3.15ZM58.92,56.57c-.14-.26-.29-.51-.44-.75-.69.67-1.29,1.24-1.81,1.71-2.26,2.07-3.58,3.29-3.96,3.67-2.45-2.39-5.86-4.24-10.22-5.54.24-.45.44-.9.62-1.34h-2.41c-.11.25-.24.5-.37.76-2.98-.62-6.26-.93-9.83-.93s-7.34.36-11.27,1.08c1.77-2.78,4.14-5.1,7.09-6.95,2.71-1.7,5.61-2.61,8.71-2.75v-.96c-3.33.25-6.43,1.27-9.29,3.06-3.33,2.09-5.94,4.69-7.81,7.81-5.61,1.2-10.01,2.99-13.17,5.37-3.17,2.37-4.76,4.71-4.76,7.02,0,1.68.92,3.06,2.74,4.14s4.44,1.62,7.85,1.62,6.86-.51,10.37-1.51c2.01.96,4.87,1.44,8.56,1.44s7.4-.92,11.09-2.74c3.7-1.82,7.49-4.42,11.38-7.78,1.68,2.21,2.52,4.52,2.52,6.92,0,3.6-1.78,6.87-5.33,9.82-3.55,2.96-8.66,4.96-15.34,6.02v.79c7.64-1.15,13.41-3.25,17.32-6.3,3.91-3.05,5.87-6.42,5.87-10.12,0-2.97-1.23-5.76-3.67-8.35,1.73-1.56,3.58-3.3,5.56-5.21ZM10.7,72.8c-2.96,0-5.21-.45-6.77-1.34-1.56-.88-2.34-2.05-2.34-3.49,0-2.06,1.44-4.21,4.32-6.44,2.88-2.23,6.72-3.95,11.52-5.15-1.3,2.4-1.95,4.78-1.95,7.13,0,3.45,1.4,6.09,4.18,7.92-3.02.91-6.01,1.37-8.96,1.37ZM16.56,63.29c0-2.4.7-4.8,2.09-7.2,3.84-.81,7.55-1.22,11.13-1.22s6.92.36,10.04,1.08c-1.73,2.93-4.27,5.78-7.63,8.57-3.36,2.78-7.06,4.92-11.09,6.4-3.02-1.63-4.54-4.17-4.54-7.63ZM29.31,72.58c-2.64,0-4.85-.34-6.63-1.01,4.37-1.48,8.26-3.6,11.67-6.33,3.41-2.74,5.95-5.62,7.63-8.64,3.98,1.25,7.13,3.16,9.43,5.76-7.77,6.81-15.14,10.22-22.1,10.22ZM138.96,19.23c-1.53-1.54-4.03-2.31-7.48-2.31s-7.49.89-12.1,2.67c-1.97.77-4.07,1.83-6.3,3.2-2.23,1.37-4.25,2.68-6.05,3.93-1.8,1.25-3.81,2.83-6.04,4.75-2.24,1.92-4.13,3.6-5.69,5.04s-3.44,3.27-5.62,5.51c-2.18,2.23-3.92,4.03-5.22,5.4-1.29,1.36-2.99,3.18-5.08,5.43-2.08,2.26-3.63,3.91-4.64,4.97l-.94.72c-.14,0-.21-.02-.21-.07l.58-1.37c1.24-2.64,4.32-8.09,9.21-16.34,2.02-3.46,4.43-7.2,7.24-11.24,2.8-4.03,5.18-7.21,7.13-9.54,1.94-2.32,4.01-3.82,6.22-4.5.29-.09.44-.27.44-.54s-.27-.39-.8-.39c-4.36.96-9.62,4.44-15.77,10.44l-5.61,6.05c-3.7,4.08-8.32,9-13.86,14.76-.9.94-1.77,1.83-2.58,2.67.23.2.47.39.72.57,6.38-6.47,13.76-14.3,22.13-23.48l1.8-1.72c3.6-3.36,5.8-5.04,6.62-5.04-5.57,5.04-11.64,12.91-18.22,23.61-1.87,3.03-4.65,8.43-8.35,16.2l-1.22,2.52c-2.35,5.04-3.87,7.99-4.54,8.86l-.86,1.51c0,.29.09.43.29.43s.4-.07.64-.21l4.04-5.26c.67-.77,2.35-2.7,5.04-5.8,2.68-3.09,4.87-5.6,6.55-7.52,1.68-1.92,4.1-4.54,7.27-7.85s5.97-6.07,8.39-8.28c2.42-2.2,5.3-4.65,8.64-7.34,3.33-2.69,6.39-4.82,9.18-6.41,2.78-1.58,5.75-2.93,8.89-4.03s6.06-1.66,8.75-1.66,4.65.59,5.9,1.77c1.25,1.17,1.88,2.88,1.88,5.11s-1.45,5.02-4.33,8.35c-2.88,3.34-6.21,6.17-10,8.5s-6.96,3.49-9.51,3.49-3.81-1.39-3.81-4.18c0-2.01.96-4.05,2.88-6.12,1.92-2.06,4.53-3.6,7.85-4.6l-.22-.73c-3.51.87-6.31,2.47-8.43,4.79-2.11,2.33-3.16,4.62-3.16,6.88,0,3.26,1.73,4.89,5.18,4.89,2.93,0,6.4-1.05,10.4-3.16,4.01-2.12,7.53-4.81,10.55-8.1,3.03-3.29,4.54-6.27,4.54-8.93s-.77-4.77-2.31-6.3ZM43.48,47.72v5.59c.35-1.07.52-2.11.52-3.12,0-.92-.17-1.75-.52-2.47Z"/>
        <path class="cls-1" d="M129.02,35.3l-.29-1.18c-.51-2.1-1.88-3.9-3.77-4.96h0,0c1.89-1.06,3.26-2.85,3.77-4.96l.29-1.18.29,1.18c.51,2.1,1.88,3.9,3.77,4.96h0,0c-1.89,1.06-3.26,2.85-3.77,4.96l-.29,1.18Z"/>
      </g>
    </g>
    <path class="cls-1" d="M60.76,40.18c-.13.04-.24.07-.37.1l.2-.72.17.62Z"/>
    <path class="cls-1" d="M65.79,48.47c-3.05,3.14-5.49,5.59-7.31,7.35-1.44-2.32-3.51-4.22-6.01-5.45,1.89-.93,3.53-2.24,4.84-3.82s2.29-3.44,2.86-5.46h0c.26-.07.52-.14.79-.22l.06.22c.81,2.91,2.49,5.48,4.77,7.38Z"/>
    <path class="cls-1" d="M68.71,50.37c-1.89.93-3.53,2.24-4.84,3.82-1.31,1.58-2.29,3.44-2.85,5.46l-.43,1.52-.42-1.52c-.3-1.08-.73-2.11-1.25-3.08,2.35-2.26,4.88-4.77,7.59-7.53.69.5,1.42.95,2.2,1.33Z"/>
  </g>
</svg>