<?xml version="1.0" encoding="UTF-8"?>
<svg id="Calque_2" data-name="Calque 2" xmlns="http://www.w3.org/2000/svg" viewBox="0 0 354.85 92.68">
  <defs>
    <style>
      .cls-1 {
        fill: #1d1d1b;
      }
    </style>
  </defs>
  <g id="Calque_1-2" data-name="Calque 1">
    <g>
      <g>
        <path class="cls-1" d="M18.96,61.09V20.59h19.25c4.57,0,8.12,1.15,10.65,3.45,2.53,2.3,3.8,5.45,3.8,9.45s-1.27,7.11-3.8,9.43c-2.53,2.32-6.08,3.47-10.65,3.47h-10.8v14.7h-8.45ZM27.41,39.04h10.3c2.1,0,3.7-.49,4.8-1.48,1.1-.98,1.65-2.34,1.65-4.08s-.55-3.13-1.65-4.1c-1.1-.97-2.7-1.45-4.8-1.45h-10.3v11.1Z"/>
        <path class="cls-1" d="M70.11,61.69c-3.23,0-6.05-.64-8.45-1.93-2.4-1.28-4.25-3.1-5.55-5.45-1.3-2.35-1.95-5.12-1.95-8.33s.63-5.96,1.9-8.27c1.27-2.32,3.08-4.1,5.43-5.35s5.12-1.88,8.32-1.88,5.83.6,8.08,1.8c2.25,1.2,3.98,2.92,5.17,5.15,1.2,2.23,1.8,4.9,1.8,8v2.8h-22.75c.33,2.23,1.18,3.93,2.55,5.1,1.37,1.17,3.17,1.75,5.4,1.75,1.77,0,3.17-.3,4.2-.9,1.03-.6,1.77-1.52,2.2-2.75h8.3c-.67,3.2-2.28,5.71-4.85,7.52-2.57,1.82-5.83,2.73-9.8,2.73ZM62.31,42.74h14.6c-.27-1.9-1-3.32-2.2-4.27-1.2-.95-2.82-1.42-4.85-1.42s-3.69.48-4.98,1.45c-1.28.97-2.14,2.38-2.58,4.25Z"/>
        <path class="cls-1" d="M99.51,61.64c-3.53,0-6.3-.86-8.3-2.57-2-1.72-3-3.98-3-6.77,0-2.97,1.03-5.25,3.1-6.85,2.07-1.6,5.03-2.4,8.9-2.4h8.6v-1.15c0-3.23-1.93-4.85-5.8-4.85-3.37,0-5.4,1.17-6.1,3.5h-8.25c.67-3.3,2.22-5.8,4.65-7.5,2.43-1.7,5.67-2.55,9.7-2.55,4.47,0,7.88,1,10.23,3s3.52,4.92,3.52,8.75v10.65h3.9v8.2h-8.4v-4.9h-2.1c-1.03,1.73-2.42,3.07-4.15,4.02-1.73.95-3.9,1.42-6.5,1.42ZM100.76,55.34c1.57,0,2.95-.28,4.15-.85,1.2-.57,2.15-1.32,2.85-2.27s1.05-2.02,1.05-3.23v-.45h-8.2c-3,0-4.5,1.12-4.5,3.35,0,1.1.42,1.95,1.25,2.55.83.6,1.97.9,3.4.9Z"/>
        <path class="cls-1" d="M126.91,61.09v-21.8h-4.1v-8.2h8.4v5.9h2.1c.8-2.1,2.07-3.67,3.8-4.7,1.73-1.03,3.68-1.55,5.85-1.55h2.55v7.2h-2.9c-2.6,0-4.51.73-5.73,2.2-1.22,1.47-1.83,3.4-1.83,5.8v15.15h-8.15Z"/>
        <path class="cls-1" d="M150.16,61.09V19.09h8.3v42h-8.3Z"/>
        <path class="cls-1" d="M166.2,73.09v-6.65h6.6l2.35-5.6-12.95-29.75h8.8l8.4,20.2h.2l8.2-20.2h8.5l-12.85,30-2.45,5.8c-.83,1.97-1.8,3.49-2.9,4.58-1.1,1.08-2.78,1.62-5.05,1.62h-6.85Z"/>
      </g>
      <path class="cls-1" d="M8.12,53.55l-.42-1.52C6.57,47.97,3.77,44.6,0,42.74h0s0,0,0,0c3.77-1.86,6.57-5.23,7.69-9.28l.42-1.52.42,1.52c1.13,4.05,3.92,7.43,7.69,9.28h0s0,0,0,0c-3.77,1.86-6.57,5.23-7.69,9.28l-.42,1.52Z"/>
      <path class="cls-1" d="M204.42,53.55l-.42-1.52c-1.13-4.05-3.92-7.43-7.69-9.28h0s0,0,0,0c3.77-1.86,6.57-5.23,7.69-9.28l.42-1.52.42,1.52c1.13,4.05,3.92,7.43,7.69,9.28h0s0,0,0,0c-3.77,1.86-6.57,5.23-7.69,9.28l-.42,1.52Z"/>
    </g>
    <g>
      <path class="cls-1" d="M332.89,24.44c0-2.23-.62-3.94-1.87-5.11-1.25-1.17-3.22-1.76-5.9-1.76s-5.6.55-8.75,1.66c-3.14,1.1-6.11,2.45-8.89,4.03-2.78,1.58-5.84,3.72-9.18,6.41-3.34,2.69-6.22,5.14-8.64,7.34s-5.22,4.97-8.39,8.28c-3.17,3.31-5.59,5.93-7.27,7.85-1.68,1.92-3.86,4.43-6.55,7.52-2.69,3.1-4.37,5.03-5.04,5.8l-4.03,5.26c-.24.14-.46.22-.65.22s-.29-.14-.29-.43l.86-1.51c.67-.86,2.18-3.82,4.54-8.86l1.22-2.52c3.7-7.78,6.48-13.18,8.35-16.2,6.58-10.7,12.65-18.58,18.22-23.62-.82,0-3.02,1.68-6.62,5.04l-1.8,1.73c-14.93,16.37-26.69,28.44-35.28,36.22,2.45,2.59,3.67,5.38,3.67,8.35,0,3.7-1.96,7.07-5.87,10.12-3.91,3.05-9.68,5.15-17.32,6.3v-.79c6.67-1.06,11.78-3.06,15.34-6.01,3.55-2.95,5.33-6.23,5.33-9.83,0-2.4-.84-4.7-2.52-6.91-3.89,3.36-7.68,5.95-11.38,7.78-3.7,1.82-7.39,2.74-11.09,2.74s-6.55-.48-8.57-1.44c-3.5,1.01-6.96,1.51-10.37,1.51s-6.02-.54-7.85-1.62c-1.82-1.08-2.74-2.46-2.74-4.14,0-2.3,1.58-4.64,4.75-7.02s7.56-4.16,13.18-5.36c1.87-3.12,4.48-5.72,7.81-7.81,3.34-2.09,7-3.13,10.98-3.13,2.45,0,4.27.52,5.47,1.55,1.2,1.03,1.8,2.41,1.8,4.14s-.5,3.55-1.51,5.47c4.37,1.3,7.78,3.14,10.22,5.54.38-.38,1.7-1.61,3.96-3.67,2.26-2.06,6.16-5.98,11.7-11.74,5.54-5.76,10.16-10.68,13.86-14.76l5.62-6.05c6.14-6,11.4-9.48,15.77-10.44.53,0,.79.13.79.4s-.14.44-.43.54c-2.21.67-4.28,2.17-6.23,4.5-1.94,2.33-4.32,5.51-7.13,9.54-2.81,4.03-5.22,7.78-7.24,11.23-4.9,8.26-7.97,13.71-9.22,16.34l-.58,1.37s.07.07.22.07l.94-.72c1.01-1.06,2.56-2.71,4.64-4.97,2.09-2.26,3.78-4.07,5.08-5.44s3.04-3.17,5.22-5.4c2.18-2.23,4.06-4.07,5.62-5.51,1.56-1.44,3.46-3.12,5.69-5.04,2.23-1.92,4.25-3.5,6.05-4.75,1.8-1.25,3.82-2.56,6.05-3.92s4.33-2.44,6.3-3.2c4.61-1.77,8.64-2.66,12.1-2.66s5.95.77,7.49,2.3,2.3,3.64,2.3,6.3-1.51,5.64-4.54,8.93c-3.02,3.29-6.54,5.99-10.55,8.1s-7.48,3.17-10.4,3.17c-3.46,0-5.18-1.63-5.18-4.9,0-2.26,1.06-4.55,3.17-6.88,2.11-2.33,4.92-3.92,8.42-4.79l.22.72c-3.31,1.01-5.93,2.54-7.85,4.61-1.92,2.06-2.88,4.1-2.88,6.12,0,2.78,1.27,4.18,3.82,4.18s5.71-1.16,9.5-3.49c3.79-2.33,7.13-5.16,10.01-8.5,2.88-3.33,4.32-6.12,4.32-8.35ZM209.05,63.5c0-2.35.65-4.73,1.94-7.13-4.8,1.2-8.64,2.92-11.52,5.15s-4.32,4.38-4.32,6.44c0,1.44.78,2.6,2.34,3.49,1.56.89,3.82,1.33,6.77,1.33s5.94-.46,8.96-1.37c-2.78-1.82-4.18-4.46-4.18-7.92ZM233.38,55.94c-3.12-.72-6.47-1.08-10.04-1.08s-7.28.41-11.12,1.22c-1.39,2.4-2.09,4.8-2.09,7.2,0,3.46,1.51,6,4.54,7.63,4.03-1.49,7.73-3.62,11.09-6.41,3.36-2.78,5.9-5.64,7.63-8.57ZM212.79,55.22c3.94-.72,7.69-1.08,11.27-1.08s6.85.31,9.83.94c1.01-1.92,1.51-3.6,1.51-5.04,0-3.02-1.99-4.54-5.98-4.54-3.41,0-6.59.92-9.54,2.77-2.95,1.85-5.32,4.17-7.09,6.95ZM216.25,71.57c1.78.67,3.98,1.01,6.62,1.01,6.96,0,14.33-3.41,22.1-10.22-2.3-2.59-5.45-4.51-9.43-5.76-1.68,3.02-4.23,5.9-7.63,8.64-3.41,2.74-7.3,4.85-11.66,6.34ZM249.8,0l.22.86c-7.49,1.06-13.74,3.9-18.76,8.53-5.02,4.63-7.52,9.3-7.52,14,0,2.78,1.01,5.1,3.02,6.95s5.04,2.99,9.07,3.42c-.1-.86-.14-1.54-.14-2.02,0-2.4.67-4.88,2.02-7.45,1.34-2.57,3.17-4.94,5.47-7.13,2.3-2.18,5.18-3.98,8.64-5.4,3.46-1.42,6.88-2.12,10.26-2.12s5.81.54,7.27,1.62c1.46,1.08,2.2,2.56,2.2,4.43s-.79,3.9-2.38,6.08c-1.58,2.18-3.74,4.26-6.48,6.23-2.74,1.97-6.23,3.6-10.48,4.9s-8.75,1.94-13.5,1.94h-.43c1.06,4.08,4.58,6.12,10.58,6.12,3.07,0,6.74-.91,11.02-2.74,4.27-1.82,8.66-4.61,13.18-8.35l.43.58c-1.44,1.25-3.26,2.63-5.47,4.14-2.21,1.51-5.23,3.08-9.07,4.72-3.84,1.63-7.32,2.45-10.44,2.45-6.91,0-11.04-2.33-12.38-6.98-4.46-.33-7.84-1.51-10.12-3.53-2.28-2.02-3.42-4.54-3.42-7.56,0-4.85,2.56-9.67,7.67-14.47,5.11-4.8,11.63-7.87,19.55-9.22ZM238.06,32.69l.07,1.22h1.01c4.32,0,8.48-.61,12.49-1.84,4.01-1.22,7.33-2.75,9.97-4.57,2.64-1.82,4.74-3.75,6.3-5.8,1.56-2.04,2.34-3.88,2.34-5.51s-.68-2.92-2.05-3.85c-1.37-.94-3.4-1.4-6.08-1.4-4.08,0-8.02,1.2-11.81,3.6-3.79,2.4-6.78,5.28-8.96,8.64-2.19,3.36-3.28,6.53-3.28,9.5Z"/>
      <path class="cls-1" d="M292.78,59.69c.96-.77,1.49-1.15,1.58-1.15,1.3.14,1.97.25,2.02.32.05.07.07.16.07.25s-.19.4-.58.9c-.38.5-1.51,1.69-3.38,3.56-4.66,4.56-6.98,7.32-6.98,8.28,0,.38.17.58.5.58,2.3,0,6.62-2.18,12.96-6.55l.14,1.08c-6.38,4.18-10.9,6.26-13.54,6.26-1.3,0-1.94-.61-1.94-1.84s.74-2.82,2.23-4.79c-5.66,4.18-10.08,6.29-13.25,6.34-1.15,0-1.73-.7-1.73-2.09,0-2.5,1.6-5.16,4.79-7.99,3.19-2.83,7.4-4.25,12.64-4.25,1.73,0,3.22.36,4.46,1.08ZM273.49,71.78c1.82,0,4.26-.92,7.31-2.77,3.05-1.85,5.59-3.64,7.63-5.36,2.04-1.73,3.06-2.74,3.06-3.02s-.35-.53-1.04-.72c-.7-.19-1.64-.29-2.84-.29s-2.78.47-4.75,1.4c-1.97.94-3.67,2.05-5.11,3.35-1.44,1.3-2.64,2.57-3.6,3.82-.96,1.25-1.44,2.16-1.44,2.74s.26.86.79.86Z"/>
      <path class="cls-1" d="M307.54,60.41c-6.48,5.86-9.72,9.53-9.72,11.02,0,.48.32.72.97.72s1.62-.29,2.92-.86,2.45-1.16,3.46-1.76c1.01-.6,2.22-1.34,3.64-2.23,1.42-.89,2.17-1.36,2.27-1.4l.14,1.08c-2.21,1.44-4.73,2.88-7.56,4.32-2.83,1.44-4.98,2.16-6.44,2.16s-2.2-.6-2.2-1.8c0-1.01.86-2.53,2.59-4.57,1.73-2.04,3.46-3.83,5.18-5.36l2.59-2.3c.24-.19.7-.26,1.37-.22.67.05,1.01.29,1.01.72,0,.19-.07.36-.22.5ZM312.51,54.58c-.77.62-1.48.94-2.12.94s-.97-.26-.97-.79.38-1.14,1.15-1.84c.77-.7,1.48-1.04,2.12-1.04s.97.26.97.79c0,.67-.38,1.32-1.15,1.94Z"/>
      <path class="cls-1" d="M313.02,65.66c-1.92,2.54-2.88,4.26-2.88,5.15s.41,1.33,1.22,1.33c2.26,0,6.38-2.09,12.38-6.26l.14,1.08c-6.38,4.18-10.9,6.26-13.54,6.26-1.3,0-1.94-.6-1.94-1.8,0-2.64,3.08-7.4,9.25-14.29s12.98-13.27,20.45-19.15c7.46-5.88,12.76-8.82,15.88-8.82.58,0,.86.22.86.65,0,1.15-1.16,2.96-3.49,5.44-2.33,2.47-5.46,5.29-9.4,8.46-3.94,3.17-7.61,6.05-11.02,8.64-3.41,2.59-7.1,5.34-11.09,8.24-3.99,2.9-6.26,4.6-6.84,5.08ZM353.48,30.1c-2.4,0-8.02,3.86-16.85,11.59-8.83,7.73-15.98,14.83-21.46,21.31,6.38-4.37,14.42-10.52,24.12-18.47,9.7-7.94,14.54-12.68,14.54-14.22,0-.14-.12-.22-.36-.22Z"/>
      <path class="cls-1" d="M335.41,57.17c.19-.29.42-.43.68-.43s.4.14.4.43-.14.58-.43.86c-.29.29-.49,1.16-.61,2.63-.12,1.46-.49,3.24-1.12,5.33-.62,2.09-1.7,3.97-3.24,5.65,0,.1.1.14.29.14.33,0,1.56-.58,3.67-1.73l1.01-.5c1.82-1.01,3.77-2.23,5.83-3.67l.14,1.08c-7.49,4.85-13.22,7.27-17.21,7.27-1.58,0-2.75-.34-3.49-1.01-.74-.67-1.12-1.42-1.12-2.23s.19-1.48.58-1.98c.38-.5.86-.76,1.44-.76.72,0,1.08.38,1.08,1.15,0,.48-.38.91-1.15,1.3-.24.14-.36.38-.36.72s.28.73.83,1.19c.55.46,1.14.68,1.76.68,2.11,0,3.92-1.33,5.44-4s2.48-5.32,2.92-7.96v-.22c-4.66,3.17-7.8,5.23-9.43,6.19l-.22-1.01c7.82-5.04,11.93-8.09,12.31-9.14Z"/>
      <path class="cls-1" d="M221.08,92.68l-.29-1.18c-.51-2.1-1.88-3.9-3.77-4.96h0,0c1.89-1.06,3.26-2.85,3.77-4.96l.29-1.18.29,1.18c.51,2.1,1.88,3.9,3.77,4.96h0,0c-1.89,1.06-3.26,2.85-3.77,4.96l-.29,1.18Z"/>
      <path class="cls-1" d="M321.07,35.44l-.29-1.18c-.51-2.1-1.88-3.9-3.77-4.96h0,0c1.89-1.06,3.26-2.85,3.77-4.96l.29-1.18.29,1.18c.51,2.1,1.88,3.9,3.77,4.96h0,0c-1.89,1.06-3.26,2.85-3.77,4.96l-.29,1.18Z"/>
    </g>
  </g>
</svg>