<?xml version="1.0" encoding="UTF-8"?>
<svg id="Calque_2" data-name="Calque 2" xmlns="http://www.w3.org/2000/svg" xmlns:xlink="http://www.w3.org/1999/xlink" viewBox="0 0 219.25 117.34">
  <defs>
    <style>
      .cls-1 {
        fill: url(#Dégradé_sans_nom_188-7);
      }

      .cls-2 {
        fill: url(#Dégradé_sans_nom_188-15);
      }

      .cls-3 {
        fill: url(#Dégradé_sans_nom_188-3);
      }

      .cls-4 {
        fill: url(#Dégradé_sans_nom_188-6);
      }

      .cls-5 {
        fill: url(#Dégradé_sans_nom_188-4);
      }

      .cls-6 {
        fill: url(#Dégradé_sans_nom_188-11);
      }

      .cls-7 {
        fill: url(#Dégradé_sans_nom_188-8);
      }

      .cls-8 {
        fill: url(#Dégradé_sans_nom_188-12);
      }

      .cls-9 {
        fill: url(#Dégradé_sans_nom_188-2);
      }

      .cls-10 {
        fill: url(#Dégradé_sans_nom_188-9);
      }

      .cls-11 {
        fill: url(#Dégradé_sans_nom_188);
      }

      .cls-12 {
        fill: url(#Dégradé_sans_nom_188-10);
      }

      .cls-13 {
        fill: url(#Dégradé_sans_nom_188-13);
      }

      .cls-14 {
        fill: url(#Dégradé_sans_nom_188-14);
      }

      .cls-15 {
        fill: url(#Dégradé_sans_nom_188-5);
      }
    </style>
    <linearGradient id="Dégradé_sans_nom_188" data-name="Dégradé sans nom 188" x1="16.85" y1="1.5" x2="16.85" y2="42" gradientUnits="userSpaceOnUse">
      <stop offset="0" stop-color="#38318d"/>
      <stop offset="1" stop-color="#7f69ac"/>
    </linearGradient>
    <linearGradient id="Dégradé_sans_nom_188-2" data-name="Dégradé sans nom 188" x1="50.55" y1="11.4" x2="50.55" y2="42.6" xlink:href="#Dégradé_sans_nom_188"/>
    <linearGradient id="Dégradé_sans_nom_188-3" data-name="Dégradé sans nom 188" x1="85.48" y1="11.4" x2="85.48" y2="42.55" xlink:href="#Dégradé_sans_nom_188"/>
    <linearGradient id="Dégradé_sans_nom_188-4" data-name="Dégradé sans nom 188" x1="115.2" y1="11.65" x2="115.2" xlink:href="#Dégradé_sans_nom_188"/>
    <linearGradient id="Dégradé_sans_nom_188-5" data-name="Dégradé sans nom 188" x1="135.35" y1="0" x2="135.35" xlink:href="#Dégradé_sans_nom_188"/>
    <linearGradient id="Dégradé_sans_nom_188-6" data-name="Dégradé sans nom 188" x1="160.3" y1="12" x2="160.3" y2="54" xlink:href="#Dégradé_sans_nom_188"/>
    <linearGradient id="Dégradé_sans_nom_188-7" data-name="Dégradé sans nom 188" x1="128.6" y1="26.17" x2="128.6" y2="111.21" xlink:href="#Dégradé_sans_nom_188"/>
    <linearGradient id="Dégradé_sans_nom_188-8" data-name="Dégradé sans nom 188" x1="149.41" y1="83.2" x2="149.41" y2="97.88" xlink:href="#Dégradé_sans_nom_188"/>
    <linearGradient id="Dégradé_sans_nom_188-9" data-name="Dégradé sans nom 188" x1="168.74" y1="76.5" x2="168.74" y2="98.1" xlink:href="#Dégradé_sans_nom_188"/>
    <linearGradient id="Dégradé_sans_nom_188-10" data-name="Dégradé sans nom 188" x1="196.03" y1="53.82" x2="196.03" y2="97.88" xlink:href="#Dégradé_sans_nom_188"/>
    <linearGradient id="Dégradé_sans_nom_188-11" data-name="Dégradé sans nom 188" x1="195.53" y1="81.4" x2="195.53" y2="98.89" xlink:href="#Dégradé_sans_nom_188"/>
    <linearGradient id="Dégradé_sans_nom_188-12" data-name="Dégradé sans nom 188" x1="59.59" y1="49.14" x2="59.59" y2="70.75" xlink:href="#Dégradé_sans_nom_188"/>
    <linearGradient id="Dégradé_sans_nom_188-13" data-name="Dégradé sans nom 188" x1="85.48" y1="105.07" x2="85.48" y2="117.34" xlink:href="#Dégradé_sans_nom_188"/>
    <linearGradient id="Dégradé_sans_nom_188-14" data-name="Dégradé sans nom 188" x1="185.47" y1="12.84" x2="185.47" y2="34.45" xlink:href="#Dégradé_sans_nom_188"/>
    <linearGradient id="Dégradé_sans_nom_188-15" data-name="Dégradé sans nom 188" x1="185.47" y1="47.83" x2="185.47" y2="60.1" xlink:href="#Dégradé_sans_nom_188"/>
  </defs>
  <g id="Calque_1-2" data-name="Calque 1">
    <path class="cls-11" d="M29.9,4.95c-2.53-2.3-6.08-3.45-10.65-3.45H0v40.5h8.45v-14.7h10.8c4.57,0,8.12-1.16,10.65-3.48,2.54-2.31,3.8-5.45,3.8-9.42s-1.26-7.15-3.8-9.45ZM23.55,18.47c-1.1.99-2.7,1.48-4.8,1.48h-10.3v-11.1h10.3c2.1,0,3.7.48,4.8,1.45,1.1.97,1.65,2.33,1.65,4.1s-.55,3.09-1.65,4.07Z"/>
    <path class="cls-9" d="M65.9,26.35c0-3.1-.6-5.77-1.8-8-1.2-2.23-2.92-3.95-5.17-5.15-2.25-1.2-4.94-1.8-8.08-1.8s-5.97.62-8.32,1.87-4.16,3.04-5.43,5.35c-1.26,2.32-1.9,5.08-1.9,8.28s.65,5.97,1.95,8.32c1.3,2.35,3.15,4.17,5.55,5.45,2.4,1.29,5.22,1.93,8.45,1.93,3.97,0,7.24-.91,9.8-2.73,2.57-1.81,4.19-4.32,4.85-7.52h-8.3c-.43,1.23-1.16,2.15-2.2,2.75-1.03.6-2.43.9-4.2.9-2.23,0-4.03-.58-5.4-1.75-1.36-1.17-2.21-2.87-2.55-5.1h22.75v-2.8ZM43.35,23.65c.44-1.87,1.29-3.28,2.58-4.25,1.28-.97,2.94-1.45,4.97-1.45s3.65.47,4.85,1.42c1.2.95,1.94,2.38,2.2,4.28h-14.6Z"/>
    <path class="cls-3" d="M97.8,33.8v-1.55c-.74.57-1.45,1.17-2.14,1.81-1.1,1.01-2.07,2.02-2.92,3.04h.56v4.9h8.4v-8.2h-3.9ZM94.28,14.4c-2.35-2-5.76-3-10.23-3-4.03,0-7.26.85-9.7,2.55-2.43,1.7-3.98,4.2-4.65,7.5h8.25c.7-2.33,2.74-3.5,6.1-3.5,3.87,0,5.8,1.62,5.8,4.85v1.15h-8.6c-3.86,0-6.83.8-8.9,2.4-2.06,1.6-3.1,3.88-3.1,6.85,0,2.8,1,5.06,3,6.77,2,1.72,4.77,2.58,8.3,2.58,2.6,0,4.77-.48,6.5-1.43,1.74-.95,3.12-2.29,4.15-4.02h.41c.88-1.08,1.9-2.15,3.04-3.22,1-.94,2.05-1.81,3.15-2.61v-8.12c0-3.83-1.17-6.75-3.52-8.75ZM89.85,29.9c0,1.2-.35,2.27-1.05,3.22-.7.95-1.65,1.71-2.85,2.28-1.2.57-2.58.85-4.15.85-1.43,0-2.56-.3-3.4-.9-.83-.6-1.25-1.45-1.25-2.55,0-2.23,1.5-3.35,4.5-3.35h8.2v.45Z"/>
    <path class="cls-5" d="M114.7,39.2c-1.37.87-2.64,1.8-3.8,2.8h5.2v-3.62c-.47.25-.93.53-1.4.82ZM124,11.65c-2.16,0-4.11.52-5.85,1.55-1.73,1.03-3,2.6-3.8,4.7h-2.1v-5.9h-8.4v8.2h4.1v5.97c1.97-.64,4.06-1.14,6.25-1.51l.22.86c-2.27.32-4.43.81-6.47,1.46v14.52c2.21-2.01,4.92-3.68,8.15-5.02v-9.63c0-2.4.61-4.33,1.83-5.8,1.21-1.47,3.12-2.2,5.72-2.2h2.9v-7.2h-2.55Z"/>
    <path class="cls-15" d="M132.6,37.01c-.41-.28-.87-.52-1.4-.71v5.7h3.32c.09-.39.13-.77.13-1.14,0-1.63-.68-2.92-2.05-3.85ZM132.6,37.01c-.41-.28-.87-.52-1.4-.71v5.7h3.32c.09-.39.13-.77.13-1.14,0-1.63-.68-2.92-2.05-3.85ZM131.2,0v34.8c1.04.28,1.89.65,2.55,1.13,1.46,1.08,2.2,2.55,2.2,4.43,0,.53-.07,1.08-.2,1.64h3.75V0h-8.3ZM132.6,37.01c-.41-.28-.87-.52-1.4-.71v5.7h3.32c.09-.39.13-.77.13-1.14,0-1.63-.68-2.92-2.05-3.85ZM132.6,37.01c-.41-.28-.87-.52-1.4-.71v5.7h3.32c.09-.39.13-.77.13-1.14,0-1.63-.68-2.92-2.05-3.85ZM132.6,37.01c-.41-.28-.87-.52-1.4-.71v5.7h3.32c.09-.39.13-.77.13-1.14,0-1.63-.68-2.92-2.05-3.85Z"/>
    <path class="cls-4" d="M168.85,12l-8.2,20.2h-.2l-8.4-20.2h-8.8l12.83,29.47c1.97-1.14,3.8-1.89,5.5-2.27.52,0,.79.14.79.4s-.15.44-.43.54c-2.21.67-4.29,2.17-6.23,4.5-.48.57-.98,1.19-1.51,1.87l-.35.84h-.3c-1.44,1.87-3.05,4.08-4.84,6.65h5.39c2.27,0,3.95-.54,5.05-1.63,1.1-1.08,2.07-2.6,2.9-4.57l2.45-5.8,12.85-30h-8.5ZM147.25,47.35v.91c.34-.31.67-.62,1-.91h-1ZM149.64,47.35c-.39.35-.81.74-1.24,1.14l-1.15,1.11v2.32c1.32-1.66,2.61-3.19,3.88-4.57h-1.49Z"/>
    <g>
      <path class="cls-1" d="M137.46,54.54c-4.52,3.74-8.91,6.53-13.18,8.35-4.27,1.83-7.94,2.74-11.02,2.74-6,0-9.52-2.04-10.58-6.12h.43c4.75,0,9.25-.65,13.5-1.95,4.25-1.29,7.74-2.92,10.48-4.89,2.73-1.97,4.9-4.04,6.48-6.23,1.13-1.56,1.86-3.04,2.18-4.44h-1.23c-.26,1.33-1,2.79-2.21,4.37-1.56,2.04-3.66,3.97-6.3,5.79-2.64,1.83-5.97,3.35-9.97,4.58-4.01,1.22-8.18,1.83-12.5,1.83h-1l-.07-1.22c0-2.98,1.09-6.15,3.27-9.51,1.39-2.14,3.11-4.09,5.16-5.84h-2.95v-.5c-.12.1-.25.21-.37.33-2.31,2.19-4.13,4.56-5.48,7.13-1.34,2.57-2.01,5.05-2.01,7.45,0,.48.05,1.15.14,2.02-4.03-.43-7.05-1.57-9.07-3.42-2.02-1.85-3.02-4.17-3.02-6.95,0-3.67,1.53-7.33,4.6-10.96h-1.13c-3.08,3.73-4.62,7.48-4.62,11.25,0,3.02,1.13,5.54,3.42,7.56,2.27,2.01,5.65,3.19,10.11,3.53,1.34,4.65,5.47,6.98,12.39,6.98,3.11,0,6.59-.82,10.43-2.45s6.87-3.2,9.08-4.71c2.2-1.52,4.03-2.89,5.47-4.14l-.43-.58ZM126.48,34.31c-3.39,0-6.81.71-10.26,2.12-.04.02-.08.03-.12.05v1.9c3.36-1.86,6.83-2.78,10.41-2.78,1.89,0,3.45.23,4.69.7v-1.5c-1.28-.33-2.85-.49-4.72-.49ZM97.8,31.27v.98c3-2.32,6.38-4.08,10.15-5.27v-.81c-3.78,1.22-7.16,2.92-10.15,5.1ZM196.93,43.88c-1.54-1.53-4.03-2.3-7.49-2.3s-7.49.89-12.1,2.66c-1.96.77-4.06,1.84-6.3,3.21-2.23,1.37-4.24,2.67-6.04,3.92-1.8,1.25-3.82,2.84-6.05,4.75-2.23,1.92-4.13,3.6-5.69,5.04s-3.43,3.28-5.62,5.51c-2.18,2.23-3.92,4.03-5.21,5.4-1.3,1.37-2.99,3.18-5.08,5.44-2.09,2.26-3.64,3.91-4.65,4.97l-.93.72c-.15,0-.22-.03-.22-.08l.58-1.36c1.25-2.64,4.32-8.09,9.21-16.35,2.02-3.45,4.43-7.2,7.24-11.23.04-.06.09-.12.13-.18h-1.46v-2.08c-3.33,4.19-6.81,9.24-10.44,15.15-1.87,3.02-4.66,8.42-8.35,16.2l-1.23,2.52c-2.35,5.04-3.86,7.99-4.53,8.85l-.87,1.52c0,.28.1.43.29.43s.41-.07.65-.22l4.03-5.25c.67-.77,2.35-2.7,5.04-5.8,2.69-3.1,4.87-5.6,6.55-7.52s4.11-4.54,7.27-7.85c3.17-3.31,5.97-6.07,8.39-8.28,2.43-2.21,5.31-4.66,8.64-7.35,3.34-2.68,6.4-4.82,9.18-6.4,2.79-1.59,5.75-2.93,8.89-4.04,3.15-1.1,6.06-1.65,8.75-1.65s4.66.59,5.91,1.76c1.24,1.18,1.87,2.88,1.87,5.11s-1.44,5.02-4.32,8.36c-2.88,3.33-6.22,6.16-10.01,8.49-3.79,2.33-6.96,3.49-9.5,3.49s-3.82-1.39-3.82-4.17c0-2.02.96-4.06,2.88-6.12s4.54-3.6,7.85-4.61l-.22-.72c-3.5.86-6.31,2.46-8.42,4.79s-3.17,4.62-3.17,6.87c0,3.27,1.73,4.9,5.18,4.9,2.93,0,6.4-1.05,10.41-3.17,4.01-2.11,7.52-4.81,10.55-8.1,3.02-3.28,4.53-6.26,4.53-8.93s-.77-4.76-2.3-6.3ZM145.81,49.64l-5.62,6.05c-3.69,4.08-8.31,9-13.86,14.76-5.54,5.76-9.44,9.68-11.7,11.74-2.25,2.06-3.57,3.29-3.96,3.67-2.45-2.4-5.85-4.25-10.22-5.54,1.01-1.92,1.51-3.75,1.51-5.48s-.6-3.1-1.8-4.14c-1.2-1.03-3.02-1.54-5.47-1.54-3.99,0-7.65,1.04-10.98,3.13-3.34,2.09-5.94,4.69-7.81,7.81-5.62,1.2-10.01,2.99-13.18,5.36-3.17,2.38-4.75,4.72-4.75,7.02,0,1.69.91,3.06,2.73,4.14,1.83,1.08,4.44,1.62,7.85,1.62s6.87-.5,10.37-1.51c2.02.96,4.87,1.44,8.57,1.44s7.39-.91,11.09-2.73c3.69-1.83,7.48-4.42,11.37-7.78,1.68,2.21,2.52,4.51,2.52,6.91,0,3.6-1.77,6.88-5.33,9.83-3.55,2.95-8.66,4.96-15.33,6.01v.8c7.63-1.16,13.4-3.26,17.31-6.31,3.92-3.04,5.87-6.42,5.87-10.11,0-2.98-1.22-5.76-3.67-8.35,8.59-7.78,20.35-19.85,35.28-36.22l.65-.62v-1.34c-.47.44-.95.9-1.44,1.38ZM84.28,72.94c2.96-1.85,6.14-2.78,9.54-2.78,3.99,0,5.98,1.52,5.98,4.54,0,1.44-.5,3.12-1.51,5.04-2.98-.62-6.25-.94-9.83-.94s-7.33.36-11.27,1.08c1.78-2.78,4.14-5.1,7.09-6.94ZM68.66,97.45c-2.95,0-5.21-.44-6.77-1.33s-2.34-2.05-2.34-3.49c0-2.06,1.44-4.21,4.32-6.45,2.88-2.23,6.72-3.94,11.52-5.14-1.29,2.4-1.94,4.77-1.94,7.12,0,3.46,1.39,6.1,4.17,7.92-3.02.92-6.01,1.37-8.96,1.37ZM74.53,87.95c0-2.4.69-4.8,2.09-7.2,3.84-.82,7.54-1.23,11.12-1.23s6.92.36,10.04,1.08c-1.72,2.93-4.27,5.79-7.63,8.57-3.36,2.79-7.05,4.92-11.09,6.41-3.02-1.63-4.53-4.18-4.53-7.63ZM87.27,97.24c-2.64,0-4.85-.34-6.62-1.01,4.37-1.49,8.25-3.6,11.66-6.34,3.41-2.73,5.95-5.61,7.64-8.64,3.98,1.25,7.12,3.17,9.43,5.76-7.78,6.82-15.15,10.23-22.11,10.23ZM156.08,41.47c-2.41,1.39-5.02,3.34-7.83,5.88h1.39c2.87-2.6,4.67-3.9,5.38-3.9-1.27,1.15-2.57,2.45-3.89,3.9h2.42c.22-.29.44-.57.65-.84l2-4.76-.12-.28Z"/>
      <path class="cls-7" d="M163.38,90.54c-.28.2-.56.39-.84.58-5.88,3.98-9.92,5.97-12.12,5.97-.34,0-.51-.19-.51-.57,0-.96,2.33-3.72,6.99-8.28,1.87-1.88,3-3.06,3.38-3.57.38-.5.58-.8.58-.9,0-.09-.03-.18-.08-.25-.04-.07-.72-.18-2.01-.32-.1,0-.63.38-1.59,1.15-1.24-.72-2.73-1.08-4.46-1.08-5.23,0-9.44,1.41-12.64,4.25-3.19,2.83-4.78,5.49-4.78,7.99,0,1.39.57,2.09,1.72,2.09,3.17-.05,7.59-2.16,13.25-6.34-1.49,1.97-2.23,3.56-2.23,4.79s.65,1.83,1.94,1.83c2.24,0,5.82-1.49,10.74-4.48.89-.55,1.82-1.14,2.8-1.78l-.14-1.08ZM145.2,93.67c-3.05,1.85-5.49,2.77-7.31,2.77-.53,0-.79-.28-.79-.86s.48-1.49,1.44-2.74c.96-1.24,2.16-2.52,3.6-3.81,1.44-1.3,3.14-2.41,5.11-3.35,1.97-.94,3.55-1.4,4.75-1.4s2.15.09,2.84.28c.7.2,1.05.44,1.05.72s-1.02,1.3-3.06,3.03c-2.04,1.73-4.59,3.52-7.63,5.36Z"/>
      <path class="cls-10" d="M177.09,76.5c-.65,0-1.35.35-2.12,1.04-.77.7-1.15,1.31-1.15,1.84s.32.79.97.79,1.35-.31,2.12-.93c.77-.63,1.15-1.28,1.15-1.95,0-.53-.32-.79-.97-.79ZM175.47,90.54s-.23.14-.57.35c-.38.23-.95.58-1.7,1.05-1.41.89-2.62,1.64-3.63,2.24-1.01.6-2.16,1.18-3.46,1.76-1.29.58-2.27.86-2.91.86s-.98-.24-.98-.72c0-1.48,3.24-5.16,9.72-11.01.15-.15.22-.31.22-.51,0-.43-.34-.67-1.01-.72-.67-.04-1.13.03-1.37.22l-2.59,2.3c-1.55,1.38-3.1,2.97-4.65,4.76-.18.2-.35.4-.53.61-.51.6-.94,1.16-1.29,1.67-.87,1.22-1.3,2.19-1.3,2.9,0,1.2.73,1.8,2.19,1.8s3.61-.72,6.45-2.16c2.1-1.07,4.02-2.13,5.78-3.2.61-.37,1.21-.75,1.78-1.12l-.15-1.08Z"/>
      <path class="cls-12" d="M218.38,53.82c-3.12,0-8.41,2.94-15.87,8.82-7.47,5.88-14.28,12.27-20.45,19.15-3.24,3.62-5.63,6.65-7.16,9.1-.42.66-.78,1.28-1.06,1.85-.69,1.35-1.03,2.46-1.03,3.34,0,1.2.65,1.8,1.94,1.8,2.22,0,5.76-1.47,10.63-4.43.24-.14.49-.29.74-.45.6-.37,1.22-.76,1.86-1.18.02-.01.04-.02.05-.03.08-.06.17-.11.26-.17l-.15-1.07h0c-.11.06-.21.14-.32.21-.11.08-.21.15-.32.22-5.65,3.89-9.56,5.82-11.74,5.82-.81,0-1.22-.44-1.22-1.33s.96-2.6,2.88-5.15c.57-.47,2.85-2.17,6.84-5.07,3.98-2.91,7.68-5.65,11.08-8.25,3.41-2.59,7.08-5.47,11.02-8.64,3.94-3.16,7.07-5.98,9.4-8.46,2.32-2.47,3.49-4.28,3.49-5.43,0-.43-.29-.65-.87-.65ZM203.7,69.19c-9.7,7.95-17.74,14.1-24.12,18.47,5.47-6.48,12.62-13.58,21.45-21.31,8.83-7.73,14.45-11.59,16.85-11.59.24,0,.36.07.36.21,0,1.54-4.85,6.28-14.54,14.22Z"/>
      <path class="cls-6" d="M206.29,90.54c-2.07,1.44-4.01,2.66-5.83,3.67l-1.01.51c-2.11,1.15-3.34,1.72-3.67,1.72-.2,0-.29-.04-.29-.14,1.53-1.68,2.61-3.56,3.24-5.65.62-2.09.99-3.86,1.11-5.33.12-1.46.33-2.34.62-2.63.28-.29.43-.57.43-.86s-.13-.43-.4-.43-.49.14-.68.43c-.38,1.02-4.27,3.93-11.67,8.72-.1.07-.21.14-.32.21-.1.07-.21.14-.32.21h0s.21,1.01.21,1.01c.09-.05.18-.1.27-.16.02-.01.04-.02.05-.03,1.71-1.03,4.75-3.03,9.11-6v.21c-.43,2.64-1.4,5.3-2.91,7.96-1.51,2.66-3.33,4-5.44,4-.62,0-1.21-.23-1.76-.69-.55-.45-.83-.85-.83-1.19s.12-.57.36-.72c.77-.38,1.15-.81,1.15-1.29,0-.77-.36-1.15-1.08-1.15-.18,0-.35.02-.51.08-.27.08-.52.23-.74.45-.07.07-.13.14-.19.22-.38.51-.57,1.17-.57,1.98s.37,1.56,1.11,2.23c.75.68,1.91,1.01,3.49,1.01,3.99,0,9.73-2.42,17.21-7.27l-.14-1.08Z"/>
    </g>
    <path class="cls-8" d="M59.59,70.75l-.42-1.52c-1.13-4.05-3.92-7.43-7.69-9.28h0s0,0,0,0c3.77-1.86,6.57-5.23,7.69-9.28l.42-1.52.42,1.52c1.13,4.05,3.92,7.43,7.69,9.28h0s0,0,0,0c-3.77,1.86-6.57,5.23-7.69,9.28l-.42,1.52Z"/>
    <path class="cls-13" d="M85.48,117.34l-.29-1.18c-.51-2.1-1.88-3.9-3.77-4.96h0,0c1.89-1.06,3.26-2.85,3.77-4.96l.29-1.18.29,1.18c.51,2.1,1.88,3.9,3.77,4.96h0,0c-1.89,1.06-3.26,2.85-3.77,4.96l-.29,1.18Z"/>
    <path class="cls-14" d="M185.47,34.45l-.42-1.52c-1.13-4.05-3.92-7.43-7.69-9.28h0s0,0,0,0c3.77-1.86,6.57-5.23,7.69-9.28l.42-1.52.42,1.52c1.13,4.05,3.92,7.43,7.69,9.28h0s0,0,0,0c-3.77,1.86-6.57,5.23-7.69,9.28l-.42,1.52Z"/>
    <path class="cls-2" d="M185.47,60.1l-.29-1.18c-.51-2.1-1.88-3.9-3.77-4.96h0,0c1.89-1.06,3.26-2.85,3.77-4.96l.29-1.18.29,1.18c.51,2.1,1.88,3.9,3.77,4.96h0,0c-1.89,1.06-3.26,2.85-3.77,4.96l-.29,1.18Z"/>
  </g>
</svg>