<svg width="25" height="25" viewBox="0 0 25 25" fill="none" xmlns="http://www.w3.org/2000/svg">
<path d="M8.85426 17.6961C6.38435 17.6961 4.29091 16.8386 2.57393 15.1235C0.857976 13.4095 0 11.3177 0 8.84805C0 6.37842 0.857976 4.28608 2.57393 2.57103C4.28988 0.855982 6.38332 -0.00102852 8.85426 9.26313e-07C11.3252 0.00103037 13.4181 0.858555 15.133 2.57258C16.848 4.2866 17.7059 6.37842 17.707 8.84805C17.707 9.92073 17.5169 10.9589 17.1369 11.9626C16.7568 12.9663 16.2573 13.8249 15.6382 14.5383L24.7675 23.6597C24.9117 23.8038 24.989 23.9814 24.9993 24.1924C25.0085 24.4014 24.9313 24.5882 24.7675 24.7529C24.6027 24.9176 24.4204 25 24.2206 25C24.0208 25 23.8385 24.9176 23.6737 24.7529L14.5459 15.63C13.7735 16.2878 12.8851 16.7969 11.8809 17.1572C10.8766 17.5175 9.86725 17.6977 8.85271 17.6977M8.85271 16.1535C10.9024 16.1535 12.6333 15.4483 14.0454 14.038C15.4565 12.6277 16.162 10.8977 16.162 8.84805C16.162 6.79844 15.457 5.06897 14.0469 3.65967C12.6369 2.25036 10.9065 1.54519 8.8558 1.54416C6.8051 1.54416 5.07422 2.24933 3.66314 3.65967C2.25206 5.07 1.54601 6.79947 1.54498 8.84805C1.54395 10.8966 2.24948 12.6261 3.66159 14.0364C5.0737 15.4468 6.80407 16.1519 8.85271 16.1519" fill="#38318D"/>
</svg>
