<?xml version="1.0" encoding="UTF-8"?>
<svg id="Calque_2" data-name="Calque 2" xmlns="http://www.w3.org/2000/svg" viewBox="0 0 35.01 77.13">
  <defs>
    <style>
      .cls-1, .cls-2 {
        fill: #38318d;
      }

      .cls-2 {
        stroke: #38318d;
        stroke-miterlimit: 10;
      }
    </style>
  </defs>
  <g id="Calque_1-2" data-name="Calque 1">
    <path class="cls-2" d="M34.07,38.62c0-5.12-2.36-9.83-6.48-12.96L25.04.69v-.14s-15.34-.05-15.34-.05l-2.29,25.15c-4.13,3.13-6.49,7.85-6.49,12.97l-.42,37.94v.07h.29l.42-38.01c0-4.94,2.25-9.52,6.19-12.6l-.48,14.85c0,.15,0,.3,0,.45.1,3.31,1.23,6.4,3.21,8.71,1.98,2.32,4.6,3.6,7.36,3.6s5.38-1.28,7.36-3.6c1.97-2.31,3.11-5.4,3.21-8.71,0-.15,0-.3,0-.46l-.48-14.84c3.93,3.07,6.18,7.64,6.18,12.59l.43,37.94v.07h.29l-.43-38.01ZM27.79,40.88c0,.15,0,.3,0,.44-.09,3.24-1.21,6.27-3.14,8.53-1.93,2.25-4.46,3.5-7.14,3.5s-5.22-1.24-7.14-3.5c-1.93-2.26-3.04-5.29-3.14-8.53,0-.15,0-.3,0-.44C6.27,26.61,9.98.79,9.98.79l14.78.05s3.5,25.74,3.03,40.04Z"/>
    <path class="cls-1" d="M27.25,31c-.88-12.23-7.86-17.74-9.75-17.74-2.14,0-8.99,6.09-9.83,17.75l-1-.07c.85-11.88,7.4-19.17,10.83-19.17,3.23,0,9.77,6.78,10.67,19.17l-.92.07Z"/>
  </g>
</svg>