<svg width="35" height="77" viewBox="0 0 35 77" fill="none" xmlns="http://www.w3.org/2000/svg">
<path d="M34.0604 38.5549C34.0604 33.4435 31.7011 28.7415 27.5823 25.6167L25.033 0.688825V0.549061L9.69737 0.499146L7.40803 25.6068C3.27921 28.7315 0.91988 33.4435 0.91988 38.5549L0.5 76.4309V76.5008H0.789917L1.2098 38.5549C1.2098 33.6232 3.45915 29.0509 7.39803 25.9761L6.91817 40.8011C6.91817 40.9509 6.91817 41.1006 6.91817 41.2503C7.01814 44.5548 8.14782 47.6396 10.1272 49.9457C12.1067 52.2618 14.7259 53.5396 17.4851 53.5396C20.2444 53.5396 22.8636 52.2618 24.843 49.9457C26.8125 47.6396 27.9522 44.5548 28.0521 41.2503C28.0521 41.1006 28.0521 40.9509 28.0521 40.7911L27.5723 25.9761C31.5011 29.041 33.7505 33.6033 33.7505 38.5449L34.1804 76.421V76.4909H34.4703L34.0404 38.5449L34.0604 38.5549ZM27.7822 40.8111C27.7822 40.9608 27.7822 41.1106 27.7822 41.2503C27.6922 44.4849 26.5726 47.5098 24.6431 49.766C22.7137 52.0122 20.1844 53.2601 17.5051 53.2601C14.8259 53.2601 12.2866 52.0222 10.3672 49.766C8.43773 47.5098 7.32805 44.4849 7.22808 41.2503C7.22808 41.1006 7.22808 40.9509 7.22808 40.8111C6.26835 26.5651 9.97729 0.788657 9.97729 0.788657L24.7531 0.838572C24.7531 0.838572 28.2521 26.5352 27.7822 40.8111Z" fill="#38318D" stroke="#38318D" stroke-miterlimit="10"/>
<path d="M27.2421 30.9477C26.3623 18.7383 19.3843 13.2376 17.4949 13.2376C15.3555 13.2376 8.50744 19.3173 7.66768 30.9577L6.66797 30.8878C7.51773 19.0278 14.0659 11.7501 17.4949 11.7501C20.724 11.7501 27.2621 18.5187 28.1618 30.8878L27.2421 30.9577V30.9477Z" fill="#38318D"/>
</svg>
