<?xml version="1.0" encoding="UTF-8"?>
<svg id="Calque_2" data-name="Calque 2" xmlns="http://www.w3.org/2000/svg" viewBox="0 0 288.82 220.71">
  <defs>
    <style>
      .cls-1 {
        fill: #1d1d1b;
      }

      .cls-2 {
        fill: #fff;
      }
    </style>
  </defs>
  <g id="Calque_1-2" data-name="Calque 1">
    <g>
      <path class="cls-2" d="M0,0v220.71h288.82V0H0ZM246.1,207.17c-1.34,0-2.95-.9-4.66-2.61-7.68-7.67-15.43-28.98-15.43-59.3,0-14.5,6.76-21.85,20.09-21.85s20.09,7.35,20.09,21.85c0,22.05-3.54,37.53-7.83,47.49-4.28,9.97-9.3,14.42-12.26,14.42ZM254.88,73.02c-1.22,1.22-2.4,1.89-3.33,1.89h-.01c-4.31,0-14.65-13.08-14.65-45.43,0-10.58,4.93-15.94,14.65-15.94s14.65,5.36,14.65,15.94c0,22.28-5.68,37.92-11.31,43.54ZM192.89,198.01c-1.16,0-2.62-.83-4.12-2.32-6.84-6.83-13.74-25.82-13.74-52.85,0-12.89,6.01-19.43,17.86-19.43s17.87,6.54,17.87,19.43c0,19.64-3.15,33.44-6.96,42.32s-8.28,12.85-10.91,12.85ZM207.29,89.05c-1.59,1.59-3.08,2.43-4.32,2.43-5.5,0-18.68-16.59-18.68-57.63,0-13.48,6.29-20.31,18.68-20.31s18.67,6.83,18.67,20.31c0,28.23-7.21,48.07-14.35,55.2ZM138.95,207.17h0c-1.33,0-2.94-.9-4.65-2.61-7.68-7.67-15.43-28.98-15.43-59.3,0-14.5,6.76-21.85,20.09-21.85s20.09,7.35,20.09,21.85c0,22.05-3.54,37.53-7.83,47.49-4.28,9.97-9.31,14.42-12.26,14.42ZM154.54,94.68c-.86.86-1.69,1.52-2.47,1.96-.79.44-1.52.66-2.19.66-5.92,0-20.09-17.82-20.09-61.91,0-14.5,6.76-21.85,20.09-21.85s20.09,7.35,20.09,21.85c0,30.32-7.75,51.63-15.43,59.29ZM85.86,201.35h-.01c-1.23,0-2.72-.84-4.31-2.43-7.15-7.13-14.36-26.97-14.36-55.2,0-13.48,6.29-20.31,18.68-20.31s18.68,6.83,18.68,20.31c0,20.52-3.3,34.93-7.28,44.21-3.98,9.27-8.65,13.42-11.4,13.42ZM100.06,85.82c-1.5,1.49-2.96,2.31-4.12,2.31-5.26,0-17.87-15.87-17.87-55.16,0-12.89,6.01-19.43,17.87-19.43s17.86,6.54,17.86,19.43c0,27.03-6.9,46.02-13.74,52.85ZM37.28,184.78c-.93,0-2.12-.67-3.33-1.89-5.64-5.62-11.32-21.26-11.32-43.54,0-10.58,4.93-15.94,14.65-15.94s14.65,5.36,14.65,15.94c0,16.18-2.58,27.54-5.71,34.85-3.12,7.31-6.78,10.58-8.94,10.58ZM47.39,94.69c-.86.85-1.69,1.51-2.48,1.95-.78.44-1.51.66-2.18.66h-.01c-5.91,0-20.09-17.82-20.09-61.91,0-14.5,6.76-21.85,20.09-21.85s20.1,7.35,20.1,21.85c0,30.32-7.75,51.63-15.43,59.3Z"/>
      <g>
        <g>
          <path class="cls-2" d="M57.29,17.9c-3.73-3.48-8.88-4.86-14.57-4.86-11.37,0-20.59,5.5-20.59,22.35,0,43.69,13.82,62.41,20.59,62.41s20.6-21.42,20.6-62.41c0-8.43-2.3-14.01-6.03-17.49ZM47.39,94.69c-.86.85-1.69,1.51-2.48,1.95-.78.44-1.51.66-2.18.66h-.01c-5.91,0-20.09-17.82-20.09-61.91,0-14.5,6.76-21.85,20.09-21.85s20.1,7.35,20.1,21.85c0,30.32-7.75,51.63-15.43,59.3Z"/>
          <path class="cls-1" d="M42.72,12.54c-9.62,0-21.09,3.96-21.09,22.85,0,43.91,13.97,62.91,21.09,62.91h.01c1.6,0,3.46-1.01,5.36-2.91,7.83-7.81,15.73-29.39,15.73-60,0-18.89-11.47-22.85-21.1-22.85ZM44.91,96.64c-.78.44-1.51.66-2.18.66h-.01c-5.91,0-20.09-17.82-20.09-61.91,0-14.5,6.76-21.85,20.09-21.85s20.1,7.35,20.1,21.85c0,30.32-7.75,51.63-15.43,59.3-.86.85-1.69,1.51-2.48,1.95Z"/>
        </g>
        <g>
          <path class="cls-2" d="M108.92,17.37c-3.32-3.11-7.91-4.33-12.98-4.33-10.15,0-18.37,4.9-18.37,19.93,0,38.97,12.33,55.66,18.37,55.66,6.17.02,18.36-19.09,18.36-55.66,0-7.51-2.06-12.5-5.38-15.6ZM100.06,85.82c-1.5,1.49-2.96,2.31-4.12,2.31-5.26,0-17.87-15.87-17.87-55.16,0-12.89,6.01-19.43,17.87-19.43s17.86,6.54,17.86,19.43c0,27.03-6.9,46.02-13.74,52.85Z"/>
          <path class="cls-1" d="M95.94,12.54c-8.61,0-18.87,3.54-18.87,20.43,0,39.2,12.49,56.16,18.87,56.16,1.45,0,3.11-.9,4.82-2.6,6.99-6.98,14.04-26.24,14.04-53.56,0-16.89-10.26-20.43-18.86-20.43ZM95.94,88.13c-5.26,0-17.87-15.87-17.87-55.16,0-12.89,6.01-19.43,17.87-19.43s17.86,6.54,17.86,19.43c0,27.03-6.9,46.02-13.74,52.85-1.5,1.49-2.96,2.31-4.12,2.31Z"/>
        </g>
        <g>
          <path class="cls-2" d="M164.44,17.9c-3.73-3.48-8.88-4.86-14.56-4.86-11.38,0-20.59,5.5-20.59,22.35,0,43.69,13.81,62.41,20.59,62.41s20.59-21.42,20.59-62.41c0-8.43-2.31-14.01-6.03-17.49ZM154.54,94.68c-.86.86-1.69,1.52-2.47,1.96-.79.44-1.52.66-2.19.66-5.92,0-20.09-17.82-20.09-61.91,0-14.5,6.76-21.85,20.09-21.85s20.09,7.35,20.09,21.85c0,30.32-7.75,51.63-15.43,59.29Z"/>
          <path class="cls-1" d="M149.88,12.54c-9.62,0-21.09,3.96-21.09,22.85,0,43.91,13.96,62.91,21.09,62.91,1.61,0,3.46-1.01,5.37-2.91,7.82-7.81,15.72-29.39,15.72-60,0-18.89-11.47-22.85-21.09-22.85ZM152.07,96.64c-.79.44-1.52.66-2.19.66-5.92,0-20.09-17.82-20.09-61.91,0-14.5,6.76-21.85,20.09-21.85s20.09,7.35,20.09,21.85c0,30.32-7.75,51.63-15.43,59.29-.86.86-1.69,1.52-2.47,1.96Z"/>
        </g>
        <g>
          <path class="cls-2" d="M216.53,17.56c-3.47-3.24-8.27-4.52-13.56-4.52-10.59,0-19.18,5.12-19.18,20.81,0,40.69,12.87,58.13,19.18,58.13s19.17-19.95,19.17-58.13c0-7.85-2.14-13.05-5.61-16.29ZM207.29,89.05c-1.59,1.59-3.08,2.43-4.32,2.43-5.5,0-18.68-16.59-18.68-57.63,0-13.48,6.29-20.31,18.68-20.31s18.67,6.83,18.67,20.31c0,28.23-7.21,48.07-14.35,55.2Z"/>
          <path class="cls-1" d="M202.97,12.54c-8.98,0-19.68,3.7-19.68,21.31,0,40.92,13.03,58.62,19.68,58.63,1.51,0,3.24-.94,5.02-2.72,7.3-7.28,14.65-27.39,14.65-55.91,0-17.61-10.7-21.31-19.67-21.31ZM202.97,91.48c-5.5,0-18.68-16.59-18.68-57.63,0-13.48,6.29-20.31,18.68-20.31s18.67,6.83,18.67,20.31c0,28.23-7.21,48.07-14.35,55.2-1.59,1.59-3.08,2.43-4.32,2.43Z"/>
        </g>
        <g>
          <path class="cls-2" d="M262.25,16.61c-2.74-2.56-6.53-3.57-10.71-3.57-8.36,0-15.15,4.05-15.15,16.44,0,32.15,10.17,45.93,15.15,45.93s15.15-15.76,15.15-45.93c0-6.2-1.69-10.3-4.44-12.87ZM254.88,73.02c-1.22,1.22-2.4,1.89-3.33,1.89h-.01c-4.31,0-14.65-13.08-14.65-45.43,0-10.58,4.93-15.94,14.65-15.94s14.65,5.36,14.65,15.94c0,22.28-5.68,37.92-11.31,43.54Z"/>
          <path class="cls-1" d="M251.54,12.54c-7.14,0-15.65,2.94-15.65,16.94,0,32.4,10.37,46.42,15.65,46.43h.01c1.21,0,2.61-.76,4.04-2.18,5.77-5.77,11.6-21.69,11.6-44.25,0-14-8.51-16.94-15.65-16.94ZM251.55,74.91h-.01c-4.31,0-14.65-13.08-14.65-45.43,0-10.58,4.93-15.94,14.65-15.94s14.65,5.36,14.65,15.94c0,22.28-5.68,37.92-11.31,43.54-1.22,1.22-2.4,1.89-3.33,1.89Z"/>
        </g>
        <g>
          <path class="cls-2" d="M246.1,122.91c-5.68,0-10.83,1.37-14.56,4.86-3.72,3.48-6.03,9.07-6.03,17.49,0,41.01,13.67,62.43,20.59,62.41,6.78,0,20.59-18.71,20.59-62.41,0-16.85-9.21-22.35-20.59-22.35ZM246.1,207.17c-1.34,0-2.95-.9-4.66-2.61-7.68-7.67-15.43-28.98-15.43-59.3,0-14.5,6.76-21.85,20.09-21.85s20.09,7.35,20.09,21.85c0,22.05-3.54,37.53-7.83,47.49-4.28,9.97-9.3,14.42-12.26,14.42Z"/>
          <path class="cls-1" d="M246.1,122.41c-9.62,0-21.09,3.96-21.09,22.85,0,30.61,7.9,52.2,15.72,60,1.91,1.91,3.76,2.91,5.37,2.91,7.13,0,21.09-19,21.09-62.91,0-18.89-11.46-22.85-21.09-22.85ZM246.1,207.17c-1.34,0-2.95-.9-4.66-2.61-7.68-7.67-15.43-28.98-15.43-59.3,0-14.5,6.76-21.85,20.09-21.85s20.09,7.35,20.09,21.85c0,22.05-3.54,37.53-7.83,47.49-4.28,9.97-9.3,14.42-12.26,14.42Z"/>
        </g>
        <g>
          <path class="cls-2" d="M192.89,122.91c-5.07,0-9.66,1.23-12.98,4.33-3.33,3.11-5.38,8.09-5.38,15.6,0,36.57,12.18,55.67,18.36,55.67s18.37-16.7,18.37-55.67c0-15.02-8.23-19.93-18.37-19.93ZM192.89,198.01c-1.16,0-2.62-.83-4.12-2.32-6.84-6.83-13.74-25.82-13.74-52.85,0-12.89,6.01-19.43,17.86-19.43s17.87,6.54,17.87,19.43c0,19.64-3.15,33.44-6.96,42.32s-8.28,12.85-10.91,12.85Z"/>
          <path class="cls-1" d="M192.89,122.41c-8.61,0-18.86,3.55-18.86,20.43,0,27.32,7.05,46.58,14.03,53.56,1.71,1.7,3.38,2.61,4.83,2.61,6.38-.01,18.87-16.97,18.87-56.17,0-16.88-10.26-20.43-18.87-20.43ZM192.89,198.01c-1.16,0-2.62-.83-4.12-2.32-6.84-6.83-13.74-25.82-13.74-52.85,0-12.89,6.01-19.43,17.86-19.43s17.87,6.54,17.87,19.43c0,19.64-3.15,33.44-6.96,42.32s-8.28,12.85-10.91,12.85Z"/>
        </g>
        <g>
          <path class="cls-2" d="M138.95,122.91c-5.69,0-10.83,1.37-14.56,4.86-3.73,3.48-6.03,9.07-6.03,17.49,0,41.01,13.67,62.43,20.59,62.41,6.77,0,20.59-18.71,20.59-62.41,0-16.85-9.22-22.35-20.59-22.35ZM138.95,207.17h0c-1.33,0-2.94-.9-4.65-2.61-7.68-7.67-15.43-28.98-15.43-59.3,0-14.5,6.76-21.85,20.09-21.85s20.09,7.35,20.09,21.85c0,22.05-3.54,37.53-7.83,47.49-4.28,9.97-9.31,14.42-12.26,14.42Z"/>
          <path class="cls-1" d="M138.95,122.41c-9.62,0-21.09,3.96-21.09,22.85,0,30.61,7.9,52.2,15.72,60,1.91,1.91,3.76,2.91,5.36,2.91h0c7.13,0,21.09-19,21.09-62.91,0-18.89-11.47-22.85-21.09-22.85ZM138.95,207.17h0c-1.33,0-2.94-.9-4.65-2.61-7.68-7.67-15.43-28.98-15.43-59.3,0-14.5,6.76-21.85,20.09-21.85s20.09,7.35,20.09,21.85c0,22.05-3.54,37.53-7.83,47.49-4.28,9.97-9.31,14.42-12.26,14.42Z"/>
        </g>
        <g>
          <path class="cls-2" d="M85.86,122.91c-5.3,0-10.09,1.28-13.56,4.52-3.47,3.24-5.62,8.45-5.62,16.29,0,38.18,12.72,58.13,19.18,58.13s19.18-17.43,19.18-58.13c0-15.69-8.59-20.81-19.18-20.81ZM85.86,201.35h-.01c-1.23,0-2.72-.84-4.31-2.43-7.15-7.13-14.36-26.97-14.36-55.2,0-13.48,6.29-20.31,18.68-20.31s18.68,6.83,18.68,20.31c0,20.52-3.3,34.93-7.28,44.21-3.98,9.27-8.65,13.42-11.4,13.42Z"/>
          <path class="cls-1" d="M85.86,122.41c-8.98,0-19.68,3.7-19.68,21.31,0,28.52,7.36,48.63,14.65,55.91,1.79,1.78,3.52,2.72,5.02,2.72h.01c6.65,0,19.68-17.71,19.68-58.63,0-17.61-10.7-21.31-19.68-21.31ZM85.86,201.35h-.01c-1.23,0-2.72-.84-4.31-2.43-7.15-7.13-14.36-26.97-14.36-55.2,0-13.48,6.29-20.31,18.68-20.31s18.68,6.83,18.68,20.31c0,20.52-3.3,34.93-7.28,44.21-3.98,9.27-8.65,13.42-11.4,13.42Z"/>
        </g>
        <g>
          <path class="cls-2" d="M37.28,122.91c-4.18,0-7.97,1.01-10.71,3.57-2.74,2.56-4.44,6.68-4.44,12.87,0,30.17,10.05,45.93,15.15,45.93s15.15-13.77,15.15-45.93c0-12.39-6.78-16.44-15.15-16.44ZM37.28,184.78c-.93,0-2.12-.67-3.33-1.89-5.64-5.62-11.32-21.26-11.32-43.54,0-10.58,4.93-15.94,14.65-15.94s14.65,5.36,14.65,15.94c0,16.18-2.58,27.54-5.71,34.85-3.12,7.31-6.78,10.58-8.94,10.58Z"/>
          <path class="cls-1" d="M37.28,122.41c-7.14,0-15.65,2.94-15.65,16.94,0,22.57,5.83,38.48,11.61,44.25,1.43,1.42,2.82,2.18,4.04,2.18,5.29,0,15.65-14.02,15.65-46.43,0-14-8.51-16.94-15.65-16.94ZM37.28,184.78c-.93,0-2.12-.67-3.33-1.89-5.64-5.62-11.32-21.26-11.32-43.54,0-10.58,4.93-15.94,14.65-15.94s14.65,5.36,14.65,15.94c0,16.18-2.58,27.54-5.71,34.85-3.12,7.31-6.78,10.58-8.94,10.58Z"/>
        </g>
      </g>
    </g>
  </g>
</svg>