<?xml version="1.0" encoding="UTF-8"?>
<svg id="Calque_2" data-name="Calque 2" xmlns="http://www.w3.org/2000/svg" viewBox="0 0 288.82 220.71">
  <defs>
    <style>
      .cls-1 {
        fill: #1d1d1b;
      }

      .cls-2 {
        fill: #fff;
      }
    </style>
  </defs>
  <g id="Calque_1-2" data-name="Calque 1">
    <g>
      <path class="cls-2" d="M0,0v220.71h288.82V0H0ZM267,146.99c-.01.31-.01.63-.02.95-.01.3-.02.61-.03.92-.77,19.66-7.01,53.96-7.45,58.24h-25.15c-.43-4.2-6.44-37.26-7.4-57.07-.01-.31-.03-.62-.04-.93-.01-.34-.02-.68-.03-1.01,0-.38-.02-.74-.03-1.1-.01-.62-.02-1.23-.02-1.81,0-5.57,2.84-11.79,7.31-16.16,3.47-3.4,7.92-5.68,12.79-5.68,6.57,0,12.39,4.17,16.04,9.61,2.55,3.78,4.05,8.18,4.05,12.23,0,.58-.01,1.19-.02,1.81ZM267.01,30.45c0,.67-.02,1.36-.05,2.09-.62,14.52-5.58,39.82-5.96,43.35h-19.11c-.39-3.58-5.5-29.65-5.98-44.05-.01-.47-.02-.94-.03-1.39,0-.23,0-.44,0-.66,0-7.33,6.94-16.18,15.57-16.18s15.58,8.85,15.58,16.18c0,.22,0,.43-.01.66ZM222.58,36.72c-.7,18.41-8.15,52.77-8.56,55.78h-22.3c-.42-3.01-7.87-37.37-8.57-55.78-.03-.9-.05-1.77-.05-2.59,0-9.29,8.82-20.52,19.77-20.52s19.76,11.23,19.76,20.52c0,.82-.02,1.69-.05,2.59ZM211.88,144.61c-.43,17.31-7.22,49.98-7.66,54.14h-22.47c-.41-4.04-6.82-34.84-7.61-52.49-.01-.28-.02-.56-.03-.83-.01-.28-.01-.55-.02-.82-.01-.56-.02-1.1-.02-1.63,0-3.08,1.01-6.38,2.77-9.38,3.32-5.67,9.3-10.26,16.15-10.26,5.67,0,10.74,3.15,14.2,7.45,2.93,3.64,4.71,8.11,4.71,12.19,0,.53-.01,1.07-.02,1.63ZM169.85,37.26c-.01.32-.02.65-.02.99,0,.34-.02.68-.03,1.02-.02.36-.03.72-.05,1.09-.02.31-.03.63-.05.95-1.16,20.14-7.25,53.39-7.66,56.22h-24.52c-.46-3.03-7.39-40.91-7.82-60.27-.01-.62-.02-1.23-.02-1.81,0-9.89,8.97-21.84,20.09-21.84s20.1,11.95,20.1,21.84c0,.58-.01,1.19-.02,1.81ZM159.12,146.99c-.43,19.36-7.36,57.23-7.81,60.26h-24.52c-.42-2.84-6.51-36.07-7.67-56.21-.02-.32-.03-.64-.05-.95-.02-.37-.03-.73-.05-1.09,0-.34-.02-.68-.03-1.02,0-.34-.01-.67-.02-.99-.01-.62-.02-1.23-.02-1.81,0-3.37,1.04-6.98,2.85-10.27,3.51-6.37,9.91-11.57,17.25-11.57s13.3,4.85,16.87,10.93c2.04,3.46,3.22,7.32,3.22,10.91,0,.58-.01,1.19-.02,1.81ZM114.73,34.88c-.01.27-.01.54-.02.82,0,.27-.02.55-.03.83-.79,17.65-7.19,48.45-7.61,52.49h-22.47c-.43-4.16-7.23-36.83-7.66-54.14-.01-.56-.02-1.1-.02-1.63,0-8.9,8.44-19.64,18.91-19.64s18.92,10.74,18.92,19.64c0,.53-.01,1.07-.02,1.63ZM105.67,146.45c-.7,18.41-8.15,52.76-8.56,55.78h-22.3c-.42-3.02-7.87-37.37-8.57-55.78-.03-.9-.05-1.77-.05-2.59,0-2.03.42-4.15,1.19-6.22,2.76-7.43,10.02-14.3,18.57-14.3,7.79,0,14.5,5.68,17.72,12.3,1.32,2.69,2.05,5.53,2.05,8.22,0,.82-.02,1.69-.05,2.59ZM61.97,37.26c-.01.36-.02.72-.03,1.1-.01.36-.03.73-.04,1.11-.03.62-.06,1.25-.09,1.89-1.11,19.9-6.9,51.88-7.34,56.01h-25.15c-.44-4.28-6.68-38.58-7.45-58.24-.01-.31-.02-.62-.03-.92-.01-.32-.01-.64-.02-.95-.01-.62-.02-1.23-.02-1.81,0-9.89,8.96-21.84,20.09-21.84s20.1,11.95,20.1,21.84c0,.58-.01,1.19-.02,1.81ZM27.83,185.61c-.38-3.52-5.35-28.85-5.97-43.37-.01-.24-.02-.48-.03-.71-.02-.7-.03-1.37-.03-2.01,0-7.33,6.95-16.18,15.58-16.18s14.95,8.08,15.52,15.19c.04.33.05.66.05.99,0,.22,0,.43-.01.66-.01.45-.02.92-.03,1.39-.47,14.4-5.58,40.47-5.97,44.04h-19.11Z"/>
      <g>
        <g>
          <path class="cls-1" d="M95.83,12.61c-11.03,0-19.91,11.29-19.91,20.64,0,17.61,7.65,54.77,7.92,56.28.01.03.01.04.01.05l.05.44h23.88l.05-.44s0-.02.01-.05c.27-1.51,7.91-38.67,7.91-56.28,0-9.35-8.88-20.64-19.92-20.64ZM114.71,35.7c0,.27-.02.55-.03.83-.79,17.65-7.19,48.45-7.61,52.49h-22.47c-.43-4.16-7.23-36.83-7.66-54.14-.01-.56-.02-1.1-.02-1.63,0-8.9,8.44-19.64,18.91-19.64s18.92,10.74,18.92,19.64c0,.53-.01,1.07-.02,1.63-.01.27-.01.54-.02.82Z"/>
          <path class="cls-1" d="M149.77,12.61c-11.68,0-21.09,12.5-21.09,22.84,0,19.53,7.77,60.85,8.05,62.42.01.02.01.04.01.04l.04.3h26l.04-.3s0-.02,0-.04c0-.02.01-.06.02-.1.5-2.76,8.02-43.1,8.02-62.32,0-10.34-9.41-22.84-21.1-22.84ZM169.83,38.25c0,.34-.02.68-.03,1.02-.02.36-.03.72-.05,1.09-.02.31-.03.63-.05.95-1.16,20.14-7.25,53.39-7.66,56.22h-24.52c-.46-3.03-7.39-40.91-7.82-60.27-.01-.62-.02-1.23-.02-1.81,0-9.89,8.97-21.84,20.09-21.84s20.1,11.95,20.1,21.84c0,.58-.01,1.19-.02,1.81-.01.32-.02.65-.02.99Z"/>
          <path class="cls-1" d="M202.87,12.61c-11.51,0-20.77,11.77-20.77,21.52,0,18.38,8.59,57.25,8.89,58.73.01.02.01.04.01.04l.15.44,23.54-.12.04-.32s0-.02.01-.04c0-.02.01-.06.02-.1.01-.04.02-.09.03-.15.78-3.62,8.84-40.67,8.84-58.48,0-9.75-9.26-21.52-20.76-21.52ZM214.02,92.5h-22.3c-.42-3.01-7.87-37.37-8.57-55.78-.03-.9-.05-1.77-.05-2.59,0-9.29,8.82-20.52,19.77-20.52s19.76,11.23,19.76,20.52c0,.82-.02,1.69-.05,2.59-.7,18.41-8.15,52.77-8.56,55.78Z"/>
          <path class="cls-1" d="M251.44,12.61c-9.18,0-16.57,9.4-16.57,17.18,0,14.12,5.64,43.42,6.2,46.4.02.15.04.24.04.25l.05.42h20.57l.05-.42s0-.01.01-.02c0-.04.02-.13.04-.27.01-.05.02-.11.03-.17.74-3.96,6.16-32.36,6.16-46.19,0-7.78-7.4-17.18-16.58-17.18ZM266.96,32.54c-.62,14.52-5.58,39.82-5.96,43.35h-19.11c-.39-3.58-5.5-29.65-5.98-44.05-.01-.47-.02-.94-.03-1.39,0-.23,0-.44,0-.66,0-7.33,6.94-16.18,15.57-16.18s15.58,8.85,15.58,16.18c0,.22,0,.43-.01.66,0,.67-.02,1.36-.05,2.09Z"/>
          <path class="cls-1" d="M41.89,12.61c-11.68,0-21.09,12.5-21.09,22.84,0,19.22,7.21,59.47,7.7,62.32.01.05.02.08.02.11.01.03.01.04.01.05l.04.44h26.66l.02-.17.02-.27s.03-.17.07-.43c.01-.04.02-.08.02-.12.88-5.06,7.63-43.33,7.63-61.93,0-10.34-9.41-22.84-21.1-22.84ZM61.94,38.36c-.01.36-.03.73-.04,1.11-.03.62-.06,1.25-.09,1.89-1.11,19.9-6.9,51.88-7.34,56.01h-25.15c-.44-4.28-6.68-38.58-7.45-58.24-.01-.31-.02-.62-.03-.92-.01-.32-.01-.64-.02-.95-.01-.62-.02-1.23-.02-1.81,0-9.89,8.96-21.84,20.09-21.84s20.1,11.95,20.1,21.84c0,.58-.01,1.19-.02,1.81-.01.36-.02.72-.03,1.1Z"/>
        </g>
        <g>
          <path class="cls-2" d="M27.09,186.58h20.57l.05-.42-20.62.42ZM52.91,141.57c-.4,14.15-4.57,39.89-5.16,44.35.56-2.99,6.2-32.28,6.2-46.4,0-.35-.02-.71-.05-1.07-.62-7.54-7.76-16.11-16.52-16.11s-16.58,9.4-16.58,17.18c0,.9.02,1.87.07,2.88.63,14.79,5.56,40.46,6.12,43.47-.78-5.49-4.64-29.75-5.14-43.63-.01-.24-.01-.48-.02-.71-.02-.7-.03-1.37-.03-2.01,0-7.33,6.95-16.18,15.58-16.18s14.95,8.08,15.52,15.19c.04.33.05.66.05.99,0,.22,0,.43-.01.66-.01.45-.02.92-.03,1.39ZM74.14,202.95l23.54.12.14-.44-23.68.32ZM97.83,202.59c.3-1.49,8.89-40.35,8.89-58.73,0-2.7-.71-5.55-1.98-8.27-3.32-7.1-10.47-13.25-18.79-13.25-9.13,0-16.85,7.42-19.64,15.36-.73,2.06-1.12,4.15-1.12,6.16,0,18.09,8.32,56.03,8.87,58.63-.86-5.76-7.2-38.22-7.82-56.04-.03-.9-.05-1.77-.05-2.59,0-2.03.42-4.15,1.19-6.22,2.76-7.43,10.02-14.3,18.57-14.3,7.79,0,14.5,5.68,17.72,12.3,1.32,2.69,2.05,5.53,2.05,8.22,0,.82-.02,1.69-.05,2.59-.62,18.29-7.27,51.79-7.84,56.14ZM126.05,207.94h26l.04-.3-26.04.3ZM152.1,207.6c.28-1.57,8.04-42.89,8.04-62.42,0-3.59-1.13-7.44-3.1-10.93-3.71-6.58-10.36-11.91-17.99-11.91s-14.76,5.71-18.37,12.61c-1.74,3.3-2.73,6.88-2.73,10.23,0,19.22,7.53,59.56,8.03,62.32-.75-5.59-5.87-37.01-6.86-56.46-.02-.32-.03-.64-.05-.95-.02-.37-.03-.73-.05-1.09,0-.34-.02-.68-.03-1.02,0-.34-.01-.67-.02-.99-.01-.62-.02-1.23-.02-1.81,0-3.37,1.04-6.98,2.85-10.27,3.51-6.37,9.91-11.57,17.25-11.57s13.3,4.85,16.87,10.93c2.04,3.46,3.22,7.32,3.22,10.91,0,.58-.01,1.19-.02,1.81-.38,19.24-6.45,56.03-7.02,60.61ZM181,199.31l.05.44h23.88l.05-.44h-23.98ZM204.99,199.26c.27-1.51,7.91-38.67,7.91-56.28,0-4.1-1.71-8.58-4.57-12.32-3.64-4.77-9.15-8.32-15.34-8.32-7.43,0-13.88,5.11-17.3,11.31-1.67,3.01-2.62,6.28-2.62,9.33,0,17.61,7.65,54.77,7.92,56.28-.55-4.21-6.17-35.35-6.85-53-.01-.28-.02-.56-.03-.83-.01-.28-.01-.55-.02-.82-.01-.56-.02-1.1-.02-1.63,0-3.08,1.01-6.38,2.77-9.38,3.32-5.67,9.3-10.26,16.15-10.26,5.67,0,10.74,3.15,14.2,7.45,2.93,3.64,4.71,8.11,4.71,12.19,0,.53-.01,1.07-.02,1.63-.37,17.27-6.32,50.3-6.89,54.65ZM233.6,208.1h26.66l.04-.44-26.7.44ZM266.98,147.94c-.01.3-.02.61-.03.92-.66,19.51-6.01,53.76-6.62,58.64.49-2.85,7.69-43.1,7.69-62.32,0-3.91-1.35-8.13-3.65-11.87-3.8-6.14-10.18-10.97-17.44-10.97-5.46,0-10.41,2.72-14.14,6.67-4.28,4.52-6.96,10.65-6.96,16.17,0,18.6,6.75,56.87,7.64,61.93-.96-6.99-5.73-38.26-6.52-57.08-.01-.31-.03-.62-.04-.93-.01-.34-.02-.68-.03-1.01,0-.38-.02-.74-.03-1.1-.01-.62-.02-1.23-.02-1.81,0-5.57,2.84-11.79,7.31-16.16,3.47-3.4,7.92-5.68,12.79-5.68,6.57,0,12.39,4.17,16.04,9.61,2.55,3.78,4.05,8.18,4.05,12.23,0,.58-.01,1.19-.02,1.81-.01.31-.01.63-.02.95Z"/>
          <g>
            <path class="cls-1" d="M208.33,130.66c-3.64-4.77-9.15-8.32-15.34-8.32-7.43,0-13.88,5.11-17.3,11.31-1.67,3.01-2.62,6.28-2.62,9.33,0,17.61,7.65,54.77,7.92,56.28.01.03.01.04.01.05l.05.44h23.88l.05-.44s0-.02.01-.05c.27-1.51,7.91-38.67,7.91-56.28,0-4.1-1.71-8.58-4.57-12.32ZM204.22,198.75h-22.47c-.41-4.04-6.82-34.84-7.61-52.49-.01-.28-.02-.56-.03-.83-.01-.28-.01-.55-.02-.82-.01-.56-.02-1.1-.02-1.63,0-3.08,1.01-6.38,2.77-9.38,3.32-5.67,9.3-10.26,16.15-10.26,5.67,0,10.74,3.15,14.2,7.45,2.93,3.64,4.71,8.11,4.71,12.19,0,.53-.01,1.07-.02,1.63-.43,17.31-7.22,49.98-7.66,54.14Z"/>
            <path class="cls-1" d="M157.04,134.25c-3.71-6.58-10.36-11.91-17.99-11.91s-14.76,5.71-18.37,12.61c-1.74,3.3-2.73,6.88-2.73,10.23,0,19.22,7.53,59.56,8.03,62.32.01.04.02.08.02.1.01.02.01.04.01.04l.04.3h26l.04-.3s0-.02.01-.04c.28-1.57,8.04-42.89,8.04-62.42,0-3.59-1.13-7.44-3.1-10.93ZM151.31,207.25h-24.52c-.42-2.84-6.51-36.07-7.67-56.21-.02-.32-.03-.64-.05-.95-.02-.37-.03-.73-.05-1.09,0-.34-.02-.68-.03-1.02,0-.34-.01-.67-.02-.99-.01-.62-.02-1.23-.02-1.81,0-3.37,1.04-6.98,2.85-10.27,3.51-6.37,9.91-11.57,17.25-11.57s13.3,4.85,16.87,10.93c2.04,3.46,3.22,7.32,3.22,10.91,0,.58-.01,1.19-.02,1.81-.43,19.36-7.36,57.23-7.81,60.26Z"/>
            <path class="cls-1" d="M104.74,135.59c-3.32-7.1-10.47-13.25-18.79-13.25-9.13,0-16.85,7.42-19.64,15.36-.73,2.06-1.12,4.15-1.12,6.16,0,18.09,8.32,56.03,8.87,58.63.01.04.02.08.02.1.01.02.01.04.01.04l.05.32,23.54.12.14-.44s0-.02,0-.04c.3-1.49,8.89-40.35,8.89-58.73,0-2.7-.71-5.55-1.98-8.27ZM97.11,202.23h-22.3c-.42-3.02-7.87-37.37-8.57-55.78-.03-.9-.05-1.77-.05-2.59,0-2.03.42-4.15,1.19-6.22,2.76-7.43,10.02-14.3,18.57-14.3,7.79,0,14.5,5.68,17.72,12.3,1.32,2.69,2.05,5.53,2.05,8.22,0,.82-.02,1.69-.05,2.59-.7,18.41-8.15,52.76-8.56,55.78Z"/>
            <path class="cls-1" d="M53.9,138.45c-.62-7.54-7.76-16.11-16.52-16.11s-16.58,9.4-16.58,17.18c0,.9.02,1.87.07,2.88.63,14.79,5.56,40.46,6.12,43.47.02.14.04.23.04.27.01.01.01.02.01.02l.05.42h20.57l.05-.42s.02-.1.04-.24c.56-2.99,6.2-32.28,6.2-46.4,0-.35-.02-.71-.05-1.07ZM52.94,140.18c-.01.45-.02.92-.03,1.39-.47,14.4-5.58,40.47-5.97,44.04h-19.11c-.38-3.52-5.35-28.85-5.97-43.37-.01-.24-.02-.48-.03-.71-.02-.7-.03-1.37-.03-2.01,0-7.33,6.95-16.18,15.58-16.18s14.95,8.08,15.52,15.19c.04.33.05.66.05.99,0,.22,0,.43-.01.66Z"/>
            <path class="cls-1" d="M264.37,133.31c-3.8-6.14-10.18-10.97-17.44-10.97-5.46,0-10.41,2.72-14.14,6.67-4.28,4.52-6.96,10.65-6.96,16.17,0,18.6,6.75,56.87,7.64,61.93,0,.04.01.08.02.12.04.26.07.41.07.43l.02.27.02.17h26.66l.04-.44s0-.02.01-.05c0-.03,0-.06.02-.11.49-2.85,7.69-43.1,7.69-62.32,0-3.91-1.35-8.13-3.65-11.87ZM266.98,147.94c-.01.3-.02.61-.03.92-.77,19.66-7.01,53.96-7.45,58.24h-25.15c-.43-4.2-6.44-37.26-7.4-57.07-.01-.31-.03-.62-.04-.93-.01-.34-.02-.68-.03-1.01,0-.38-.02-.74-.03-1.1-.01-.62-.02-1.23-.02-1.81,0-5.57,2.84-11.79,7.31-16.16,3.47-3.4,7.92-5.68,12.79-5.68,6.57,0,12.39,4.17,16.04,9.61,2.55,3.78,4.05,8.18,4.05,12.23,0,.58-.01,1.19-.02,1.81-.01.31-.01.63-.02.95Z"/>
          </g>
        </g>
      </g>
    </g>
  </g>
</svg>