<?xml version="1.0" encoding="UTF-8"?>
<svg id="Calque_2" data-name="Calque 2" xmlns="http://www.w3.org/2000/svg" viewBox="0 0 288.82 220.71">
  <defs>
    <style>
      .cls-1 {
        fill: #1d1d1b;
      }

      .cls-2 {
        fill: #fff;
      }
    </style>
  </defs>
  <g id="Calque_1-2" data-name="Calque 1">
    <g>
      <path class="cls-2" d="M0,0v220.71h288.82V0H0ZM230.83,206.49c-.22-4.71-2.03-43.08-2.03-61.65,0-9.86,8.97-21.76,20.1-21.76s20.09,11.9,20.09,21.76c0,18.57-1.8,56.94-2.03,61.65h-36.13ZM267.47,75.74h-26.96c-.19-4.03-1.52-32.45-1.52-46.28,0-7.36,6.69-16.25,15-16.25s15,8.89,15,16.25c0,13.83-1.33,42.25-1.52,46.28ZM173.95,198.82c-.21-4.48-1.84-39.18-1.84-56.01,0-8.94,8.13-19.73,18.22-19.73s18.22,10.79,18.22,19.73c0,16.83-1.63,51.53-1.84,56.01h-32.76ZM118.21,207.5c-.22-4.75-2.05-43.6-2.05-62.4,0-9.97,9.07-22.02,20.34-22.02s20.34,12.05,20.34,22.02c0,18.8-1.83,57.65-2.05,62.4h-36.58ZM66.32,202.03c-.22-4.58-1.92-40.81-1.92-58.37,0-9.32,8.48-20.58,19.01-20.58s19,11.26,19,20.58c0,17.56-1.7,53.79-1.92,58.37h-34.17ZM98.49,13.21c10.09,0,18.22,10.79,18.22,19.73,0,16.83-1.63,51.53-1.84,56.01h-32.76c-.21-4.48-1.84-39.18-1.84-56.01,0-8.94,8.13-19.73,18.22-19.73ZM152.32,13.21c11.27,0,20.34,12.05,20.34,22.02,0,18.8-1.82,57.65-2.05,62.4h-36.57c-.23-4.75-2.05-43.6-2.05-62.4,0-9.97,9.07-22.02,20.33-22.02ZM188.33,92.16c-.22-4.58-1.92-40.81-1.92-58.37,0-9.32,8.48-20.58,19-20.58s19.01,11.26,19.01,20.58c0,17.56-1.7,53.79-1.92,58.37h-34.17ZM21.35,185.61c-.19-4.03-1.51-32.45-1.51-46.28,0-7.36,6.68-16.25,14.99-16.25s15,8.89,15,16.25c0,13.83-1.33,42.25-1.52,46.28h-26.96ZM21.86,96.62c-.22-4.71-2.02-43.08-2.02-61.65,0-9.86,8.96-21.76,20.09-21.76s20.09,11.9,20.09,21.76c0,18.57-1.8,56.94-2.03,61.65H21.86Z"/>
      <g>
        <g>
          <path class="cls-1" d="M39.93,12.21c-11.69,0-21.09,12.45-21.09,22.76,0,19.73,2.03,61.76,2.05,62.18l.02.47h38.03l.03-.47c.02-.42,2.05-42.45,2.05-62.18,0-10.31-9.41-22.76-21.09-22.76ZM57.99,96.62H21.86c-.22-4.71-2.02-43.08-2.02-61.65,0-9.86,8.96-21.76,20.09-21.76s20.09,11.9,20.09,21.76c0,18.57-1.8,56.94-2.03,61.65Z"/>
          <path class="cls-1" d="M98.49,12.21c-10.65,0-19.22,11.34-19.22,20.73,0,17.94,1.85,56.15,1.87,56.53l.02.48h34.66l.02-.48c.02-.38,1.87-38.59,1.87-56.53,0-9.39-8.57-20.73-19.22-20.73ZM114.87,88.95h-32.76c-.21-4.48-1.84-39.18-1.84-56.01,0-8.94,8.13-19.73,18.22-19.73s18.22,10.79,18.22,19.73c0,16.83-1.63,51.53-1.84,56.01Z"/>
          <path class="cls-1" d="M152.32,12.21c-11.82,0-21.33,12.59-21.33,23.02,0,19.97,2.05,62.5,2.07,62.93l.02.47h38.48l.03-.47c.02-.43,2.07-42.96,2.07-62.93,0-10.43-9.52-23.02-21.34-23.02ZM170.61,97.63h-36.57c-.23-4.75-2.05-43.6-2.05-62.4,0-9.97,9.07-22.02,20.33-22.02s20.34,12.05,20.34,22.02c0,18.8-1.82,57.65-2.05,62.4Z"/>
          <path class="cls-1" d="M205.41,12.21c-11.08,0-20,11.81-20,21.58,0,18.69,1.92,58.5,1.94,58.9l.03.47h36.07l.03-.47c.01-.4,1.94-40.21,1.94-58.9,0-9.77-8.93-21.58-20.01-21.58ZM222.5,92.16h-34.17c-.22-4.58-1.92-40.81-1.92-58.37,0-9.32,8.48-20.58,19-20.58s19.01,11.26,19.01,20.58c0,17.56-1.7,53.79-1.92,58.37Z"/>
          <path class="cls-1" d="M253.99,12.21c-8.86,0-16,9.44-16,17.25,0,14.85,1.53,46.49,1.55,46.8l.02.48h28.86l.02-.48c.02-.31,1.55-31.95,1.55-46.8,0-7.81-7.14-17.25-16-17.25ZM267.47,75.74h-26.96c-.19-4.03-1.52-32.45-1.52-46.28,0-7.36,6.69-16.25,15-16.25s15,8.89,15,16.25c0,13.83-1.33,42.25-1.52,46.28Z"/>
        </g>
        <g>
          <path class="cls-1" d="M248.9,122.08c-11.69,0-21.1,12.45-21.1,22.76,0,19.73,2.03,61.76,2.05,62.18l.03.47h38.03l.03-.47c.02-.42,2.05-42.45,2.05-62.18,0-10.31-9.41-22.76-21.09-22.76ZM266.96,206.49h-36.13c-.22-4.71-2.03-43.08-2.03-61.65,0-9.86,8.97-21.76,20.1-21.76s20.09,11.9,20.09,21.76c0,18.57-1.8,56.94-2.03,61.65Z"/>
          <path class="cls-1" d="M190.33,122.08c-10.64,0-19.22,11.34-19.22,20.73,0,17.94,1.85,56.15,1.87,56.53l.02.48h34.66l.03-.48c.02-.38,1.86-38.59,1.86-56.53,0-9.39-8.57-20.73-19.22-20.73ZM206.71,198.82h-32.76c-.21-4.48-1.84-39.18-1.84-56.01,0-8.94,8.13-19.73,18.22-19.73s18.22,10.79,18.22,19.73c0,16.83-1.63,51.53-1.84,56.01Z"/>
          <path class="cls-1" d="M136.5,122.08c-11.82,0-21.34,12.59-21.34,23.02,0,19.97,2.06,62.5,2.08,62.93l.02.47h38.48l.02-.47c.02-.43,2.08-42.96,2.08-62.93,0-10.43-9.52-23.02-21.34-23.02ZM154.79,207.5h-36.58c-.22-4.75-2.05-43.6-2.05-62.4,0-9.97,9.07-22.02,20.34-22.02s20.34,12.05,20.34,22.02c0,18.8-1.83,57.65-2.05,62.4Z"/>
          <path class="cls-1" d="M83.41,122.08c-11.08,0-20.01,11.81-20.01,21.58,0,18.69,1.93,58.5,1.95,58.9l.02.47h36.08l.02-.47c.02-.4,1.94-40.21,1.94-58.9,0-9.77-8.92-21.58-20-21.58ZM100.49,202.03h-34.17c-.22-4.58-1.92-40.81-1.92-58.37,0-9.32,8.48-20.58,19.01-20.58s19,11.26,19,20.58c0,17.56-1.7,53.79-1.92,58.37Z"/>
          <path class="cls-1" d="M34.83,122.08c-8.86,0-15.99,9.44-15.99,17.25,0,14.85,1.52,46.49,1.54,46.8l.02.48h28.86l.03-.48c.01-.31,1.54-31.95,1.54-46.8,0-7.81-7.14-17.25-16-17.25ZM48.31,185.61h-26.96c-.19-4.03-1.51-32.45-1.51-46.28,0-7.36,6.68-16.25,14.99-16.25s15,8.89,15,16.25c0,13.83-1.33,42.25-1.52,46.28Z"/>
        </g>
      </g>
    </g>
  </g>
</svg>