<?xml version="1.0" encoding="UTF-8"?>
<svg id="Calque_2" data-name="Calque 2" xmlns="http://www.w3.org/2000/svg" viewBox="0 0 288.82 220.71">
  <defs>
    <style>
      .cls-1 {
        fill: #1d1d1b;
      }

      .cls-2 {
        fill: #fff;
      }

      .cls-3 {
        fill: none;
      }
    </style>
  </defs>
  <g id="Calque_1-2" data-name="Calque 1">
    <g>
      <path class="cls-2" d="M0,0v220.71h288.82V0H0ZM52.1,149.58s0,.09-.01.13c-.41,3.91-1.05,7.48-1.83,10.72-3.42,14.16-9.6,22.13-12.07,24.53-.32.31-.58.53-.76.65-.17.12-.27.16-.3.13h-.01s-.15-.02-.34-.17h-.01c-.21-.17-.52-.46-.9-.86-2.26-2.44-7.14-9.18-10.56-20.34-.83-2.7-1.57-5.66-2.16-8.88-.88-4.75-1.45-10.07-1.52-15.96-.16-13.88,8.42-16.79,15.5-16.79s15.49,2.91,15.49,16.79c0,3.57-.18,6.92-.52,10.05ZM42.73,97.96h-.01c-.61.65-21.09-19-21.09-62.91,0-18.89,11.47-22.85,21.09-22.85s21.32,3.96,21.1,22.85c-.5,42.94-20.47,63.54-21.09,62.91ZM103.84,164.32s-.02.06-.02.1c-.58,3.24-1.27,6.27-2.04,9.08-4.21,15.3-10.86,24.34-14.07,27.69-.34.35-.64.65-.89.87-.54.49-.88.69-.95.62h-.01c-.07.07-.38-.13-.88-.6-.23-.23-.51-.51-.82-.85-3.2-3.49-10.12-13.26-14.37-29.5-.84-3.18-1.57-6.61-2.15-10.29-.83-5.28-1.36-11.07-1.43-17.39-.21-17.61,10.69-21.3,19.66-21.3s19.66,3.69,19.66,21.3c0,7.51-.64,14.26-1.69,20.27ZM113.67,46.52c-.5,3.85-1.18,7.44-1.99,10.75t-.01.02c-4.14,17.15-11.5,27.15-14.47,30.22-.31.33-.57.58-.78.74-.27.24-.44.33-.49.28-.05.05-.24-.04-.55-.29-.22-.17-.5-.42-.83-.75h-.01c-2.99-2.97-10.06-12.19-14.18-28.37-.01-.01-.01-.02,0-.03-.78-3.01-1.44-6.27-1.96-9.77v-.03c-.74-5.01-1.18-10.53-1.18-16.57,0-16.76,10.17-20.27,18.71-20.27s18.91,3.51,18.71,20.27c-.06,4.93-.4,9.53-.97,13.8ZM158.3,166.9c-.56,3.34-1.25,6.46-2.02,9.37-4.55,17.16-11.99,27.18-15.46,30.75,0,.01-.01.01-.01.01-.33.35-.64.64-.89.87-.55.48-.89.68-.96.6h-.01c-.07.07-.38-.13-.89-.6-.22-.21-.49-.47-.79-.79-3.41-3.66-11.22-14.53-15.82-32.82-.82-3.23-1.53-6.69-2.11-10.39,0-.02,0-.04-.01-.07-.86-5.55-1.39-11.63-1.47-18.24-.22-18.88,11.47-22.85,21.1-22.85s21.09,3.96,21.09,22.85c0,7.88-.66,14.98-1.75,21.31ZM169.5,53.28s-.01.06-.01.09c-.58,3.69-1.29,7.15-2.11,10.37-4.6,18.29-12.41,29.16-15.82,32.82-.3.32-.56.58-.78.79-.51.47-.83.67-.9.6h-.01c-.07.08-.41-.12-.96-.6-.25-.23-.56-.52-.89-.87,0,0,0,0,0,0-3.47-3.57-10.92-13.6-15.46-30.77-.77-2.92-1.46-6.04-2.03-9.38-1.08-6.33-1.74-13.41-1.74-21.28,0-18.89,11.47-22.85,21.09-22.85s21.32,3.96,21.1,22.85c-.08,6.61-.61,12.69-1.47,18.24ZM210.43,159.83s0,.05-.01.07c-.51,3.49-1.17,6.73-1.95,9.74.01.01.01.02,0,.03-4.12,16.18-11.19,25.4-14.18,28.36h-.01c-.33.34-.61.59-.83.76-.31.25-.5.34-.55.29-.05.05-.22-.04-.49-.28-.21-.16-.47-.41-.78-.74-2.96-3.06-10.27-12.99-14.43-30.02,0-.02,0-.04,0-.06-.83-3.36-1.52-7-2.03-10.91-.57-4.27-.91-8.87-.97-13.8-.2-16.75,10.17-20.27,18.71-20.27s18.71,3.51,18.71,20.27c0,6.03-.44,11.55-1.18,16.56ZM221.19,50.89c-.58,3.67-1.31,7.1-2.14,10.27-4.27,16.27-11.2,26.05-14.4,29.53-.31.34-.59.62-.82.84-.5.47-.8.67-.87.6h-.01c-.07.07-.4-.13-.94-.62-.26-.23-.56-.52-.9-.88-3.22-3.37-9.89-12.45-14.09-27.81-.78-2.82-1.46-5.86-2.04-9.11-1.04-6-1.68-12.73-1.68-20.22,0-17.6,10.69-21.29,19.65-21.29s19.88,3.69,19.67,21.29c-.07,6.32-.6,12.12-1.43,17.4ZM246.11,208.51h-.01c-.62.63-20.59-19.97-21.09-62.91-.22-18.89,11.47-22.85,21.1-22.85s21.09,3.96,21.09,22.85c0,43.91-20.48,63.56-21.09,62.91ZM265.68,44.94c-.59,3.22-1.33,6.18-2.16,8.88-3.42,11.16-8.3,17.9-10.56,20.34-.38.4-.69.69-.9.86h-.01c-.19.15-.31.21-.34.17h-.01s-.14-.01-.3-.13c-.18-.12-.44-.34-.76-.65-2.47-2.4-8.62-10.32-12.04-24.4-.8-3.29-1.45-6.92-1.86-10.89-.01-.03-.01-.05-.01-.08-.34-3.14-.52-6.49-.52-10.06,0-13.88,8.42-16.79,15.49-16.79s15.66,2.91,15.5,16.79c-.07,5.89-.64,11.21-1.52,15.96Z"/>
      <path class="cls-2" d="M37.13,122.74c-7.08,0-15.66,2.91-15.5,16.79.07,5.89.64,11.21,1.52,15.96.59,3.22,1.33,6.18,2.16,8.88,3.42,11.16,8.3,17.9,10.56,20.34.38.4.69.69.9.86h.01c.19.15.31.21.34.17h.01s.13-.01.3-.13c.18-.12.44-.34.76-.65,2.47-2.4,8.65-10.37,12.07-24.53.78-3.24,1.42-6.81,1.83-10.72.01-.04.01-.09.01-.13.34-3.13.52-6.48.52-10.05,0-13.88-8.43-16.79-15.49-16.79ZM37.13,185.01s-10.4-10.24-13.74-31.81c-.48-4.17-.75-8.68-.75-13.51,0-10.58,4.92-15.94,14.65-15.94,7.29,0,11.89,3.01,13.73,8.99.08.25.15.5.21.76.05.19.09.39.14.59.35,1.63.52,3.44.52,5.44,0,32.39-14.76,45.48-14.76,45.48Z"/>
      <path class="cls-2" d="M42.72,12.2c-9.62,0-21.09,3.96-21.09,22.85,0,43.91,20.48,63.56,21.09,62.91h.01c.62.63,20.59-19.97,21.09-62.91.22-18.89-11.47-22.85-21.1-22.85ZM22.95,44.7c-.04-.59-.08-1.18-.11-1.78-.1-1.88-.17-3.82-.2-5.82,0-.68,0-1.36,0-2.05,0-14.5,6.76-21.85,20.09-21.85s20.1,7.35,20.1,21.85c0,.48,0,.95-.01,1.42-.41,38.19-17.37,57.6-19.79,60.19t-.02.02c-.15.15-.23.23-.27.28h-.01s-17.14-15.2-19.77-52.26Z"/>
      <path class="cls-2" d="M85.87,122.75c-8.97,0-19.87,3.69-19.66,21.3.07,6.32.6,12.11,1.43,17.39.58,3.68,1.31,7.11,2.15,10.29,4.25,16.24,11.17,26.01,14.37,29.5.31.34.59.62.82.85.5.47.81.67.88.6h.01c.07.07.41-.13.95-.62.25-.22.55-.52.89-.87,3.21-3.35,9.86-12.39,14.07-27.69.77-2.81,1.46-5.84,2.04-9.08,0-.04,0-.07.02-.1,1.05-6.01,1.69-12.76,1.69-20.27,0-17.61-10.69-21.3-19.66-21.3ZM85.94,201.69h-.13c-1.1-1.12-16.48-17.38-18.46-50.52-.01-.12-.01-.23-.02-.35-.09-2.19-.14-4.45-.14-6.76,0-13.48,6.28-20.31,18.67-20.31s18.68,6.83,18.68,20.31c0,2.56-.05,5.03-.15,7.41-1.98,34.32-17.29,49.14-18.45,50.22Z"/>
      <path class="cls-2" d="M95.93,12.45c-8.54,0-18.71,3.51-18.71,20.27,0,6.04.44,11.56,1.18,16.57v.03c.52,3.5,1.18,6.76,1.96,9.77-.01,0-.01.02,0,.03,4.12,16.18,11.19,25.4,14.18,28.36h.01c.33.34.61.59.83.76.31.25.5.34.55.29.05.05.22-.04.49-.28.21-.16.47-.41.78-.74,2.97-3.07,10.33-13.07,14.47-30.22t.01-.02c.81-3.31,1.49-6.9,1.99-10.75.57-4.27.91-8.87.97-13.8.2-16.76-10.17-20.27-18.71-20.27ZM96.1,87.48c-.08.07-.14.13-.16.15h-.01s-15.68-13.89-17.64-47.85c-.03-.57-.06-1.14-.08-1.71-.03-.87-.06-1.75-.08-2.64-.01-.44-.02-.89-.02-1.35-.01-.45-.01-.9-.01-1.36,0-12.86,6-19.38,17.83-19.38s17.83,6.52,17.83,19.38c0,.42,0,.84-.01,1.26-.36,33.65-15.2,50.87-17.52,53.34-.01.02-.03.04-.04.05-.03.03-.06.07-.09.11Z"/>
      <path class="cls-2" d="M138.96,122.74c-9.63,0-21.32,3.97-21.1,22.85.08,6.61.61,12.69,1.47,18.24.01.03.01.05.01.07.58,3.7,1.29,7.16,2.11,10.39,4.6,18.29,12.41,29.16,15.82,32.82.3.32.57.58.79.79.51.47.82.67.89.6h.01c.07.08.41-.12.96-.6.25-.23.56-.52.89-.87,0,0,.01,0,.01-.01,3.47-3.57,10.91-13.59,15.46-30.75.77-2.91,1.46-6.03,2.02-9.37,1.09-6.33,1.75-13.43,1.75-21.31,0-18.89-11.47-22.85-21.09-22.85ZM138.95,207.5s-.12-.13-.27-.28l-.02-.02c-2.4-2.57-19.16-21.75-19.78-59.45-.01-.25-.01-.49-.01-.74-.01-.47-.01-.94-.01-1.42,0-.45.01-.9.02-1.34,0-.44.03-.87.06-1.29.03-.43.06-.85.1-1.26v-.03c.03-.28.06-.56.1-.84.02-.25.06-.5.1-.75.05-.38.11-.75.18-1.11.06-.33.12-.66.2-.98.04-.22.09-.43.15-.64.07-.32.16-.63.25-.93.05-.2.11-.4.18-.59.07-.23.14-.45.22-.66.02-.07.05-.13.08-.2.02-.05.03-.1.05-.15.05-.15.12-.3.18-.45.02-.03.03-.05.04-.08.01-.05.03-.09.05-.13.09-.24.2-.48.31-.71.13-.29.27-.57.42-.85,0,0,0-.02.01-.03.16-.3.33-.6.51-.88.15-.26.31-.5.48-.74.03-.05.06-.1.1-.14.15-.21.3-.42.46-.62.06-.09.13-.17.19-.25.4-.48.82-.94,1.26-1.36.08-.08.17-.16.25-.23.09-.09.18-.17.27-.25.11-.1.22-.2.34-.29.25-.21.5-.41.77-.59.03-.03.07-.06.1-.08.02-.02.04-.03.06-.04.05-.04.1-.07.15-.1.27-.19.55-.37.83-.53.34-.2.69-.39,1.05-.57.86-.44,1.78-.8,2.76-1.1.29-.09.58-.17.87-.25.11-.03.22-.05.33-.08.04-.01.07-.02.11-.03.04-.01.07-.02.11-.02.02-.01.04-.02.07-.02h.04c.07-.03.15-.04.22-.05.01,0,.02,0,.03,0,.15-.03.3-.06.46-.09.15-.04.31-.07.47-.09.09-.02.18-.04.27-.05.1-.02.21-.03.31-.05.02,0,.03-.01.05-.01h.03s.06-.01.09-.01c.07-.02.14-.02.21-.03.02-.01.05-.01.08-.01.02-.01.04-.01.06-.01.04-.01.09-.01.14-.02.08-.01.16-.02.25-.03.01,0,.03-.01.05-.01.09-.01.19-.02.3-.03h.05c.07-.01.14-.02.22-.02.25-.01.49-.03.74-.05.02,0,.04-.01.06-.01.03-.01.07-.01.1-.01.07,0,.15-.01.23-.01.04,0,.09-.01.13-.01.13,0,.27-.02.4-.02.09-.01.17-.01.26-.01h.03c.17,0,.35-.01.52-.01h.52c.31,0,.62.01.92.01.31.01.61.02.91.04,1.19.06,2.32.19,3.4.38.27.05.53.11.79.16,1.05.23,2.04.52,2.97.87.69.27,1.36.57,1.99.9.26.14.52.29.77.44.16.1.32.2.47.28h.01s.04.03.06.05c.02,0,.03.02.05.03,0,.01.01.01.01.01.04.02.08.05.12.08l.02.02s0,0,0,.01t.02,0s.01,0,.02.01c.03.02.06.03.08.06,0,0,0,.01.02.01.07.04.14.09.2.14.05.03.1.07.15.11.07.05.14.11.21.17.23.18.45.36.66.55.03.03.07.06.11.09.08.06.16.13.23.2.02.02.04.04.06.06.01,0,.02.01.03.03.04.03.08.06.11.1.07.06.13.12.19.19.09.08.17.16.25.25.02.01.03.02.04.05,0,0,.01,0,.01.01l.02.02s.04.03.06.06c.02.02.05.05.08.08.08.08.15.17.21.25.25.28.48.58.71.88.12.15.23.3.34.45,0,.01.02.01.02.02h.01s.03.04.03.06c.02.01.03.03.03.04.03.04.06.07.08.11.02.02.03.05.04.07.05.06.09.12.12.18,0,0,0,.01.01.01.03.05.07.1.11.17.09.14.17.27.25.41v.02c.11.18.21.37.32.56.23.41.44.83.63,1.27.15.32.28.65.41.99.02.04.03.08.04.12.06.14.11.29.16.44.09.26.18.52.26.78h0c.11.35.21.7.3,1.05.06.22.11.44.16.67.05.2.1.4.14.62,0,.05.02.1.03.16.01.05.02.1.03.15h0c.03.12.05.22.06.33.12.67.22,1.35.3,2.06.07.65.12,1.32.16,2,.01.08.02.15.02.23.04.74.06,1.49.06,2.27,0,1.02-.01,2.03-.02,3.03-.9,41.87-20.06,58.87-20.06,58.87h-.01Z"/>
      <path class="cls-2" d="M149.87,12.19c-9.62,0-21.09,3.96-21.09,22.85,0,7.87.66,14.95,1.74,21.28.57,3.34,1.26,6.46,2.03,9.38,4.54,17.17,11.99,27.2,15.46,30.77,0,0,0,0,0,0,.33.35.64.64.89.87.55.48.89.68.96.6h.01c.07.07.39-.13.9-.6.22-.21.48-.47.78-.79,3.41-3.66,11.22-14.53,15.82-32.82.82-3.22,1.53-6.68,2.11-10.37,0-.03,0-.06.01-.09.86-5.55,1.39-11.63,1.47-18.24.22-18.89-11.47-22.85-21.1-22.85ZM149.88,96.95h-.01s-19.16-17-20.06-58.87c-.01-.99-.02-2-.02-3.03,0-14.5,6.76-21.85,20.09-21.85h.37c.13,0,.25,0,.38.01h.17c.14,0,.28,0,.41.01.05,0,.11,0,.16,0,.05,0,.1,0,.14.01.45.02.89.05,1.32.09.09,0,.19.01.28.02.03,0,.06.01.09.01.9.1,1.76.24,2.59.41.83.18,1.61.39,2.37.64h.01s.02,0,.04.01c.03.01.07.03.1.04.35.11.69.24,1.02.38.16.06.31.13.46.2.22.09.44.19.65.3.22.11.44.22.65.35.02.01.05.03.07.04.05.02.09.04.13.07.55.31,1.07.65,1.56,1.02.25.17.49.36.71.56.01.01.02.02.03.03l.02.02s.03.02.04.03c.17.14.33.28.48.43,0,.01.03.02.04.04.04.03.08.06.1.1.45.43.87.88,1.26,1.36.12.15.24.3.35.45,0,0,.02.03.03.04.08.11.16.22.24.33.12.16.23.32.33.49.03.04.06.08.08.12.22.33.42.68.62,1.04.09.16.17.32.25.48.1.18.18.36.26.54.05.1.1.19.13.29.11.22.2.44.28.67.01.02.02.03.02.05.04.06.07.13.09.2.02.06.04.11.06.17.08.18.14.37.21.57,0,.01.01.03.01.04.08.21.15.42.21.64.02.05.04.11.05.17.08.24.15.48.21.73.04.13.07.26.1.39.06.21.11.43.16.65.07.31.13.63.19.95h0c.04.19.08.39.1.58,0,.04.02.07.02.11v.02c.05.27.09.55.12.83.05.39.1.78.14,1.18v.03c.04.39.07.79.09,1.19,0,.1.02.2.02.31v.05s0,.06.01.09c.01.21.03.42.03.64v.12c0,.08,0,.17,0,.26.01.41.02.81.02,1.23,0,.48,0,.95-.01,1.42,0,.25,0,.49-.01.74-.61,37.41-17.11,56.58-19.73,59.39-.18.19-.3.31-.34.36Z"/>
      <path class="cls-2" d="M192.9,123c-8.54,0-18.91,3.52-18.71,20.27.06,4.93.4,9.53.97,13.8.51,3.91,1.2,7.55,2.03,10.91,0,.02,0,.04,0,.06,4.16,17.03,11.47,26.96,14.43,30.02.31.33.57.58.78.74.27.24.44.33.49.28.05.05.24-.04.55-.29.22-.17.5-.42.83-.75h.01c2.99-2.97,10.06-12.19,14.18-28.37.01-.01.01-.02,0-.03.78-3.01,1.44-6.25,1.95-9.74.01-.02.01-.04.01-.07.74-5.01,1.18-10.53,1.18-16.56,0-16.76-10.17-20.27-18.71-20.27ZM192.9,198.19h-.01s-.08-.09-.16-.16c-.03-.04-.06-.07-.09-.11,0-.01-.03-.03-.04-.05-2.32-2.47-17.16-19.69-17.52-53.34,0-.42,0-.84,0-1.26,0-12.86,6-19.38,17.83-19.38s17.83,6.52,17.83,19.38c0,.46,0,.91-.01,1.37,0,.45-.01.9-.02,1.34,0,.89-.04,1.77-.08,2.64-.02.58-.05,1.15-.08,1.71-1.97,33.97-17.64,47.86-17.64,47.86Z"/>
      <path class="cls-2" d="M202.95,12.2c-8.96,0-19.65,3.69-19.65,21.29,0,7.49.64,14.22,1.68,20.22.58,3.25,1.26,6.29,2.04,9.11,4.2,15.36,10.87,24.44,14.09,27.81.34.36.64.65.9.88.54.49.87.69.94.62h.01c.07.07.37-.13.87-.6.23-.22.51-.5.82-.84,3.2-3.48,10.13-13.26,14.4-29.53.83-3.17,1.56-6.6,2.14-10.27.83-5.28,1.36-11.08,1.43-17.4.21-17.6-10.69-21.29-19.67-21.29ZM203.01,91.14h-.13c-1.16-1.08-16.46-15.9-18.44-50.22v-.04c-.1-2.36-.15-4.82-.15-7.37,0-13.48,6.29-20.31,18.68-20.31s18.67,6.83,18.67,20.31c0,2.31-.05,4.56-.14,6.75-.01.12-.01.23-.02.35-1.99,33.15-17.37,49.41-18.47,50.53Z"/>
      <path class="cls-2" d="M246.11,122.75c-9.63,0-21.32,3.96-21.1,22.85.5,42.94,20.47,63.54,21.09,62.91h.01c.61.65,21.09-19,21.09-62.91,0-18.89-11.47-22.85-21.09-22.85ZM245.76,207.15c-2.64-2.83-19.33-22.24-19.74-60.13,0-.47,0-.94,0-1.42,0-14.5,6.76-21.85,20.1-21.85s20.09,7.35,20.09,21.85c0,.69,0,1.37,0,2.05-.02,1.35-.06,2.68-.11,3.98-.03.62-.06,1.23-.09,1.84-.03.6-.06,1.19-.11,1.78,0,.07-.01.13-.01.2-2.69,36.92-19.76,52.06-19.76,52.06h-.01s-.16-.17-.34-.36Z"/>
      <path class="cls-2" d="M267.2,28.98c-.07,5.89-.64,11.21-1.52,15.96-.59,3.22-1.33,6.18-2.16,8.88-3.42,11.16-8.3,17.9-10.56,20.34-.38.4-.69.69-.9.86h-.01c-.19.15-.31.21-.34.17h-.01s-.14-.01-.3-.13c-.18-.12-.44-.34-.76-.65-2.47-2.4-8.62-10.32-12.04-24.4-.8-3.29-1.45-6.92-1.86-10.89-.01-.03-.01-.05-.01-.08-.34-3.14-.52-6.49-.52-10.06,0-13.88,8.42-16.79,15.49-16.79s15.66,2.91,15.5,16.79Z"/>
    </g>
    <g>
      <g>
        <path class="cls-2" d="M57.29,17.56c-3.73-3.48-8.88-4.86-14.57-4.86-11.37,0-20.59,5.5-20.59,22.35,0,43.69,19.75,62.41,20.59,62.41,0,0,20.6-21.42,20.6-62.41,0-8.43-2.3-14.01-6.03-17.49ZM43.02,96.66s0,.01-.02.02c-.14.19-.23.28-.27.28h-.01c-1.28,0-17.34-15.2-19.77-52.26-.04-.59-.08-1.18-.11-1.78-.1-1.88-.17-3.82-.2-5.82,0-.68,0-1.36,0-2.05,0-14.5,6.76-21.85,20.09-21.85s20.1,7.35,20.1,21.85c0,.48,0,.95-.01,1.42-.41,38.19-17.37,57.6-19.79,60.19Z"/>
        <path class="cls-1" d="M42.72,12.2c-9.62,0-21.09,3.96-21.09,22.85,0,43.91,20.48,63.56,21.09,62.91h.01c.62.63,20.59-19.97,21.09-62.91.22-18.89-11.47-22.85-21.1-22.85ZM22.95,44.7c-.04-.59-.08-1.18-.11-1.78-.1-1.88-.17-3.82-.2-5.82,0-.68,0-1.36,0-2.05,0-14.5,6.76-21.85,20.09-21.85s20.1,7.35,20.1,21.85c0,.48,0,.95-.01,1.42-.41,38.19-17.37,57.6-19.79,60.19t-.02.02c-.15.15-.23.23-.27.28h-.01s-17.14-15.2-19.77-52.26Z"/>
        <path class="cls-2" d="M108.92,17.03c-3.32-3.11-7.91-4.33-12.98-4.33-10.15,0-18.37,4.9-18.37,19.93,0,6.09.3,11.64.83,16.66v.03c.52,3.5,1.18,6.76,1.96,9.77-.45-2.28-.83-4.71-1.15-7.29,0-.02-.01-.05-.01-.08-.72-5.62-1.13-11.97-1.13-19.09,0-12.89,6.01-19.43,17.87-19.43s17.86,6.54,17.86,19.43c0,6-.34,11.62-.95,16.78v.02c-.32,2.74-.71,5.36-1.17,7.84.81-3.31,1.49-6.9,1.99-10.75.41-4.31.63-8.94.63-13.89,0-7.51-2.06-12.5-5.38-15.6ZM96.22,87.77c-.1.02-.19.02-.28.02-.16,0-.34-.02-.51-.05-.28-.05-.57-.13-.88-.25.33.33.61.58.83.75.19.03.38.05.56.05.16,0,.31,0,.48-.04.21-.16.47-.41.78-.74-.35.15-.67.23-.98.26Z"/>
        <path class="cls-2" d="M170.44,33.49c-.01-.5-.04-1-.08-1.48-.02-.31-.04-.62-.08-.92-.01-.17-.03-.33-.05-.5-.04-.37-.08-.73-.14-1.08,0-.01,0-.02-.01-.04-.02-.17-.05-.33-.08-.49,0-.05-.01-.1-.02-.15-.04-.3-.1-.59-.16-.88-.17-.84-.37-1.63-.6-2.39,0-.03-.01-.06-.03-.09-.1-.35-.22-.7-.34-1.03-.13-.35-.26-.68-.39-1.01-.01-.02-.02-.03-.02-.04-.15-.34-.3-.67-.46-1-.09-.2-.19-.39-.3-.58-.03-.07-.07-.14-.11-.2-.04-.08-.09-.17-.14-.25-.02-.04-.04-.08-.07-.12-.13-.22-.26-.44-.4-.65-.02-.05-.05-.1-.09-.14-.12-.2-.26-.39-.4-.58-.19-.28-.39-.54-.62-.8-.07-.1-.15-.2-.24-.29-.15-.19-.32-.37-.49-.55-.17-.18-.33-.35-.51-.51-.04-.04-.08-.08-.12-.12-.02-.02-.03-.03-.05-.04-.16-.15-.32-.3-.49-.44-.16-.14-.33-.27-.49-.4-.34-.27-.68-.52-1.04-.76-.27-.18-.54-.36-.82-.51-.14-.09-.28-.17-.42-.24-.17-.09-.34-.18-.51-.27-.07-.04-.15-.08-.23-.11-.04-.02-.08-.04-.12-.06-.21-.1-.41-.19-.63-.28-.27-.12-.55-.24-.83-.33-.19-.08-.39-.15-.59-.21-.19-.07-.38-.13-.57-.18-.12-.05-.24-.08-.36-.11h-.01c-.26-.08-.52-.15-.79-.21-.25-.07-.5-.12-.75-.18-.26-.05-.51-.1-.77-.15-.4-.07-.8-.13-1.2-.18-.22-.03-.44-.06-.67-.08-.22-.02-.45-.04-.67-.06-.15-.02-.29-.03-.44-.03-.11-.01-.23-.02-.35-.02-.19-.02-.38-.03-.58-.03-.2-.01-.4-.02-.61-.01-.1-.01-.21-.01-.32-.01h-.3c-11.38,0-20.59,5.5-20.59,22.35v.69c-.01.23,0,.46.01.69-.01.46,0,.92.01,1.37v.25c.1,6.7.53,12.78,1.21,18.27.57,3.34,1.26,6.46,2.03,9.38-.52-2.58-.98-5.34-1.37-8.27,0-.03-.01-.06-.01-.1-.73-5.45-1.2-11.51-1.34-18.22,0-.34,0-.68-.02-1.03-.01-.99-.02-2-.02-3.03,0-14.5,6.76-21.85,20.09-21.85h.37c.13,0,.25,0,.38.01h.17c.14,0,.28,0,.41.01.05,0,.11,0,.16,0,.05,0,.1,0,.14.01.45.02.89.05,1.32.09.09,0,.19.01.28.02.03,0,.06.01.09.01.9.1,1.76.24,2.59.41.83.18,1.61.39,2.37.64h.01s.02,0,.04.01c.03.01.07.03.1.04.35.11.69.24,1.02.38.16.06.31.13.46.2.22.09.44.19.65.3.22.11.44.22.65.35.02.01.05.03.07.04.05.02.09.04.13.07.55.31,1.07.65,1.56,1.02.25.17.49.36.71.56.01.01.02.02.03.03l.02.02s.03.02.04.03c.17.13.33.28.48.43,0,.01.03.02.04.04.04.03.08.06.1.1.45.43.87.88,1.26,1.36.12.15.24.3.35.45,0,0,.02.03.03.04.08.11.16.22.24.33.12.16.23.32.33.49.03.04.06.08.08.12.22.33.42.68.62,1.04.09.16.17.32.25.48.1.18.18.36.26.54.05.1.1.19.13.29.11.22.2.44.28.67.01.02.02.03.02.05.04.06.07.13.09.2.02.06.04.11.06.17.08.18.14.37.21.57,0,.01.01.03.01.04.08.21.15.42.21.64.02.05.04.11.05.17.08.24.15.48.21.73.04.13.07.26.1.39.06.21.11.43.16.65.07.31.13.63.19.95h0c.04.19.08.39.1.58,0,.04.02.07.02.11v.02c.05.27.09.55.12.83.06.38.1.78.14,1.18v.03c.04.39.07.79.09,1.19,0,.1.02.2.02.31v.05s0,.06.01.09c.01.21.03.42.03.64v.12c0,.08,0,.17,0,.26.01.41.02.81.02,1.23,0,.48,0,.95-.01,1.42,0,.25,0,.49-.01.74-.07,6.23-.47,12.06-1.14,17.45v.03c-.39,3.18-.87,6.2-1.43,9.06.82-3.22,1.53-6.68,2.11-10.37,0-.03,0-.06.01-.09.56-5.02.9-10.47.96-16.32,0-.64.01-1.28.01-1.92,0-.53-.01-1.04-.03-1.55ZM150.35,96.92c-.16.03-.32.04-.47.04-.26,0-.52-.03-.81-.1h-.01c-.33-.08-.68-.21-1.04-.38.33.35.64.64.89.87.34.07.66.11.97.11.29,0,.59-.04.9-.11.22-.21.48-.47.78-.79-.42.19-.82.31-1.21.36Z"/>
        <path class="cls-2" d="M203.01,91.14h-.13c-.53-.02-1.12-.18-1.77-.51.34.36.64.65.9.88.34.09.66.13.96.13.28,0,.56-.04.86-.11.23-.22.51-.5.82-.84-.58.3-1.13.44-1.64.45ZM216.53,17.22c-3.47-3.24-8.27-4.52-13.56-4.52-10.59,0-19.18,5.12-19.18,20.81,0,7.51.44,14.24,1.19,20.2.58,3.25,1.26,6.29,2.04,9.11-1.3-6.17-2.23-13.44-2.58-21.9v-.04c-.1-2.36-.15-4.82-.15-7.37,0-13.48,6.29-20.31,18.68-20.31s18.67,6.83,18.67,20.31c0,2.31-.05,4.56-.14,6.75-.01.12-.01.23-.02.35-.33,7.59-1.2,14.47-2.43,20.55.83-3.17,1.56-6.6,2.14-10.27.6-5.29.95-11.09.95-17.38,0-7.85-2.14-13.05-5.61-16.29Z"/>
        <path class="cls-2" d="M251.55,74.57h-.01c-.28,0-.58-.05-.9-.16.32.31.58.53.76.65.05.01.09.01.14.01.17,0,.34-.02.51-.05h.01c.21-.17.52-.46.9-.86-.51.27-.99.41-1.41.41ZM262.25,16.27c-2.74-2.56-6.53-3.57-10.71-3.57-8.36,0-15.15,4.05-15.15,16.44,0,3.52.12,6.81.34,9.9,0,.03,0,.05.01.08.41,3.97,1.06,7.6,1.86,10.89-1.05-5.8-1.71-12.72-1.71-20.87,0-2.06.19-3.93.57-5.59.11-.5.23-.97.37-1.42,1.85-5.93,6.44-8.93,13.71-8.93,9.73,0,14.65,5.36,14.65,15.94,0,4.81-.27,9.32-.74,13.47-.46,4.08-1.12,7.83-1.93,11.21.83-2.7,1.57-5.66,2.16-8.88.64-4.73,1.01-10,1.01-15.8,0-6.2-1.69-10.3-4.44-12.87Z"/>
        <path class="cls-3" d="M108.85,17.21c-3.31-3.09-7.88-4.32-12.92-4.32-10.09,0-18.27,4.88-18.27,19.83,0,7.06.58,13.38,1.54,19,0,.03.01.06.01.08,3.87,22.67,13.82,33.91,16.22,35.94.27.23.44.34.5.34,0,0,.1-.1.29-.31,1.88-2.11,12.77-15.13,16.63-38.34v-.02c.84-5.08,1.35-10.64,1.35-16.69,0-7.48-2.04-12.43-5.35-15.51ZM96.23,87.32s-.03.04-.04.05c-.03.03-.06.07-.09.11-.08.1-.13.15-.16.15h-.01c-1.15.01-15.82-13.89-17.64-47.85-.03-.57-.06-1.14-.08-1.71-.04-.87-.07-1.75-.08-2.64-.01-.44-.02-.89-.02-1.35-.01-.45-.01-.9-.01-1.36,0-12.86,6-19.38,17.83-19.38s17.83,6.52,17.83,19.38c0,.42,0,.84-.01,1.26-.36,33.65-15.2,50.87-17.52,53.34Z"/>
        <path class="cls-1" d="M95.93,12.45c-8.54,0-18.71,3.51-18.71,20.27,0,6.04.44,11.56,1.18,16.57v.03c.52,3.5,1.18,6.76,1.96,9.77-.01,0-.01.02,0,.03,4.12,16.18,11.19,25.4,14.18,28.36h.01c.33.34.61.59.83.76.31.25.5.34.55.29.05.05.22-.04.49-.28.21-.16.47-.41.78-.74,2.97-3.07,10.33-13.07,14.47-30.22t.01-.02c.81-3.31,1.49-6.9,1.99-10.75.57-4.27.91-8.87.97-13.8.2-16.76-10.17-20.27-18.71-20.27ZM96.1,87.48c-.08.07-.14.13-.16.15h-.01s-15.68-13.89-17.64-47.85c-.03-.57-.06-1.14-.08-1.71-.03-.87-.06-1.75-.08-2.64-.01-.44-.02-.89-.02-1.35-.01-.45-.01-.9-.01-1.36,0-12.86,6-19.38,17.83-19.38s17.83,6.52,17.83,19.38c0,.42,0,.84-.01,1.26-.36,33.65-15.2,50.87-17.52,53.34-.01.02-.03.04-.04.05-.03.03-.06.07-.09.11Z"/>
        <path class="cls-2" d="M170.44,33.49c-.01-.5-.04-1-.08-1.48-.02-.31-.04-.62-.08-.92-.01-.17-.03-.33-.05-.5-.04-.37-.08-.73-.14-1.08,0-.01,0-.02-.01-.04-.02-.17-.05-.33-.08-.49,0-.05-.01-.1-.02-.15-.04-.3-.1-.59-.16-.88-.16-.84-.37-1.63-.6-2.39,0-.03-.01-.06-.03-.09-.1-.35-.22-.7-.34-1.03-.13-.35-.26-.68-.39-1.01-.01-.02-.02-.03-.02-.04-.15-.34-.3-.67-.46-1-.09-.2-.19-.39-.3-.58-.03-.07-.07-.14-.11-.2-.04-.08-.09-.17-.14-.25-.02-.04-.04-.08-.07-.12-.13-.22-.26-.44-.4-.65-.02-.05-.05-.1-.09-.14-.12-.2-.26-.39-.4-.58-.19-.28-.39-.54-.62-.8-.07-.1-.15-.2-.24-.29-.15-.19-.32-.37-.49-.55-.17-.18-.33-.35-.51-.51-.04-.04-.08-.08-.12-.12-.02-.02-.03-.03-.05-.04h0c-.16-.16-.32-.31-.49-.44-.16-.14-.33-.27-.49-.4-.34-.28-.68-.53-1.04-.76-.27-.18-.54-.36-.82-.51-.14-.09-.28-.17-.42-.24-.17-.09-.34-.18-.51-.27-.07-.04-.15-.08-.23-.11-.04-.02-.08-.04-.12-.06-.21-.1-.41-.19-.63-.28-.27-.12-.55-.24-.83-.33-.19-.08-.39-.15-.59-.21-.19-.07-.38-.13-.57-.18-.12-.05-.24-.08-.36-.11h-.01c-.26-.08-.52-.15-.79-.21-.25-.07-.5-.12-.75-.18-.26-.05-.51-.1-.77-.15-.4-.07-.8-.13-1.2-.18-.22-.03-.44-.06-.67-.08-.22-.02-.45-.04-.67-.06-.15-.02-.29-.03-.44-.03-.11-.01-.23-.02-.35-.02-.19-.02-.38-.03-.58-.03-.2-.01-.4-.02-.61-.01-.1-.01-.21-.01-.32-.01-.1-.01-.2-.01-.31-.01-11.37,0-20.59,5.5-20.59,22.35,0,.24,0,.47.01.7-.01.23,0,.46.01.69-.01.46,0,.92.01,1.37v.25c.15,7.11.83,13.53,1.86,19.28,0,.04.01.07.01.1,4.34,24.27,14.85,36.67,17.88,39.43h.01c.44.4.72.59.8.59,0,0,.17-.18.48-.53,2.5-2.85,14.11-17.18,18.46-42.24v-.03c.94-5.4,1.54-11.3,1.65-17.69,0-.64.01-1.28.01-1.92,0-.53-.01-1.04-.03-1.55ZM169.96,36.46c0,.25,0,.49-.01.74-.61,37.41-17.11,56.58-19.73,59.39-.18.24-.3.36-.34.36h-.01c-1.34,0-18.93-16.72-20.04-57.84,0-.34,0-.68-.02-1.03-.01-.5-.02-1-.02-1.51-.01-.51-.01-1.01-.01-1.53,0-14.5,6.76-21.85,20.09-21.85.13,0,.26,0,.38.01.13,0,.25,0,.38.01h.17c.14,0,.28,0,.41.01.05,0,.11,0,.16,0,.05,0,.1,0,.14.01h.18c.18.01.35.02.52.04h.09c.18,0,.35.03.53.05.09,0,.19.01.28.02.03,0,.06.01.09.01.17.02.34.04.5.05.05.01.1.02.15.02.05.01.09.01.14.02.02,0,.04.01.06.01.11.01.21.03.32.04.43.07.85.14,1.27.23.21.04.42.09.63.14.05.01.1.02.15.03.02,0,.05,0,.07.02.15.03.29.07.44.11.18.04.37.09.55.15.03.01.05.02.08.03.14.04.27.08.4.13.03,0,.05,0,.08.02.04.01.08.03.12.04h0s.01,0,.01,0c.01,0,.02,0,.04.01.03.01.07.03.1.04.35.11.69.24,1.02.38.16.06.31.13.46.2.22.09.44.19.65.3.22.11.44.22.65.35.02.01.05.03.07.04.05.02.09.04.13.07.55.31,1.07.65,1.56,1.02.25.17.49.36.71.56.01.01.02.02.03.03l.02.02s.03.02.04.03c.17.14.33.28.48.43,0,.01.03.02.04.04.04.03.08.06.1.1.45.43.87.88,1.26,1.36.12.15.24.3.35.45,0,0,.02.03.03.04.08.11.16.22.24.33.12.16.23.32.33.49.03.04.06.08.08.12.22.33.42.68.62,1.04.09.16.17.32.25.48.1.18.18.36.26.54.05.1.1.19.13.29.11.22.2.44.28.67.01.02.02.03.02.05.04.06.07.13.09.2.02.06.04.11.06.17.08.18.14.37.21.57,0,.01.01.03.01.04.08.21.15.42.21.64.02.05.04.11.05.17.08.24.15.48.21.73.04.13.07.26.1.39.06.21.11.43.16.65.07.31.13.63.19.95h0c.04.19.08.39.1.58,0,.04.02.07.02.11v.02c.05.27.09.55.12.83.05.39.1.78.14,1.18v.03c.04.39.07.79.09,1.19,0,.1.02.2.02.31v.05s0,.06.01.09c.01.21.03.42.03.64v.12c0,.08,0,.17,0,.26.01.41.02.81.02,1.23,0,.48,0,.95-.01,1.42Z"/>
        <path class="cls-1" d="M149.87,12.19c-9.62,0-21.09,3.96-21.09,22.85,0,7.87.66,14.95,1.74,21.28.57,3.34,1.26,6.46,2.03,9.38,4.54,17.17,11.99,27.2,15.46,30.77,0,0,0,0,0,0,.33.35.64.64.89.87.55.48.89.68.96.6h.01c.07.07.39-.13.9-.6.22-.21.48-.47.78-.79,3.41-3.66,11.22-14.53,15.82-32.82.82-3.22,1.53-6.68,2.11-10.37,0-.03,0-.06.01-.09.86-5.55,1.39-11.63,1.47-18.24.22-18.89-11.47-22.85-21.1-22.85ZM149.88,96.95h-.01s-19.16-17-20.06-58.87c-.01-.5-.02-1-.02-1.51-.01-.51-.01-1.01-.01-1.53,0-14.5,6.76-21.85,20.09-21.85.13,0,.26,0,.38.01.13,0,.25,0,.38.01h.17c.14,0,.28,0,.41.01.05,0,.11,0,.16,0,.05,0,.1,0,.14.01h.18c.18.01.35.02.52.04h.09c.18,0,.35.03.53.05.09,0,.19.01.28.02.03,0,.06.01.09.01.17.02.34.04.5.05.05.01.1.02.15.02.05.01.09.01.14.02.02,0,.04.01.06.01.11.01.21.03.32.04.43.07.85.14,1.27.23.05.01.1.02.15.04.16.03.32.06.48.1.05.01.1.02.15.03.02,0,.05,0,.07.02.15.03.29.07.44.11.18.04.37.09.55.15.03.01.05.02.08.03.14.04.27.08.4.13.03,0,.05,0,.08.02.04.01.08.03.12.04h0s.01,0,.01,0c.01,0,.02,0,.04.01.03.01.07.03.1.04.35.11.69.24,1.02.38.16.06.31.13.46.2.22.09.44.19.65.3.22.11.44.22.65.35.02.01.05.03.07.04.05.02.09.04.13.07.55.31,1.07.65,1.56,1.02.25.17.49.36.71.56.01.01.02.02.03.03l.02.02s.03.02.04.03c.17.13.33.28.48.43,0,.01.03.02.04.04.04.03.08.06.1.1.45.43.87.88,1.26,1.36.12.15.24.3.35.45,0,0,.02.03.03.04.08.11.16.22.24.33.12.16.23.32.33.49.03.04.06.08.08.12.22.33.42.68.62,1.04.09.16.17.32.25.48.1.18.18.36.26.54.05.1.1.19.13.29.11.22.2.44.28.67.01.02.02.03.02.05.04.06.07.13.09.2.02.06.04.11.06.17.08.18.14.37.21.57,0,.01.01.03.01.04.08.21.15.42.21.64.02.05.04.11.05.17.08.24.15.48.21.73.04.13.07.26.1.39.06.21.11.43.16.65.07.31.13.63.19.95h0c.04.19.08.39.1.58,0,.04.02.07.02.11v.02c.05.27.09.55.12.83.06.38.1.78.14,1.18v.03c.04.39.07.79.09,1.19,0,.1.02.2.02.31v.05s0,.06.01.09c.01.21.03.42.03.64v.12c0,.08,0,.17,0,.26.01.41.02.81.02,1.23,0,.48,0,.95-.01,1.42,0,.25,0,.49-.01.74-.61,37.41-17.11,56.58-19.73,59.39-.18.19-.3.31-.34.36Z"/>
        <path class="cls-1" d="M202.95,12.2c-8.96,0-19.65,3.69-19.65,21.29,0,7.49.64,14.22,1.68,20.22.58,3.25,1.26,6.29,2.04,9.11,4.2,15.36,10.87,24.44,14.09,27.81.34.36.64.65.9.88.54.49.87.69.94.62h.01c.07.07.37-.13.87-.6.23-.22.51-.5.82-.84,3.2-3.48,10.13-13.26,14.4-29.53.83-3.17,1.56-6.6,2.14-10.27.83-5.28,1.36-11.08,1.43-17.4.21-17.6-10.69-21.29-19.67-21.29ZM203.01,91.14s-.06.06-.06.06c0,0-.02-.02-.07-.06-1.16-1.08-16.46-15.9-18.44-50.22v-.04c-.14-2.37-.21-4.83-.21-7.39,0-13.51,6.3-20.36,18.72-20.36s18.74,6.85,18.74,20.36c0,2.33-.07,4.59-.19,6.77-.01.12-.01.23-.02.35-1.99,33.15-17.37,49.41-18.47,50.53Z"/>
        <path class="cls-1" d="M251.7,12.19c-7.07,0-15.49,2.91-15.49,16.79,0,3.57.18,6.92.52,10.06,0,.03,0,.05.01.08.41,3.97,1.06,7.6,1.86,10.89,3.42,14.08,9.57,22,12.04,24.4.32.31.58.53.76.65.16.12.27.16.3.13h.01s.15-.02.34-.17h.01c.21-.17.52-.46.9-.86,2.26-2.44,7.14-9.18,10.56-20.34.83-2.7,1.57-5.66,2.16-8.88.88-4.75,1.45-10.07,1.52-15.96.16-13.88-8.42-16.79-15.5-16.79ZM265.45,42.61c-3.34,21.59-13.75,31.85-13.75,31.85,0,0-14.76-13.09-14.76-45.48,0-2,.17-3.81.52-5.43.11-.5.23-.97.37-1.42,1.82-6.11,6.47-9.2,13.87-9.2,9.8,0,14.77,5.4,14.77,16.05,0,4.96-.38,9.5-1.02,13.63Z"/>
      </g>
      <g>
        <path class="cls-2" d="M246.11,123.25c-5.69,0-10.84,1.38-14.57,4.86-3.73,3.48-6.03,9.06-6.03,17.49,0,40.99,20.6,62.41,20.6,62.41.84,0,20.59-18.72,20.59-62.41,0-16.85-9.22-22.35-20.59-22.35ZM266.08,151.63c-.03.62-.06,1.23-.09,1.84-.03.6-.06,1.19-.11,1.78,0,.07-.01.13-.01.2-2.49,36.92-18.48,52.06-19.76,52.06h-.01s-.16-.12-.34-.36c-2.64-2.83-19.33-22.24-19.74-60.13,0-.47,0-.94,0-1.42,0-14.5,6.76-21.85,20.1-21.85s20.09,7.35,20.09,21.85c0,.69,0,1.37,0,2.05-.02,1.35-.06,2.68-.11,3.98Z"/>
        <path class="cls-1" d="M246.11,122.75c-9.63,0-21.32,3.96-21.1,22.85.5,42.94,20.47,63.54,21.09,62.91h.01c.61.65,21.09-19,21.09-62.91,0-18.89-11.47-22.85-21.09-22.85ZM245.76,207.15c-2.64-2.83-19.33-22.24-19.74-60.13,0-.47,0-.94,0-1.42,0-14.5,6.76-21.85,20.1-21.85s20.09,7.35,20.09,21.85c0,.69,0,1.37,0,2.05-.02,1.35-.06,2.68-.11,3.98-.03.62-.06,1.23-.09,1.84-.03.6-.06,1.19-.11,1.78,0,.07-.01.13-.01.2-2.69,36.92-19.76,52.06-19.76,52.06h-.01s-.16-.17-.34-.36Z"/>
        <path class="cls-2" d="M192.89,123.25c-5.07,0-9.66,1.22-12.98,4.33-3.32,3.1-5.38,8.09-5.38,15.6,0,4.95.22,9.58.63,13.89.51,3.91,1.2,7.55,2.03,10.91-.47-2.49-.87-5.11-1.19-7.86,0-.03-.01-.06-.01-.1-.62-5.18-.96-10.81-.96-16.84,0-12.89,6.01-19.43,17.86-19.43s17.87,6.54,17.87,19.43c0,7.12-.41,13.47-1.13,19.09,0,.03-.01.06-.01.08-.32,2.58-.7,5.01-1.15,7.29.78-3.01,1.44-6.25,1.95-9.74.01-.02.01-.04.01-.07.53-5.02.83-10.56.83-16.65,0-15.03-8.22-19.93-18.37-19.93ZM193.4,198.29c-.17.03-.35.05-.51.05-.09,0-.18,0-.28-.02-.31-.03-.63-.11-.98-.26.31.33.57.58.78.74.17.03.32.04.48.04.18,0,.37-.02.56-.05.22-.17.5-.42.83-.75-.31.12-.6.2-.88.25Z"/>
        <path class="cls-2" d="M159.53,144.66s.01,0,0-.02t0-.02c0-.45-.02-.89-.05-1.32-.02-.34-.04-.68-.07-1.02.01-.08,0-.15-.02-.23,0-.21-.03-.42-.05-.63-.01-.08-.01-.15-.03-.23-.04-.36-.09-.71-.14-1.06-.04-.28-.08-.55-.13-.82-.01-.12-.03-.23-.06-.35-.05-.26-.1-.51-.15-.76-.06-.31-.13-.63-.21-.93-.41-1.59-.93-3.03-1.56-4.32h0c-.32-.65-.67-1.25-1.03-1.82-.13-.22-.28-.44-.43-.64-.12-.17-.24-.34-.37-.5-.28-.36-.57-.71-.87-1.03-.15-.17-.3-.33-.46-.48-.18-.19-.37-.38-.57-.55-.11-.1-.22-.2-.33-.28-.18-.17-.38-.32-.57-.47-.17-.13-.35-.26-.52-.39-.53-.37-1.08-.71-1.65-1.03-.38-.21-.77-.41-1.17-.58-.19-.09-.39-.17-.6-.26-.2-.09-.4-.17-.61-.24-1.2-.44-2.46-.77-3.78-1.01-.41-.07-.83-.13-1.25-.19-.42-.05-.85-.09-1.28-.13-.38-.03-.76-.05-1.15-.07-.07-.01-.14-.01-.21-.01-.21-.01-.42-.02-.63-.01-.21-.01-.42-.01-.63-.01-5.68,0-10.83,1.38-14.56,4.86-.07.06-.15.13-.22.21-.06.04-.11.1-.17.17-.03.01-.05.04-.08.08-.02,0-.03.02-.05.05-.06.05-.11.11-.16.17-.44.46-.85.96-1.26,1.49h0c-.39.54-.77,1.12-1.11,1.72h0c-.34.62-.66,1.26-.95,1.94-.16.38-.32.78-.46,1.19-.11.3-.21.62-.31.94-.12.39-.23.79-.33,1.2-.09.35-.17.72-.25,1.09-.19.88-.33,1.81-.44,2.79-.05.46-.1.93-.13,1.41-.01.15-.02.3-.03.46-.02.33-.04.68-.05,1.02-.02.51-.03,1.02-.03,1.55,0,.64.01,1.28.01,1.92.06,5.85.4,11.3.96,16.32.01.03.01.05.01.07.58,3.7,1.29,7.16,2.11,10.39-.56-2.86-1.04-5.88-1.43-9.06v-.03c-.67-5.39-1.07-11.22-1.14-17.45-.01-.25-.01-.49-.01-.74-.01-.47-.01-.94-.01-1.42,0-.45.01-.9.02-1.34,0-.44.03-.87.06-1.29.02-.43.06-.85.1-1.26v-.03c.03-.28.06-.56.1-.84.02-.25.06-.5.1-.75.05-.38.11-.75.18-1.11.06-.33.12-.66.2-.98.04-.22.09-.43.15-.64.07-.32.16-.63.25-.93.05-.2.11-.4.18-.59.07-.23.14-.45.22-.66.02-.07.05-.13.08-.2.02-.05.03-.1.05-.15.05-.15.12-.3.18-.45.02-.03.03-.05.04-.08.01-.05.03-.09.05-.13.09-.24.2-.48.31-.71.13-.29.27-.57.42-.85,0,0,0-.02.01-.03.16-.3.33-.6.51-.88.15-.26.31-.5.48-.74.03-.05.06-.1.1-.14.15-.21.3-.42.46-.62.06-.09.13-.17.19-.25.4-.48.82-.94,1.26-1.36.08-.08.17-.16.25-.23.09-.09.18-.17.27-.25.11-.1.22-.2.34-.29.25-.21.5-.41.77-.59.03-.03.07-.06.1-.08.02-.02.04-.03.06-.04.05-.04.1-.07.15-.1.27-.19.55-.37.83-.53.34-.2.69-.39,1.05-.57.86-.44,1.78-.8,2.76-1.1.29-.09.58-.17.87-.25.11-.03.22-.05.33-.08.04-.01.07-.02.11-.03.04-.01.07-.02.11-.02.02-.01.04-.02.07-.02h.04c.07-.03.15-.04.22-.05.01,0,.02,0,.03,0,.15-.03.3-.06.46-.09.15-.04.31-.07.47-.09.09-.02.18-.04.27-.05.1-.02.21-.03.31-.05.02,0,.03-.01.05-.01h.03s.06-.01.09-.01c.07-.02.14-.02.21-.03.02-.01.05-.01.08-.01.02-.01.04-.01.06-.01.04-.01.09-.01.14-.02.08-.01.16-.02.25-.03.01,0,.03-.01.05-.01.09-.01.19-.02.3-.03h.05c.07-.01.14-.02.22-.02.25-.01.49-.03.74-.05.02,0,.04-.01.06-.01.03-.01.07-.01.1-.01.07,0,.15-.01.23-.01.04,0,.09-.01.13-.01.13,0,.27-.02.4-.02.09-.01.17-.01.26-.01h.03c.17,0,.35-.01.52-.01h.52c.31,0,.62.01.92.01.31.01.61.02.91.04,1.19.06,2.32.19,3.4.38.27.05.53.11.79.16,1.05.23,2.04.52,2.97.87.69.27,1.36.57,1.99.9.26.14.52.29.77.44.16.1.32.2.47.28h.01s.04.03.06.05c.02,0,.03.02.05.03,0,.01.01.01.01.01.04.02.08.05.12.08l.02.02s0,0,0,.01t.02,0s.01,0,.02.01c.03.02.06.03.08.06,0,0,0,.01.02.01.07.04.14.09.2.14.05.03.1.07.15.11.07.05.14.11.21.17.23.18.45.36.66.55.03.03.07.06.11.09.08.06.16.13.23.2.02.02.04.04.06.06.01,0,.02.01.03.03.04.03.08.06.11.1.07.06.13.12.19.19.09.08.18.16.25.25.02.01.03.02.04.05,0,0,.01,0,.01.01l.02.02s.04.03.06.06c.02.02.05.05.08.08.08.08.15.17.21.25.25.28.48.58.71.88.12.15.23.3.34.45,0,.01.02.01.02.02h.01s.03.04.03.06c.02.01.03.03.03.04.03.04.06.07.08.11.02.02.03.05.04.07.05.06.09.12.12.18,0,0,0,.01.01.01.03.05.07.1.11.17.09.14.17.27.25.41h0s0,.01.01.01h-.01c.11.19.21.38.32.57.23.41.44.83.63,1.27.15.32.28.65.41.99.02.04.03.08.04.12.06.14.11.29.16.44.09.26.18.52.26.78h0c.11.35.21.7.3,1.05.06.22.11.44.16.67.05.2.1.4.14.62,0,.05.02.1.03.16.01.05.02.1.03.15h0c.03.12.05.22.06.33.12.67.22,1.35.3,2.06.07.65.12,1.32.16,2,.01.08.02.15.02.23.04.74.06,1.49.06,2.27,0,1.02-.01,2.03-.02,3.03,0,.35,0,.69-.02,1.03-.14,6.72-.61,12.78-1.34,18.23v.03c-.39,2.96-.86,5.75-1.38,8.35.77-2.91,1.46-6.03,2.02-9.37.69-5.5,1.12-11.59,1.22-18.3v-.25c.01-.45.02-.91.01-1.37.01-.23.01-.46.01-.69v-.69c0-.32,0-.63-.01-.94ZM139.77,207.41h0c-.29.07-.55.1-.81.1-.15,0-.31-.01-.47-.04-.39-.05-.79-.17-1.21-.36.3.32.57.58.79.79.31.07.6.11.89.11.31,0,.63-.04.97-.11.25-.23.56-.52.89-.87-.36.17-.71.3-1.04.38Z"/>
        <path class="cls-2" d="M85.86,123.25c-5.29,0-10.09,1.28-13.56,4.52-3.47,3.24-5.61,8.44-5.61,16.29,0,6.29.35,12.09.95,17.38.58,3.68,1.31,7.11,2.15,10.29-1.24-6.08-2.11-12.96-2.44-20.56-.01-.12-.01-.23-.02-.35-.09-2.19-.14-4.45-.14-6.76,0-13.48,6.28-20.31,18.67-20.31s18.68,6.83,18.68,20.31c0,2.56-.05,5.03-.15,7.41-.35,8.52-1.3,15.83-2.61,22.03.77-2.81,1.46-5.84,2.04-9.08,0-.04,0-.07.02-.1.76-5.98,1.2-12.72,1.2-20.26,0-15.69-8.59-20.81-19.18-20.81ZM85.94,201.69h-.13c-.51-.01-1.06-.16-1.65-.46.31.34.59.62.82.85.31.07.6.11.88.11.31,0,.63-.04.96-.13.25-.22.55-.52.89-.87-.65.32-1.24.48-1.77.5Z"/>
        <path class="cls-2" d="M37.29,123.25c-4.18,0-7.97,1.01-10.71,3.57-2.75,2.57-4.44,6.67-4.44,12.87,0,5.8.37,11.07,1.01,15.8.59,3.22,1.33,6.18,2.16,8.88-.81-3.37-1.47-7.1-1.92-11.17-.48-4.17-.75-8.68-.75-13.51,0-10.58,4.92-15.94,14.65-15.94,7.29,0,11.89,3.01,13.73,8.99.08.25.15.5.21.76.05.19.09.39.14.59.38,1.67.57,3.53.57,5.6,0,8.09-.64,14.97-1.68,20.74.78-3.24,1.42-6.81,1.83-10.72.01-.04.01-.09.01-.13.22-3.08.34-6.37.34-9.89,0-12.39-6.79-16.44-15.15-16.44ZM37.29,185.12h-.01c-.42,0-.9-.14-1.41-.41.38.4.69.69.9.86h.01c.17.03.34.05.51.05.05,0,.09,0,.14-.01.18-.12.44-.34.76-.65-.32.11-.62.16-.9.16Z"/>
        <path class="cls-3" d="M192.9,123.45c-5.04,0-9.61,1.22-12.92,4.31-3.31,3.08-5.35,8.03-5.35,15.51,0,6.07.51,11.66,1.36,16.75,0,.04.01.07.01.1,3.88,23.12,14.74,36.1,16.61,38.2.19.21.29.31.29.31.06,0,.23-.11.5-.34,2.4-2.03,12.35-13.27,16.22-35.94,0-.02.01-.05.01-.08.96-5.62,1.54-11.94,1.54-19,0-14.95-8.18-19.82-18.27-19.82ZM192.9,198.19h-.01s-.08-.06-.16-.16c-.03-.04-.06-.07-.09-.11,0-.01-.03-.03-.04-.05-2.32-2.47-17.16-19.69-17.52-53.34,0-.42,0-.84,0-1.26,0-12.86,6-19.38,17.83-19.38s17.83,6.52,17.83,19.38c0,.46,0,.91-.01,1.37,0,.45-.01.9-.02,1.34,0,.89-.04,1.77-.08,2.64-.02.58-.05,1.15-.08,1.71-1.82,33.96-16.49,47.86-17.64,47.86Z"/>
        <path class="cls-1" d="M192.9,123c-8.54,0-18.91,3.52-18.71,20.27.06,4.93.4,9.53.97,13.8.51,3.91,1.2,7.55,2.03,10.91,0,.02,0,.04,0,.06,4.16,17.03,11.47,26.96,14.43,30.02.31.33.57.58.78.74.27.24.44.33.49.28.05.05.24-.04.55-.29.22-.17.5-.42.83-.75h.01c2.99-2.97,10.06-12.19,14.18-28.37.01-.01.01-.02,0-.03.78-3.01,1.44-6.25,1.95-9.74.01-.02.01-.04.01-.07.74-5.01,1.18-10.53,1.18-16.56,0-16.76-10.17-20.27-18.71-20.27ZM192.9,198.19h-.01s-.08-.09-.16-.16c-.03-.04-.06-.07-.09-.11,0-.01-.03-.03-.04-.05-2.32-2.47-17.16-19.69-17.52-53.34,0-.42,0-.84,0-1.26,0-12.86,6-19.38,17.83-19.38s17.83,6.52,17.83,19.38c0,.46,0,.91-.01,1.37,0,.45-.01.9-.02,1.34,0,.89-.04,1.77-.08,2.64-.02.58-.05,1.15-.08,1.71-1.97,33.97-17.64,47.86-17.64,47.86Z"/>
        <path class="cls-2" d="M159.53,144.66s.01,0,0-.02t0-.02c0-.45-.02-.89-.05-1.32-.02-.34-.04-.68-.07-1.02.01-.08,0-.15-.02-.23,0-.21-.03-.42-.05-.63-.01-.08-.01-.15-.03-.23-.04-.36-.09-.71-.14-1.06-.04-.28-.08-.55-.13-.82-.01-.12-.03-.23-.06-.35-.05-.26-.1-.51-.15-.76-.06-.31-.13-.63-.21-.93-.4-1.6-.92-3.03-1.56-4.32h0c-.31-.65-.65-1.26-1.03-1.82-.13-.22-.28-.44-.43-.64-.12-.17-.24-.34-.37-.5-.27-.36-.56-.7-.87-1.03-.15-.17-.3-.33-.46-.48-.18-.19-.37-.38-.57-.55-.11-.1-.22-.2-.33-.28-.18-.17-.38-.32-.57-.47-.17-.13-.35-.26-.52-.39-.53-.38-1.08-.72-1.65-1.03-.38-.21-.77-.41-1.17-.58-.19-.09-.39-.17-.6-.26-.2-.09-.4-.17-.61-.24-1.2-.45-2.46-.78-3.78-1.01-.41-.07-.83-.13-1.25-.19-.42-.05-.85-.09-1.28-.13-.38-.03-.76-.05-1.15-.07-.07-.01-.14-.01-.21-.01-.21-.01-.42-.02-.63-.01-.2-.02-.41-.02-.62-.02-5.69,0-10.84,1.38-14.57,4.86h0c-.07.07-.15.14-.22.22-.06.04-.11.1-.17.17-.03.01-.05.04-.08.08-.02,0-.03.02-.05.05-.06.05-.11.11-.16.17-.45.46-.87.96-1.26,1.49h0c-.4.55-.77,1.11-1.11,1.72h0c-.35.61-.66,1.26-.95,1.94-.16.38-.32.78-.46,1.19-.11.3-.21.62-.31.94-.12.39-.23.79-.33,1.2-.09.35-.17.72-.25,1.09-.19.88-.33,1.81-.44,2.79-.05.46-.1.93-.13,1.41-.01.15-.02.3-.03.46-.02.33-.04.68-.05,1.02-.02.51-.03,1.02-.03,1.55,0,.64.01,1.28.01,1.92.11,6.39.71,12.29,1.65,17.69v.03c4.36,25.06,15.96,39.39,18.46,42.24.31.35.48.53.48.53.09,0,.37-.19.8-.59h0c3.04-2.76,13.56-15.19,17.89-39.49v-.03c1.03-5.75,1.71-12.17,1.86-19.29v-.25c.01-.45.02-.91.01-1.37.01-.23.01-.46.01-.69.01-.23.01-.47.01-.7,0-.31,0-.62-.02-.93ZM159.04,147.12c0,.51-.01,1.01-.02,1.51,0,.35,0,.69-.02,1.03-1.11,41.12-18.7,57.84-20.04,57.84h-.01s-.13-.09-.27-.28l-.02-.02c-2.4-2.57-19.16-21.75-19.78-59.45-.01-.25-.01-.49-.01-.74-.01-.47-.01-.94-.01-1.42,0-.45.01-.9.02-1.34,0-.44.03-.87.06-1.29.03-.43.06-.85.1-1.26v-.03c.03-.28.06-.56.1-.84.02-.25.06-.5.1-.75.05-.38.11-.75.18-1.11.06-.33.12-.66.2-.98.04-.22.09-.43.15-.64.07-.32.16-.63.25-.93.05-.2.11-.4.18-.59.07-.23.14-.45.22-.66.02-.07.05-.13.08-.2.02-.05.03-.1.05-.15.05-.15.12-.3.18-.45.02-.03.03-.05.04-.08.01-.05.03-.09.05-.13.09-.24.2-.48.31-.71.13-.29.27-.57.42-.85,0,0,0-.02.01-.03.16-.3.33-.6.51-.88.15-.26.31-.5.48-.74.03-.05.06-.1.1-.14.14-.21.29-.42.46-.62.06-.09.13-.17.19-.25.39-.49.8-.94,1.26-1.36.07-.09.16-.17.25-.23.09-.09.18-.17.27-.25.11-.11.23-.21.34-.29.25-.21.5-.41.77-.59.03-.03.07-.06.1-.08.02-.02.04-.03.06-.04.05-.04.1-.07.15-.1.27-.19.55-.37.83-.53.34-.21.69-.4,1.05-.57.86-.44,1.78-.8,2.76-1.1.29-.09.58-.17.87-.25.11-.03.22-.05.33-.08.04-.01.07-.02.11-.03.04-.01.07-.02.11-.02.02-.01.04-.02.07-.02h.04c.07-.03.15-.04.22-.05.01,0,.02,0,.03,0,.09-.02.18-.04.27-.06.06-.01.12-.02.19-.03.15-.04.31-.07.47-.09.09-.02.18-.04.27-.05.1-.02.21-.03.31-.05.02,0,.03-.01.05-.01h.03s.06-.01.09-.01c.07-.02.14-.02.21-.03.02-.01.05-.01.08-.01.02-.01.04-.01.06-.01.04-.01.09-.01.14-.02.08-.01.16-.02.25-.03.01,0,.03-.01.05-.01.09-.01.19-.02.3-.03h.05c.07-.01.14-.02.22-.02.26-.03.53-.05.8-.06.03-.01.07-.01.1-.01.07,0,.15-.01.23-.01.04,0,.09-.01.13-.01.13,0,.27-.02.4-.02.09-.01.17-.01.26-.01h.03c.17,0,.35-.01.52-.01.18-.01.35-.01.53-.01.19,0,.38,0,.56.01.12,0,.23,0,.35.01h.2c.12,0,.24.01.35.01.06,0,.12,0,.18.01.06,0,.12,0,.18.02.2,0,.4.01.6.03.39.02.77.06,1.15.1.41.05.82.1,1.22.17.15.02.29.05.43.08.18.03.36.06.54.1.09,0,.17.03.25.06.09,0,.18.03.27.05.18.03.35.07.52.12.3.07.59.15.87.24.11.04.22.07.33.11.01,0,.03.01.04.01.25.07.48.16.72.25.07.02.15.05.22.09.24.08.47.17.7.27h.01c.29.12.57.25.84.39.03.01.07.03.1.05.11.06.23.12.34.19.13.06.26.13.39.2.02.01.05.03.08.05.01.01.02.01.03.02.02.01.05.02.07.04.01,0,.01.01.02.01.06.03.12.07.18.12.01.01.02.01.04.01.01.01.02.01.03.02.02.01.05.02.07.04.11.07.22.14.33.21h.01s.04.03.06.05c.02,0,.03.02.05.03,0,.01.01.01.01.01.04.02.08.05.12.08l.02.02s0,0,0,.01t.02,0s.01,0,.02.01c.03.02.06.03.08.06,0,0,0,.01.02.01.07.04.14.09.2.14.05.03.1.07.15.11.07.05.14.11.21.17.09.06.18.13.26.2.09.06.18.13.26.21.04.04.09.07.13.11l.12.12c.08.06.16.13.23.2.02.02.04.04.06.06.01,0,.02.01.03.03.04.03.08.06.11.1.07.06.13.12.19.19.09.08.17.16.25.25.02.01.03.02.04.05,0,0,.01,0,.01.01l.02.02s.04.03.06.06c.02,0,.05.04.08.07h0c.08.09.15.18.21.26.14.15.27.29.4.45.2.24.39.49.57.75.03.04.06.09.08.13,0,.01.02.01.02.02h.01s.03.04.03.06c.02.01.03.03.03.04.03.04.06.07.08.11.02.02.03.05.04.07.05.06.09.12.12.18,0,0,0,.01.01.01.03.05.07.1.11.17.09.14.17.27.25.41v.02s.04.04.05.07c.02.02.03.05.04.07.04.05.07.1.09.15,0,.01.01.01.01.02.05.08.09.16.13.25.23.41.44.83.63,1.27.15.32.28.65.41.99.02.04.03.08.04.12.06.14.12.29.16.44.09.26.18.52.26.78h0c.11.35.21.7.3,1.05.06.22.11.44.16.67.05.2.1.4.14.62,0,.05.02.1.03.16.01.05.02.1.03.15h0s0,.05.02.07c.01.09.03.17.04.26h.01c.02.12.04.24.06.36.06.35.11.7.16,1.06,0,.04.01.07.01.11.03.17.05.35.06.53.02.14.04.28.05.42.02.15.03.3.04.46,0,.03.01.05.01.08.03.28.05.56.07.85.02.27.03.54.04.82,0,.23.02.46.02.69.01.38.02.77.02,1.17,0,.51,0,1.03-.01,1.53Z"/>
        <path class="cls-1" d="M138.96,122.74c-9.63,0-21.32,3.97-21.1,22.85.08,6.61.61,12.69,1.47,18.24.01.03.01.05.01.07.58,3.7,1.29,7.16,2.11,10.39,4.6,18.29,12.41,29.16,15.82,32.82.3.32.57.58.79.79.51.47.82.67.89.6h.01c.07.08.41-.12.96-.6.25-.23.56-.52.89-.87,0,0,.01,0,.01-.01,3.47-3.57,10.91-13.59,15.46-30.75.77-2.91,1.46-6.03,2.02-9.37,1.09-6.33,1.75-13.43,1.75-21.31,0-18.89-11.47-22.85-21.09-22.85ZM138.95,207.5s-.12-.13-.27-.28l-.02-.02c-2.4-2.57-19.16-21.75-19.78-59.45-.01-.25-.01-.49-.01-.74-.01-.47-.01-.94-.01-1.42,0-.45.01-.9.02-1.34,0-.44.03-.87.06-1.29.02-.43.06-.85.1-1.26v-.03c.03-.28.06-.56.1-.84.02-.25.06-.5.1-.75.05-.38.11-.75.18-1.11.06-.33.12-.66.2-.98.04-.22.09-.43.15-.64.07-.32.16-.63.25-.93.05-.2.11-.4.18-.59.07-.23.14-.45.22-.66.02-.07.05-.13.08-.2.02-.05.03-.1.05-.15.05-.15.12-.3.18-.45.02-.03.03-.05.04-.08.01-.05.03-.09.05-.13.09-.24.2-.48.31-.71.13-.29.27-.57.42-.85,0,0,0-.02.01-.03.16-.3.33-.6.51-.88.15-.26.31-.5.48-.74.03-.05.06-.1.1-.14.15-.21.3-.42.46-.62.06-.09.13-.17.19-.25.4-.48.82-.94,1.26-1.36.08-.08.17-.16.25-.23.09-.09.18-.17.27-.25.11-.1.22-.2.34-.29.25-.21.5-.41.77-.59.03-.03.07-.06.1-.08.02-.02.04-.03.06-.04.05-.04.1-.07.15-.1.27-.19.55-.37.83-.53.34-.2.69-.39,1.05-.57.86-.44,1.78-.8,2.76-1.1.29-.09.58-.17.87-.25.11-.03.22-.05.33-.08.04-.01.07-.02.11-.03.04-.01.07-.02.11-.02.02-.01.04-.02.07-.02h.04c.07-.03.15-.04.22-.05.01,0,.02,0,.03,0,.09-.02.18-.04.27-.06.06-.01.12-.02.19-.03.15-.04.31-.07.47-.09.09-.02.18-.04.27-.05.1-.02.21-.03.31-.05.02,0,.03-.01.05-.01h.03s.06-.01.09-.01c.07-.02.14-.02.21-.03.02-.01.05-.01.08-.01.02-.01.04-.01.06-.01.04-.01.09-.01.14-.02.08-.01.16-.02.25-.03.01,0,.03-.01.05-.01.09-.01.19-.02.3-.03h.05c.07-.01.14-.02.22-.02.26-.03.53-.05.8-.06.03-.01.07-.01.1-.01.07,0,.15-.01.23-.01.04,0,.09-.01.13-.01.13,0,.27-.02.4-.02.09-.01.17-.01.26-.01h.03c.17,0,.35-.01.52-.01.18-.01.35-.01.53-.01.19,0,.38,0,.56.01.12,0,.23,0,.35.01h.2c.12,0,.24.01.35.01.06,0,.12,0,.18.01.27,0,.52.03.78.05.39.02.77.06,1.15.1.41.05.82.1,1.22.17.15.02.29.05.43.08.18.03.36.06.54.1.18.04.35.07.52.11.18.03.35.07.52.12.3.07.59.15.87.24.11.04.22.07.33.11.01,0,.03.01.04.01.25.07.48.16.72.25.32.11.62.23.92.36h.01c.29.12.57.25.84.39.03.01.07.03.1.05.25.12.49.25.73.39.02.01.05.03.08.05.01.01.02.01.03.02.02.01.05.02.07.04.01,0,.01.01.02.01.08.04.15.08.22.13.01.01.02.01.03.02.02.01.05.02.07.04.11.07.22.14.33.21h.01s.04.03.06.05c.02,0,.03.02.05.03,0,.01.01.01.01.01.04.02.08.05.12.08l.02.02s0,0,0,.01t.02,0s.01,0,.02.01c.03.02.06.03.08.06,0,0,0,.01.02.01.07.04.13.08.2.14.05.03.1.07.15.11.16.11.32.23.47.37.09.06.18.13.26.21.04.04.09.07.13.11.12.1.23.2.35.32.02.02.04.04.06.06.01,0,.02.01.03.03.04.02.08.06.11.1.07.06.13.12.19.19.09.08.17.16.25.25.02.01.03.02.04.05,0,0,.01,0,.01.01l.02.02s.04.03.06.06c.02,0,.05.04.08.07h0c.22.24.42.47.61.71.2.24.39.49.57.75.03.04.06.09.08.13,0,.01.02.01.02.02h.01s.03.04.03.06c.02.01.03.03.03.04.03.04.06.07.08.11.02.02.03.05.04.07.05.06.09.12.12.18,0,0,0,.01.01.01.03.05.07.1.11.17.09.13.18.27.25.41h0s0,.01.01.01c.02.03.03.05.04.08.02.02.03.05.04.07.04.05.07.1.09.15,0,.01.01.01.01.02.05.08.09.16.13.25.23.41.44.83.63,1.27.15.32.28.65.41.99.02.04.03.08.04.12.06.14.11.29.16.44.09.26.18.52.26.78h0c.11.35.21.7.3,1.05.06.22.11.44.16.67.05.2.1.4.14.62,0,.05.02.1.03.16.01.05.02.1.03.15h0s0,.05.02.07c.02.09.03.17.05.26.02.12.04.24.06.36.06.35.11.7.16,1.06,0,.04.01.07.01.11.05.31.08.63.11.95.02.15.03.3.04.46,0,.03.01.05.01.08.03.27.05.56.07.85.02.27.03.54.04.82,0,.23.02.46.02.69.01.38.02.77.02,1.17,0,.51,0,1.03-.01,1.53,0,.51-.01,1.01-.02,1.51-.9,41.87-20.06,58.87-20.06,58.87h-.01Z"/>
        <path class="cls-1" d="M85.87,122.75c-8.97,0-19.87,3.69-19.66,21.3.07,6.32.6,12.11,1.43,17.39.58,3.68,1.31,7.11,2.15,10.29,4.25,16.24,11.17,26.01,14.37,29.5.31.34.59.62.82.85.5.47.81.67.88.6h.01c.07.07.41-.13.95-.62.25-.22.55-.52.89-.87,3.21-3.35,9.86-12.39,14.07-27.69.77-2.81,1.46-5.84,2.04-9.08,0-.04,0-.07.02-.1,1.05-6.01,1.69-12.76,1.69-20.27,0-17.61-10.69-21.3-19.66-21.3ZM85.94,201.69c-.05.04-.07.06-.07.06l-.06-.06c-1.1-1.12-16.48-17.38-18.46-50.52-.01-.12-.01-.23-.02-.35-.12-2.18-.19-4.44-.19-6.77,0-13.52,6.3-20.37,18.73-20.37s18.73,6.85,18.73,20.37c0,2.57-.07,5.04-.21,7.42-1.98,34.32-17.29,49.14-18.45,50.22Z"/>
        <path class="cls-1" d="M37.13,122.74c-7.08,0-15.66,2.91-15.5,16.79.07,5.89.64,11.21,1.52,15.96.59,3.22,1.33,6.18,2.16,8.88,3.42,11.16,8.3,17.9,10.56,20.34.38.4.69.69.9.86h.01c.19.15.31.21.34.17h.01s.13-.01.3-.13c.18-.12.44-.34.76-.65,2.47-2.4,8.65-10.37,12.07-24.53.78-3.24,1.42-6.81,1.83-10.72.01-.04.01-.09.01-.13.34-3.13.52-6.48.52-10.05,0-13.88-8.43-16.79-15.49-16.79ZM37.13,185.01s-10.4-10.24-13.74-31.81c-.65-4.14-1.03-8.69-1.03-13.67,0-10.65,4.97-16.05,14.77-16.05,7.43,0,12.08,3.11,13.89,9.26.08.24.15.5.21.76.05.19.09.39.14.59.35,1.63.52,3.44.52,5.44,0,32.39-14.76,45.48-14.76,45.48Z"/>
      </g>
    </g>
  </g>
</svg>