<?xml version="1.0" encoding="UTF-8"?>
<svg id="Calque_2" data-name="Calque 2" xmlns="http://www.w3.org/2000/svg" viewBox="0 0 68.41 159.27">
  <defs>
    <style>
      .cls-1 {
        fill: none;
        stroke: #38318d;
        stroke-miterlimit: 10;
        stroke-width: 4px;
      }
    </style>
  </defs>
  <g id="Calque_1-2" data-name="Calque 1">
    <path class="cls-1" d="M34.49,35.01c-1.73,4.75-5.85,8.19-10.9,9.08-11.55,1.81-18.67-10.33-16.48-20.46C9.64,9.14,24.13,1.04,37.83,2.09c6.73.47,13.7,1.72,18.79,6.35,12.37,11.15,12.6,35.02,3.07,47.89-7.09,9.9-17.55,16.32-26.15,24.19-7.08,6.85-13.81,14.42-19.25,22.56-12.23,18.43-9.75,37.8,3.87,54.74-3.73-3.53-7.1-7.52-9.78-12.02-15.9-26.68.77-51.58,18.75-71.77,8.05-8.72,18.19-15.31,24.05-25.44,4.13-8.32,3.02-23.07-4.02-29.03-1.15-.91-2.43-1.37-3.83-1.65-3.97-.92-8.12-1.29-11.98-.55-4.86.88-9.32,4.15-10.55,8.97-.43,1.9-.42,3.44.41,4.74,1.19,1.28,2.31,1.7,5.13,2.39,2.18.5,4.85.81,8.16,1.56h0Z"/>
  </g>
</svg>