<?xml version="1.0" encoding="UTF-8"?>
<svg id="Calque_2" data-name="Calque 2" xmlns="http://www.w3.org/2000/svg" viewBox="0 0 32.01 37.27">
  <defs>
    <style>
      .cls-1 {
        fill: #38318d;
      }
    </style>
  </defs>
  <g id="Calque_1-2" data-name="Calque 1">
    <g id="uuid-93f5187e-e4e5-4680-b960-09f8d4324467" data-name="Calque 1-2">
      <path class="cls-1" d="M14.08,37.27l.33-1.34c.26-1.08-.35-1.69-1.05-2.26-.17-.14-.31-.25-.4-.37-.35-.46-.67-.79-.96-1.09-.76-.79-1.31-1.36-1.25-3.12.04-1.04.21-2.05.51-3.02-1.13.71-2.17.9-3.13.56-.94-.34-1.47-1.07-2.15-1.99-.36-.49-.76-1.04-1.31-1.64-1.17-1.3-2.53-2.34-4.04-3.07l-.63-.31.5-.5c.72-.72,1.48-1.41,2.25-2.04.79-.65,1.49-1.3,2.16-1.93,1.86-1.74,3.33-3.11,5.1-2.73.21.05.49.1.82.24-.23-.88-.36-2.04-.2-3.63,0-.08,0-.18-.02-.3-.09-.77-.06-1.65,1.41-3.11,1.57-1.56,1.99-2.33,2.45-3.88l.52-1.72.44,1.74c.09.36,1.25.78,2.18,1.12,2.31.84,5.47,1.99,4.68,5.28-.23.97-.54,1.91-.91,2.8.28-.14.56-.26.85-.36.71-.25,1.46-.37,2.19-.5,1.41-.24,2.62-.45,3.1-1.38l.62-1.18.31,1.3c.14.59.3,1.14.44,1.66.63,2.24,1.17,4.17-.35,6.11-.76.97-1.61,1.57-2.43,1.93,1.15.55,1.78,1.33,2.02,1.67.53.77.55,1.28.58,1.86.02.52.05,1.17.47,2.34.48,1.34,1.3,2.51,2.42,3.46l.4.34-.36.38c-.59.62-1.78.74-3.17.88-.63.06-1.27.13-1.89.25-.09.02-.29.12-.48.21-.93.47-2.67,1.34-4.69-.65-.41-.4-.75-.84-1.05-1.28-.03.92-.19,1.75-.49,2.46-.15.36-.19.58-.23.86-.05.36-.11.76-.4,1.49-.35.87-3.19,3.02-4.06,3.66l-1.11.82ZM14.37,21.85l-1.46,2.81c-.72,1.38-1.11,2.88-1.16,4.45-.05,1.34.25,1.65.97,2.39.28.3.64.67,1.03,1.17.05.06.14.12.24.21.45.37,1.27,1.04,1.45,2.12,1.4-1.09,2.74-2.24,2.88-2.59.25-.62.3-.94.34-1.26.04-.31.09-.62.29-1.1.52-1.23.55-2.9.09-4.95l.97-.25c.31,1.05.93,2.55,2.11,3.71,1.51,1.49,2.63.92,3.54.47.28-.14.51-.26.75-.3.66-.12,1.33-.19,1.97-.26.77-.08,1.55-.16,2.06-.32-.99-.97-1.73-2.11-2.2-3.41-.47-1.32-.5-2.08-.53-2.64-.02-.52-.03-.81-.4-1.33-.27-.39-1.16-1.45-2.98-1.76-.88.1-1.57-.01-1.82-.06l-3.34-.69,3.4-.29c.66-.06,1.25-.04,1.78.04,1.01-.14,2.31-.63,3.4-2.02,1.21-1.54.8-3.01.17-5.23-.07-.24-.14-.49-.21-.74-.82.66-1.99.87-3.14,1.06-.69.12-1.4.24-2.03.46-.73.25-1.44.67-2.1,1.24l-2.11,1.81,1.35-2.43c.72-1.3,1.27-2.72,1.63-4.23.54-2.24-1.43-3.15-4.05-4.11-.86-.31-1.61-.59-2.12-.94-.43,1.16-1.02,2.05-2.42,3.45-1.25,1.24-1.19,1.8-1.13,2.28.02.16.04.33.02.52-.29,2.97.48,4.26.99,4.93.1.11.19.23.29.35l.14.17c.66.81.7.86.96,1.5l.04.1-.9.43c-.35-.63-.68-1.14-.99-1.54l-.12-.15c-.06-.08-.14-.16-.21-.26-.91-1.03-1.59-1.18-1.98-1.26-1.29-.28-2.53.88-4.25,2.48-.65.61-1.39,1.3-2.21,1.97-.57.47-1.14.97-1.69,1.5,1.38.76,2.63,1.76,3.73,2.98.58.64,1,1.21,1.37,1.72.62.85,1.03,1.4,1.68,1.64.99.36,2.21-.18,3.65-1.6l2.25-2.23Z"/>
      <path class="cls-1" d="M17.11,19.29c0-.89.12-1.76.39-2.6.31-.98.79-1.87,1.42-2.67l.59.47c-.58.73-1.01,1.54-1.29,2.43-.24.76-.36,1.56-.35,2.37h-.75Z"/>
      <path class="cls-1" d="M17.84,19.4l-.72-.22c.29-.94.73-1.79,1.29-2.54,1.93-2.55,4.84-3.14,6-3.27l.09.75c-1.06.12-3.73.66-5.48,2.98-.51.68-.91,1.46-1.17,2.31Z"/>
      <path class="cls-1" d="M17.82,19.46l-.67-.34c.33-.67.77-1.26,1.29-1.76,1.56-1.51,3.47-1.77,4.47-1.79l.02.75c-.89.02-2.59.25-3.97,1.58-.46.44-.84.96-1.14,1.56Z"/>
      <path class="cls-1" d="M19.28,14.68c-.17,0-.28-.06-.35-.12-.4-.33-.16-1.02.25-1.57.32-.42.71-.69,1.02-.73.21-.02.35.05.43.12.4.33.16,1.02-.25,1.56-.32.42-.71.69-1.02.73-.03,0-.05,0-.08,0ZM19.94,13.26c-.05.05-.11.12-.16.19-.06.08-.11.16-.15.23.05-.05.11-.12.16-.19.06-.08.11-.16.15-.23Z"/>
      <path class="cls-1" d="M24.92,14.13c-.2,0-.4-.03-.53-.11-.12-.07-.16-.17-.17-.24-.12-.53.98-.82,1.2-.87h0c.21-.05.94-.2,1.28.02.12.07.16.17.17.24.12.54-.98.82-1.2.87-.13.03-.44.09-.75.09ZM24.87,13.63c.16,0,.4-.01.68-.08.29-.07.52-.16.66-.23-.16,0-.39.01-.69.08h0c-.29.07-.52.16-.66.23Z"/>
      <path class="cls-1" d="M23.76,16.52c-.55,0-1.11-.18-1.11-.58,0-.8,2.23-.8,2.23,0,0,.4-.56.58-1.11.58ZM23.24,15.94c.1.04.28.08.52.08s.42-.04.52-.08c-.1-.04-.28-.08-.52-.08s-.42.04-.52.08Z"/>
      <path class="cls-1" d="M15.91,19.14l-.08-.16c-.75-.44-1.44-.98-2.04-1.62h0l-.07-.08c-.13-.14-.11-.33.03-.46.15-.14.46-.21.64-.02.3.32.62.62.96.89-.1-.38-.15-.78-.17-1.18,0-.12.06-.24.17-.31.14-.09.33-.1.47-.03.11.06.18.17.19.29.03.69.2,1.39.5,2.01l.29.17-.22.13c-.01.07-.05.14-.11.2-.11.1-.29.15-.44.12l-.12.07ZM15.67,16.48h0s0,0,0,0Z"/>
      <path class="cls-1" d="M15.23,21.26s-.07,0-.11-.01c-.12-.03-.21-.11-.25-.23-.03-.12,0-.24.09-.33.29-.28.61-.53.96-.72h0c.24-.13.4-.07.48-.02.1.06.16.16.16.27,0,.12-.08.24-.19.3-.3.17-.55.35-.79.59-.09.09-.23.14-.36.14ZM15.32,21.05h0s0,0,0,0ZM16.15,20.38s0,0,0,0l-.09-.16h0s.09.16.09.16Z"/>
      <path class="cls-1" d="M19.36,23.65c-.2,0-.32-.12-.34-.25-.21-1.07-.56-2.11-1.03-3.1h0c-.06-.14-.03-.33.2-.44.21-.1.48-.08.58.13.48,1.02.84,2.1,1.06,3.21.04.2-.11.38-.36.43-.04,0-.08.01-.11.01Z"/>
      <path class="cls-1" d="M18.64,19.27c-.12,0-.23-.04-.31-.15-.05-.08-.07-.18-.04-.27.04-.13.15-.21.24-.25.5-.21,1.01-.36,1.53-.47l-.02-.02.5-.07c.1-.01.24,0,.34.1.05.05.08.12.09.19l.14.14-.16.02c-.05.14-.19.24-.38.26-.59.08-1.17.24-1.71.47-.07.03-.14.05-.22.05Z"/>
    </g>
  </g>
</svg>