<?xml version="1.0" encoding="UTF-8"?>
<svg id="Calque_2" data-name="Calque 2" xmlns="http://www.w3.org/2000/svg" viewBox="0 0 120.28 116.89">
  <defs>
    <style>
      .cls-1 {
        fill: #38348b;
      }
    </style>
  </defs>
  <g id="Calque_1-2" data-name="Calque 1">
    <path class="cls-1" d="M60.99,30.25c-2.84-10.96-10.5-20.45-20.47-25.77C35.21,1.65,29.07-.19,23.02.04S11.38,3.07,7.55,7.9,1.74,18.37.73,24.21c-1.19,6.86-.97,14.01,1.07,20.7,1.91,6.26,5.42,11.85,9.4,16.99,4.41,5.71,9.3,11.05,14.03,16.49,5.67,6.52,11.33,13.04,17,19.56,2.83,3.26,5.67,6.52,8.5,9.78,2.69,3.09,5.35,6.21,8.53,8.81.56.46,1.2.47,1.77,0,2.8-2.3,5.21-4.99,7.58-7.72,2.5-2.87,4.99-5.74,7.49-8.62,5.12-5.89,10.24-11.79,15.36-17.68,4.85-5.58,9.78-11.1,14.52-16.77,4.22-5.05,8.24-10.39,10.87-16.46,2.77-6.37,3.83-13.36,3.31-20.28-.47-6.18-2.01-12.45-5.17-17.83-2.87-4.89-7.22-8.94-12.8-10.44-6.21-1.67-13.03-.37-18.87,2.06-11.67,4.85-20.85,15.18-24.03,27.45-.4,1.56,2.01,2.22,2.41.66,2.69-10.37,9.9-19.24,19.33-24.28,5.11-2.73,11.07-4.45,16.9-4.07s10.88,3.71,14.12,8.63,4.88,10.71,5.48,16.47c.69,6.59-.03,13.3-2.48,19.48s-6.14,11.14-10.16,16.01c-4.4,5.34-9.04,10.5-13.57,15.72-5.34,6.14-10.68,12.29-16.02,18.43-2.72,3.13-5.45,6.27-8.17,9.4-2.47,2.84-4.96,5.66-7.88,8.06h1.77c-5.32-4.36-9.59-10.03-14.09-15.2-4.79-5.52-9.59-11.03-14.38-16.55s-9.43-10.81-14.11-16.24c-4.13-4.79-8.17-9.71-11.18-15.3C1.3,40.41.77,26.15,6.23,14.74c2.33-4.86,6.02-9.36,11.25-11.19,5.88-2.05,12.5-.85,18.14,1.39,11.16,4.43,19.94,14.36,22.95,25.97.4,1.56,2.82.9,2.41-.66h0Z"/>
  </g>
</svg>