<?xml version="1.0" encoding="UTF-8"?>
<svg id="Calque_2" data-name="Calque 2" xmlns="http://www.w3.org/2000/svg" viewBox="0 0 272.19 298.44">
  <defs>
    <style>
      .cls-1 {
        fill: #38348b;
      }

      .cls-2 {
        fill: none;
        stroke: #38348b;
        stroke-miterlimit: 10;
        stroke-width: 2px;
      }
    </style>
  </defs>
  <g id="Calque_1-2" data-name="Calque 1">
    <path class="cls-2" d="M126.4,3.62c-4.21,13.55-8.12,20.92-22.79,35.02-15.91,15.29-10.49,21.17-11.03,26.63-3.24,32.4,8.08,43.24,12.22,48.17,7.47,8.89,6.91,8.02,9.52,14.16-15.26-26.52-27.11-28.51-32.53-29.63-18.33-3.8-34.26,18.16-60.48,39.02-8.4,6.68-15.05,12.82-19.57,17.19,10.77,5.09,24.14,13.34,37.09,27.29,13.77,14.82,17.79,26.09,28.77,29.91,7.62,2.65,19.4,2.01,36.83-14.67-4.73,8.84-10.14,22.47-10.76,39.92-.66,18.37,6.84,18.54,18.54,33.23,2.61,3.28,17.62,10.37,13.64,26.19,0,0,31.47-22.54,34.37-29.46,4.51-10.79,2.22-12.4,5.6-20.12,3.6-8.22,6.41-21.87,1.05-44.99,2.25,7.34,7.7,22.05,19.75,33.56,19.8,18.91,34.99,3.86,41.79,2.63,17.01-3.06,36.25-2.2,42.3-8.39-6.91-5.66-16.81-15.57-22.68-31.38-7.99-21.49-.85-23.99-8.7-34.97-4.93-6.89-18.86-19.54-45.13-17.34,3.13.63,29.46,5.38,48.93-18.57,14.96-18.41,5-36.21-1.62-62.84-7.85,14.55-31.06,12-49.28,18.1-9.03,3.02-15.81,7.87-20.03,11.37,5.13-8.94,10.91-21.37,14.85-37.31,9.45-38.2-56.81-38.14-60.65-52.71Z"/>
    <path class="cls-2" d="M148.77,152.7c-.05-5.17.48-12.71,3.27-21.28,3.33-10.21,8.44-17.5,12-21.82"/>
    <path class="cls-2" d="M148.76,152.7c1.92-5.99,5.19-13.42,10.91-20.73,17.33-22.16,43.65-25.94,50.74-26.73"/>
    <path class="cls-2" d="M148.76,152.7c2.16-4.17,5.51-9.34,10.71-14.18,14.12-13.17,31.54-14.33,37.31-14.46"/>
    <ellipse class="cls-2" cx="169.1" cy="102.89" rx="8.73" ry="3.41" transform="translate(-16.72 171.11) rotate(-51.48)"/>
    <ellipse class="cls-2" cx="220.01" cy="102.89" rx="9.82" ry="2.81" transform="translate(-17.25 50.93) rotate(-12.71)"/>
    <path class="cls-2" d="M204.25,126.87c-4.22,0-7.64-1.26-7.64-2.81s3.42-2.81,7.64-2.81c4.22,0,7.64,1.26,7.64,2.81,0,1.55-3.42,2.81-7.64,2.81Z"/>
    <path class="cls-1" d="M117.01,133.96c5.54,5.8,11.94,10.73,18.96,14.58.84.46,3.12-.14,2.46-1.4-3-5.76-4.71-12.21-4.98-18.7-.06-1.42-2.97-.89-2.92.27.28,6.89,2.05,13.53,5.23,19.65l2.46-1.4c-6.88-3.77-13.14-8.56-18.56-14.23-.83-.87-3.59.26-2.67,1.23h0Z"/>
    <path class="cls-1" d="M136.04,160.4c-2.91,1.56-5.6,3.52-7.98,5.8-.44.42-.3.99.3,1.13.68.15,1.54-.06,2.05-.55,2.26-2.16,4.64-3.88,7.46-5.39.46-.25.8-.91.23-1.23-.63-.36-1.48-.06-2.06.25h0Z"/>
    <path class="cls-1" d="M155.24,160.37c4.2,8.57,7.3,17.64,9.24,26.99.2.97,3.11.25,2.9-.78-1.94-9.35-5.04-18.41-9.24-26.99-.48-.97-3.3-.05-2.9.78h0Z"/>
    <path class="cls-1" d="M176.08,144.13c-5.93.77-11.72,2.3-17.26,4.55-.48.2-1.12.78-.73,1.33s1.44.33,1.94.12c5.04-2.05,10.33-3.43,15.72-4.14.58-.07,1.53-.39,1.62-1.08s-.81-.85-1.3-.79h0Z"/>
  </g>
</svg>