<?xml version="1.0" encoding="UTF-8"?>
<svg id="Calque_2" data-name="Calque 2" xmlns="http://www.w3.org/2000/svg" viewBox="0 0 198.71 185.67">
  <defs>
    <style>
      .cls-1 {
        stroke-width: 4px;
      }

      .cls-1, .cls-2 {
        fill: none;
        stroke: #38318d;
        stroke-miterlimit: 10;
      }

      .cls-2 {
        stroke-width: 3px;
      }
    </style>
  </defs>
  <g id="Calque_1-2" data-name="Calque 1">
    <path class="cls-1" d="M45.67,6.21c.72,9.24.05,14.64-5.89,27.06-6.41,13.46-1.43,15.48-.39,18.83,6.12,20.13,16.15,23.44,20.06,25.29,7.1,3.23,6.48,2.86,9.73,5.83-16.58-11.54-24.71-9.49-28.48-8.66-12.79,2.77-17.57,20.24-29.24,39.8-3.74,6.29-6.52,11.75-8.32,15.61,8.27.06,18.93,1.28,30.87,6.03,12.66,5,18.1,10.62,26.17,9.85,5.57-.54,13.04-4.14,20.07-18.85-.81,6.52-.84,16.14,3.1,26.68,4.2,11.13,9.07,9.12,20.34,14.64,2.51,1.25,14,1.34,15.41,11.83,0,0,14.67-22.02,14.78-26.98.18-7.65-1.71-7.97-1.46-13.48.25-5.86-1.4-14.77-10.66-27.04,3.27,3.73,10.56,11.02,21.28,14.52,17.57,5.79,23.6-7.3,27.67-9.94,10.2-6.51,22.84-11.25,25.21-16.61-5.9-1.49-14.8-4.65-22.6-12.42-10.6-10.58-6.65-14.01-14.47-18.41-4.91-2.75-17.14-6.39-33.52,2.11,2.15-.5,20.43-4.9,26.9-24.49,5.04-15.05-5.91-22.88-16.9-36.88-1.42,10.85-17.07,15.68-27.29,24.3-5.06,4.26-8.21,9.04-10.04,12.27,1.05-6.69,1.64-15.71.21-26.26-3.58-25.28-46.33-7.03-52.54-14.64h0Z"/>
    <path class="cls-2" d="M97.81,88.65c-1.31-3.09-2.89-7.68-3.25-13.56-.44-6.97,1.01-12.71,2.25-16.25"/>
    <path class="cls-2" d="M97.81,88.65c-.29-4.09-.03-9.39,1.81-15.3,5.57-17.94,21.7-27.4,26.02-29.8"/>
    <path class="cls-2" d="M97.81,88.65c.36-3.1,1.2-7.04,3.33-11.38,5.78-11.72,16.74-17.15,20.44-18.87"/>
    <ellipse class="cls-2" cx="98.33" cy="53.44" rx="5.82" ry="2.31" transform="translate(16.18 129.43) rotate(-71.3)"/>
    <ellipse class="cls-2" cx="131.27" cy="39.5" rx="6.86" ry="1.81" transform="translate(.78 81.5) rotate(-34.59)"/>
    <path class="cls-2" d="M127.09,58.1c-2.71,1.15-5.24,1.32-5.62.42s1.49-2.6,4.2-3.75,5.24-1.32,5.62-.42-1.49,2.6-4.2,3.75Z"/>
    <path class="cls-2" d="M72.54,86.28c5.02,1.94,10.39,3.09,15.97,3.45.64.08,1.98-.91,1.26-1.52-3.4-2.62-6.12-5.96-7.96-9.74-.35-.83-2.17.29-1.8.98,1.94,4.02,4.77,7.44,8.31,10.22l1.26-1.52c-5.42-.36-10.64-1.51-15.61-3.33-.74-.31-2.25,1.17-1.44,1.45h0Z"/>
    <path class="cls-2" d="M91.49,96.75c-1.47,1.75-2.73,3.62-3.7,5.64-.16.35.06.68.47.57.48-.13.97-.41,1.21-.93.93-1.94,1.99-3.58,3.48-5.27.27-.26.29-.75-.17-.77-.49-.07-.97.41-1.31.7h0l.03.06Z"/>
    <path class="cls-2" d="M103.89,91.47c4.89,3.96,9.16,8.45,12.77,13.52.38.54,2.05-.73,1.67-1.27-3.6-5.06-7.88-9.56-12.77-13.52-.58-.46-2.13.91-1.67,1.27h0Z"/>
    <path class="cls-2" d="M113.28,76.04c-3.61,2.1-6.98,4.58-10.02,7.49-.27.26-.51.78-.12.96s.98-.21,1.25-.46c2.7-2.62,5.8-4.85,9.11-6.75.39-.16.87-.65.76-1.09s-.74-.31-1.04-.12h0l.06-.03Z"/>
  </g>
</svg>