<?xml version="1.0" encoding="UTF-8"?>
<svg id="Calque_2" data-name="Calque 2" xmlns="http://www.w3.org/2000/svg" xmlns:xlink="http://www.w3.org/1999/xlink" viewBox="0 0 34.99 77.13">
  <defs>
    <style>
      .cls-1 {
        fill: #38318d;
        stroke: #38318d;
        stroke-miterlimit: 10;
      }

      .cls-2 {
        fill: url(#Dégradé_sans_nom_57);
      }
    </style>
    <linearGradient id="Dégradé_sans_nom_57" data-name="Dégradé sans nom 57" x1="17.47" y1=".79" x2="17.47" y2="53.35" gradientUnits="userSpaceOnUse">
      <stop offset="0" stop-color="#38318d"/>
      <stop offset=".71" stop-color="#38318d" stop-opacity="0"/>
      <stop offset=".86" stop-color="#38318d" stop-opacity="0"/>
    </linearGradient>
  </defs>
  <g id="Calque_2-2" data-name="Calque 2">
    <path class="cls-1" d="M34.07,38.62c0-5.12-2.36-9.83-6.48-12.96L25.04.69v-.14l-15.34-.05-2.29,25.15c-4.13,3.13-6.49,7.85-6.49,12.97l-.42,37.94v.07h.29l.42-38.01c0-4.94,2.25-9.52,6.19-12.6l-.48,14.85v.45c.1,3.31,1.23,6.4,3.21,8.71,1.98,2.32,4.6,3.6,7.36,3.6s5.38-1.28,7.36-3.6c1.97-2.31,3.11-5.4,3.21-8.71v-.46l-.48-14.84c3.93,3.07,6.18,7.64,6.18,12.59l.43,37.94v.07h.29l-.43-38.01h.02ZM27.79,40.88v.44c-.09,3.24-1.21,6.27-3.14,8.53-1.93,2.25-4.46,3.5-7.14,3.5s-5.22-1.24-7.14-3.5c-1.93-2.26-3.04-5.29-3.14-8.53v-.44C6.27,26.61,9.98.79,9.98.79l14.78.05s3.5,25.74,3.03,40.04Z"/>
    <path class="cls-2" d="M9.98.79c3.83,0,10.95.05,14.78.05,2.36,22.16,1.97,30.81,3.05,35.08.12.47-.43,8.2-1.04,10.37-.89,3.17-5.2,7.19-9.26,7.06-3.59-.11-7.18-3.53-7.74-4.27-2.23-2.96-2.64-8.87-2.65-10.51-.08-11.66,2.73-36.78,2.86-37.77Z"/>
  </g>
</svg>