<svg width="35" height="78" viewBox="0 0 35 78" fill="none" xmlns="http://www.w3.org/2000/svg">
<path d="M34.0696 38.7681C34.0682 33.6531 31.7077 28.9362 27.5881 25.8062L26.781 0.691658L26.7767 0.550704L8.22477 0.501297L7.41186 25.7975C3.28503 28.9275 0.920218 33.6487 0.920218 38.7652L0.5 76.7007V76.7749H0.789806L1.21002 38.7681C1.21002 33.8246 3.46326 29.2457 7.40027 26.1724L6.92354 41.0219C6.92354 41.1731 6.92644 41.3242 6.93079 41.4753C7.02642 44.7827 8.16391 47.8749 10.1375 50.1825C12.1198 52.5032 14.7353 53.7805 17.5 53.7805C20.2647 53.7805 22.8802 52.5032 24.8625 50.1825C26.8361 47.8749 27.9736 44.7827 28.0692 41.4753C28.0736 41.3242 28.0765 41.1731 28.0765 41.0176L27.5997 26.1811C31.5309 29.253 33.7798 33.826 33.7798 38.7681L34.2087 76.7036V76.7749H34.5L34.0696 38.7681ZM27.7867 41.0219C27.7867 41.1702 27.7838 41.3184 27.7794 41.4666C27.6867 44.7071 26.5724 47.7354 24.6437 49.9936C22.7151 52.2474 20.1793 53.4898 17.5 53.4898C14.8207 53.4898 12.2849 52.2474 10.3563 49.9936C8.42763 47.7354 7.31333 44.7071 7.22059 41.4666C7.21625 41.3184 7.21335 41.1702 7.21335 41.0263L8.50443 0.791924L26.497 0.84133L27.7867 41.0219Z" fill="#38318D" stroke="#38318D" stroke-miterlimit="10"/>
</svg>
